<svg width="1280" height="1222" viewBox="0 0 1280 1222" fill="none" xmlns="http://www.w3.org/2000/svg">
<g clip-path="url(#clip0_2024_772)">
<circle cx="32" cy="34" r="134" transform="rotate(180 32 34)" fill="#AFD1D2"/>
<circle cx="1280" cy="604" r="82" transform="rotate(180 1280 604)" fill="#AFD1D2"/>
<circle cy="847" r="82" transform="rotate(180 0 847)" fill="#AFD1D2"/>
<circle cx="1302" cy="140" r="99" transform="rotate(180 1302 140)" fill="#AFD1D2"/>
<circle cx="1111" cy="72" r="38" transform="rotate(180 1111 72)" fill="#AFD1D2"/>
<circle cx="275" cy="589" r="58" transform="rotate(180 275 589)" fill="#AFD1D2"/>
<circle cy="447" r="42" transform="rotate(180 0 447)" fill="#AFD1D2"/>
<circle cx="1168" cy="391" r="42" transform="rotate(180 1168 391)" fill="#AFD1D2"/>
<circle cx="1102" cy="555" r="24" transform="rotate(180 1102 555)" fill="#AFD1D2"/>
<circle cx="152" cy="943" r="24" transform="rotate(180 152 943)" fill="#AFD1D2"/>
<circle cx="333" cy="-13" r="58" transform="rotate(180 333 -13)" fill="#AFD1D2"/>
<circle cx="1280" cy="981" r="52" transform="rotate(180 1280 981)" fill="#AFD1D2"/>
<circle cx="1184" cy="1029" r="15" transform="rotate(180 1184 1029)" fill="#AFD1D2"/>
</g>
<defs>
<clipPath id="clip0_2024_772">
<rect width="1280" height="1222" fill="white"/>
</clipPath>
</defs>
</svg>
