<svg width="53" height="52" viewBox="0 0 53 52" fill="none" xmlns="http://www.w3.org/2000/svg">
<g clip-path="url(#clip0_326_6500)">
<path d="M43.6148 0H9.38524C4.20184 0 0 4.22827 0 9.44427V42.5557C0 47.7717 4.20184 52 9.38524 52H43.6148C48.7982 52 53 47.7717 53 42.5557V9.44427C53 4.22827 48.7982 0 43.6148 0Z" fill="#00005B"/>
<path d="M21.2945 31.1094H13.0817L11.4111 36.3435C11.3878 36.4385 11.3337 36.5227 11.2553 36.5814C11.1768 36.6401 11.0814 36.6699 10.9839 36.6646H6.82448C6.58704 36.6646 6.50436 36.5334 6.57538 36.271L13.6859 15.7483C13.7569 15.5339 13.8279 15.3238 13.8989 15.0497C13.9922 14.5729 14.0399 14.0875 14.041 13.6011C14.0357 13.567 14.0388 13.5329 14.0505 13.4998C14.0611 13.4678 14.0791 13.4379 14.1035 13.4134C14.1279 13.3889 14.1576 13.3707 14.1894 13.3601C14.2222 13.3494 14.2561 13.3462 14.2901 13.3505H19.943C20.1084 13.3505 20.2038 13.4102 20.2271 13.5297L28.298 36.3073C28.369 36.5462 28.298 36.6657 28.0849 36.6646H23.4622C23.3827 36.6731 23.3032 36.6529 23.2375 36.607C23.1718 36.5611 23.1252 36.4929 23.1061 36.4139L21.2945 31.1094ZM14.3621 26.6966H19.9801C19.8381 26.2198 19.6717 25.6833 19.4819 25.087C19.2922 24.4907 19.0908 23.8529 18.8777 23.1734C18.6647 22.4939 18.4516 21.8134 18.2375 21.1339C18.0244 20.4545 17.8283 19.7985 17.6503 19.1659C17.4722 18.5345 17.3121 17.9563 17.1701 17.4305H17.1351C16.9348 18.3969 16.6857 19.3515 16.3889 20.2923C16.0571 21.3654 15.7189 22.463 15.3755 23.5841C15.031 24.7051 14.6939 25.743 14.3621 26.6966Z" fill="#9999FF"/>
<path d="M41.3836 29.0721H34.3792C34.465 29.7697 34.695 30.4406 35.0544 31.0433C35.4519 31.6395 36.0147 32.1057 36.6719 32.3851C37.5634 32.7734 38.528 32.9633 39.499 32.943C40.2696 32.9281 41.037 32.8438 41.7917 32.6891C42.467 32.5974 43.1295 32.4235 43.7633 32.1718C43.8821 32.0769 43.9414 32.1366 43.9414 32.351V35.7494C43.9467 35.8422 43.9287 35.935 43.8884 36.0182C43.8481 36.0833 43.793 36.1387 43.7284 36.1793C43.0256 36.4929 42.2846 36.7147 41.5257 36.8395C40.4943 37.0347 39.446 37.1243 38.3966 37.1083C36.7133 37.1083 35.3024 36.8459 34.165 36.3211C33.0902 35.8443 32.1404 35.1222 31.3921 34.2102C30.6925 33.3515 30.1731 32.3595 29.8636 31.2939C29.5572 30.2422 29.4014 29.1521 29.4014 28.0555C29.3982 26.8587 29.5848 25.6694 29.9526 24.5313C30.3077 23.4209 30.8684 22.3894 31.6062 21.4902C32.3334 20.6017 33.2428 19.8817 34.2732 19.3793C35.3162 18.8662 36.549 18.6827 37.9704 18.6827C39.1502 18.6529 40.3215 18.8843 41.4017 19.3622C42.3101 19.7515 43.1093 20.3595 43.7305 21.1318C44.3124 21.8881 44.7587 22.7425 45.0459 23.6545C45.3258 24.5334 45.4699 25.4507 45.4731 26.3734C45.4731 26.8982 45.4551 27.375 45.4201 27.8049C45.3851 28.2337 45.3555 28.5441 45.3311 28.735C45.3215 28.8139 45.2844 28.8865 45.2251 28.9398C45.1657 28.9921 45.0905 29.0219 45.011 29.0219C44.8689 29.0219 44.6262 29.0401 44.2817 29.0753C43.9382 29.1115 43.5111 29.135 43.0012 29.1467C42.4913 29.1595 41.9518 29.0721 41.3836 29.0721ZM34.3792 25.8134H39.0368C39.606 25.8134 40.0268 25.807 40.2993 25.7953C40.4816 25.7771 40.6575 25.7185 40.8144 25.6235V25.4091C40.807 25.1297 40.7593 24.8523 40.6724 24.5867C40.4805 23.9766 40.0947 23.4465 39.5742 23.0774C39.0538 22.7094 38.4284 22.5227 37.7924 22.5473C37.1945 22.511 36.5977 22.6507 36.0773 22.9494C35.5568 23.2481 35.1328 23.6929 34.8593 24.2294C34.6155 24.7265 34.4534 25.2619 34.3792 25.8134Z" fill="#9999FF"/>
</g>
<defs>
<clipPath id="clip0_326_6500">
<rect width="53" height="52" fill="white"/>
</clipPath>
</defs>
</svg>
