<svg width="56" height="53" viewBox="0 0 56 53" fill="none" xmlns="http://www.w3.org/2000/svg">
<path d="M10.5619 0H45.5505C50.8553 0 55.1442 4.30342 55.1442 9.62607V43.3739C55.1442 48.6966 50.8553 53 45.5505 53H10.5619C5.25719 53 0.968262 48.6966 0.968262 43.3739V9.62607C0.968262 4.30342 5.25719 0 10.5619 0Z" fill="#330000"/>
<path d="M28.2602 33.3525H19.8629L18.1474 38.6751C18.1022 38.879 17.9216 39.0149 17.7185 38.9922H13.4747C13.2264 38.9922 13.1587 38.8563 13.2264 38.5845L20.495 17.5884C20.5627 17.3619 20.6304 17.1127 20.7207 16.8409C20.811 16.3653 20.8562 15.867 20.8562 15.3687C20.8336 15.2555 20.9239 15.1422 21.0368 15.1196H26.8832C27.0638 15.1196 27.1541 15.1875 27.1767 15.3008L35.416 38.6298C35.4837 38.879 35.416 38.9922 35.1902 38.9922H30.4724C30.3144 39.0149 30.1564 38.9016 30.1112 38.7431L28.2602 33.3525ZM21.1722 28.7546H26.9058C26.7704 28.279 26.5898 27.7127 26.3866 27.1238C26.1835 26.5123 25.9803 25.8555 25.7772 25.176C25.5514 24.4738 25.3483 23.7943 25.1225 23.0922C24.8968 22.3901 24.6936 21.7332 24.513 21.0764C24.3325 20.4422 24.1744 19.8533 24.0164 19.3097H23.9713C23.7681 20.2837 23.5198 21.2576 23.2038 22.2315C22.8652 23.3187 22.5266 24.4512 22.1654 25.5837C21.8494 26.7388 21.5108 27.8033 21.1722 28.7546ZM40.4498 19.0832C39.7049 19.1059 38.9825 18.8114 38.4408 18.2905C37.9216 17.7243 37.6507 16.9768 37.6733 16.2067C37.6507 15.4367 37.9442 14.7119 38.4859 14.1909C39.0277 13.67 39.75 13.3982 40.4949 13.3982C41.3753 13.3982 42.0525 13.67 42.5491 14.1909C43.0457 14.7345 43.3166 15.4593 43.294 16.2067C43.3166 16.9768 43.0457 17.7243 42.504 18.2905C41.9848 18.8341 41.2173 19.1285 40.4498 19.0832ZM37.9216 38.7431V21.3029C37.9216 21.0764 38.0119 20.9858 38.215 20.9858H42.6846C42.8877 20.9858 42.978 21.099 42.978 21.3029V38.7431C42.978 38.9922 42.8877 39.1055 42.6846 39.1055H38.2602C38.0345 39.1055 37.9216 38.9696 37.9216 38.7431Z" fill="#FF9A00"/>
</svg>
