<svg width="56" height="38" viewBox="0 0 56 38" fill="none" xmlns="http://www.w3.org/2000/svg">
<path d="M3.30386 28.4292L0.442383 37.7697H2.69407L3.21055 36.0293H6.00183L6.50436 37.7697H8.95292L6.09166 28.4292H3.30386ZM3.77609 34.1504L4.62614 31.2453L5.4666 34.1504H3.77609Z" fill="#00979C"/>
<path d="M14.3326 33.5084C14.2988 33.4722 14.2643 33.4379 14.2292 33.4059C14.2996 33.3793 14.3683 33.3509 14.4355 33.32C14.708 33.1948 14.9467 33.0272 15.1451 32.8229C15.3457 32.6167 15.5033 32.3681 15.6134 32.084C15.7224 31.8035 15.7778 31.481 15.7778 31.1263C15.7778 30.6373 15.6895 30.2143 15.516 29.8688C15.3405 29.5193 15.0865 29.2315 14.7614 29.0133C14.4459 28.8018 14.0622 28.649 13.6207 28.5594C13.1965 28.4732 12.7186 28.4292 12.2008 28.4292H9.27979V37.7697H11.5199V34.1201H11.5864C11.8315 34.1201 12.0357 34.174 12.2108 34.2852C12.3846 34.3953 12.5178 34.5577 12.6187 34.7827L13.9726 37.7697H16.579L14.9341 34.4378C14.7348 34.0331 14.5379 33.7294 14.3326 33.5084ZM13.3582 31.7165C13.2935 31.8399 13.2037 31.941 13.0835 32.0256C12.9569 32.1146 12.7997 32.1828 12.6157 32.2286C12.4214 32.2772 12.1997 32.3016 11.9564 32.3016H11.5199V30.3353H12.0122C12.525 30.3353 12.9061 30.4158 13.1448 30.5747C13.3528 30.7132 13.454 30.9464 13.454 31.2883C13.454 31.4535 13.4226 31.5937 13.3582 31.7165Z" fill="#00979C"/>
<path d="M23.1427 29.5385C22.7655 29.1593 22.2898 28.8755 21.7288 28.6952C21.182 28.5188 20.5384 28.4292 19.8162 28.4292H16.8535V37.7697H19.4324C20.2646 37.7697 20.9926 37.6564 21.5958 37.4329C22.2085 37.2064 22.7202 36.8776 23.1163 36.456C23.5118 36.0352 23.8065 35.5211 23.9918 34.9283C24.1737 34.3479 24.2657 33.6952 24.2657 32.9882C24.2657 32.2175 24.1735 31.5414 23.9912 30.9787C23.805 30.4023 23.5196 29.9178 23.1427 29.5385ZM21.3111 35.215C20.9222 35.6471 20.3579 35.8571 19.5861 35.8571H19.0934V30.3419H19.7045C20.1364 30.3419 20.499 30.4029 20.7818 30.5235C21.056 30.6401 21.2682 30.8049 21.4304 31.0269C21.5961 31.2545 21.7162 31.5401 21.7873 31.8752C21.862 32.2297 21.9002 32.6404 21.9002 33.0961C21.9002 34.068 21.702 34.7809 21.3111 35.215Z" fill="#00979C"/>
<path d="M29.6617 34.3713C29.6617 34.6933 29.6321 34.9678 29.573 35.1871C29.5181 35.3918 29.4372 35.559 29.3321 35.684C29.2314 35.8041 29.1082 35.8889 28.9558 35.9432C28.7899 36.0025 28.5778 36.0323 28.3249 36.0323C28.0573 36.0323 27.8367 35.9981 27.6691 35.9303C27.5079 35.8649 27.3784 35.7714 27.2729 35.6447C27.167 35.5172 27.0911 35.3571 27.0473 35.1683C26.9984 34.9599 26.9738 34.7146 26.9738 34.4386V28.4292H24.7339V34.5398C24.7339 35.0447 24.7965 35.5082 24.9194 35.9172C25.0474 36.3421 25.2584 36.7095 25.5469 37.0084C25.8353 37.3071 26.2129 37.5382 26.6692 37.6945C27.1127 37.8473 27.6486 37.9247 28.2618 37.9247C28.8102 37.9247 29.3133 37.8473 29.7568 37.6945C30.2103 37.5391 30.6012 37.3034 30.9188 36.9938C31.2367 36.6838 31.4833 36.2935 31.6518 35.834C31.8175 35.3827 31.9017 34.8542 31.9017 34.2631V28.4292H29.6617V34.3713Z" fill="#00979C"/>
<path d="M33.0469 30.3083H35.057V35.8773H33.0469V37.7697H39.3352V35.8773H37.325V30.3083H39.3352V28.4292H33.0469V30.3083Z" fill="#00979C"/>
<path d="M45.5688 33.7514L43.0646 28.4292H40.5293V37.7697H42.6155V32.3463L45.133 37.7697H47.6554V28.4292H45.5688V33.7514Z" fill="#00979C"/>
<path d="M54.9073 29.5344C54.2533 28.7027 53.2728 28.281 51.9937 28.281C51.4465 28.281 50.9246 28.378 50.4423 28.5692C49.9533 28.763 49.5212 29.0648 49.1578 29.4668C48.7976 29.8653 48.5116 30.3779 48.3081 30.9899C48.1069 31.594 48.0049 32.3185 48.0049 33.1435C48.0049 34.6674 48.3291 35.853 48.9683 36.6679C49.6224 37.5021 50.6028 37.9248 51.8819 37.9248C52.4293 37.9248 52.9517 37.8278 53.434 37.6366C53.9232 37.4425 54.3551 37.1406 54.7181 36.7392C55.0778 36.3409 55.3639 35.8286 55.5679 35.2162C55.7687 34.6122 55.8707 33.8878 55.8707 33.0624C55.8707 31.534 55.5466 30.3469 54.9073 29.5344ZM53.4331 34.3877C53.369 34.7324 53.2689 35.023 53.1357 35.2517C53.0093 35.4695 52.8527 35.6291 52.6576 35.7392C52.4631 35.8488 52.2209 35.9044 51.9379 35.9044C51.3781 35.9044 50.9878 35.696 50.7449 35.2676C50.4781 34.7969 50.3427 34.0552 50.3427 33.0624C50.3427 32.5962 50.3763 32.1774 50.443 31.8183C50.5071 31.4743 50.6078 31.1841 50.743 30.9554C50.8716 30.7368 51.0286 30.5767 51.2228 30.4662C51.4145 30.357 51.6549 30.3016 51.9379 30.3016C52.5021 30.3016 52.8935 30.5096 53.134 30.9373C53.3989 31.4083 53.5332 32.1506 53.5332 33.1435C53.5332 33.6109 53.4996 34.0295 53.4331 34.3877Z" fill="#00979C"/>
<path d="M52.6348 1.25138H53.0322V2.29634H53.3141V1.25138H53.7148V0.991943H52.6348V1.25138Z" fill="#00979C"/>
<path d="M54.6958 0.991943L54.4239 1.88102L54.1427 0.991943H53.7749V2.29634H54.04V1.46308L54.3029 2.29634H54.5449L54.7944 1.48466V2.29634H55.0582V0.991943H54.6958Z" fill="#00979C"/>
<path d="M41.7252 26.2334C38.1742 26.2334 35.138 25.0361 32.466 22.5871C30.8154 21.0747 29.4545 19.2217 28.2025 17.2951C26.9506 19.2217 25.5895 21.0747 23.9391 22.5871C21.0681 25.2183 17.7764 26.4048 13.8778 26.2136C6.44322 26.1813 0.404785 20.314 0.404785 13.1068C0.404785 5.87972 6.47636 0 13.9393 0C18.0232 0 21.4616 1.35149 24.45 4.13143C25.8854 5.46679 27.0971 7.01581 28.2025 8.63655C29.3078 7.01581 30.5198 5.46679 31.955 4.13143C34.9434 1.35149 38.3817 0 42.4656 0C49.9288 0 56.0002 5.87972 56.0002 13.1068C56.0002 20.314 49.9619 26.1813 42.5271 26.2136C42.257 26.2269 41.9895 26.2334 41.7252 26.2334ZM30.9214 12.9319C32.4026 15.3351 33.8402 17.572 35.5913 19.1766C37.5679 20.9881 39.6512 21.7333 42.3444 21.5909L42.4656 21.5877C47.3778 21.5877 51.3743 17.7833 51.3743 13.1068C51.3743 8.43052 47.3778 4.6259 42.4656 4.6259C39.5658 4.6259 37.2271 5.54506 35.1058 7.51834C33.5214 8.99236 32.2133 10.8808 30.9214 12.9319ZM13.9393 4.6259C9.02716 4.6259 5.03068 8.43052 5.03068 13.1068C5.03068 17.7833 9.02716 21.5877 13.9393 21.5877L14.0608 21.5909C16.7541 21.7333 18.8371 20.9881 20.8136 19.1766C22.5648 17.572 24.0026 15.3351 25.4836 12.9319C24.1916 10.8808 22.8835 8.99236 21.2994 7.51834C19.1778 5.54506 16.8392 4.6259 13.9393 4.6259Z" fill="#00979C"/>
<path d="M43.0773 11.4257V8.91724H40.4663V11.4257H37.958V14.0241H40.4663V16.5511H43.0773V14.0241H45.5858V11.4257H43.0773Z" fill="#00979C"/>
<path d="M10.1831 11.3943H18.4279V14.0742H10.1831V11.3943Z" fill="#00979C"/>
</svg>
