<svg width="46" height="57" viewBox="0 0 46 57" fill="none" xmlns="http://www.w3.org/2000/svg">
<path fill-rule="evenodd" clip-rule="evenodd" d="M1.23305 34.5852C0.485364 36.3591 0.067665 38.2516 0 40.1719C0.103178 41.3562 0.512129 42.4946 1.18778 43.4783C2.45913 44.9321 3.98804 46.1448 5.69961 47.0572L16.7539 54.3258C18.1142 55.395 19.6437 56.2352 21.2808 56.8126C22.3438 57.0625 23.4514 57.0625 24.5144 56.8126C26.1625 56.2423 27.7043 55.4079 29.0779 54.3429L40.2508 47.07C41.9798 46.155 43.5261 44.9372 44.8144 43.4762C45.4949 42.4871 45.9034 41.3404 46 40.1485C45.9266 38.2126 45.4979 36.3059 44.7346 34.5214L34.9629 4.14826C34.7448 3.16459 34.3506 2.22729 33.7989 1.38049C33.397 0.898246 32.8778 0.52464 32.2899 0.29467C31.3075 0.0316169 30.2856 -0.056341 29.2719 0.0349248H16.5491C15.5351 -0.0561095 14.5128 0.0340413 13.5312 0.301057C12.9418 0.530563 12.4222 0.905953 12.0222 1.39113C11.4729 2.23798 11.0823 3.17549 10.8689 4.15891L1.23305 34.5852ZM29.7742 6.48171C30.2287 7.19537 30.5506 7.98341 30.7249 8.80876L39.1148 36.0266C35.9635 34.4123 32.581 33.2829 29.0844 32.6776L23.6327 14.4529C23.5992 14.3452 23.54 14.2471 23.4602 14.1667C23.3804 14.0863 23.2822 14.0259 23.1739 13.9907C23.0656 13.9554 22.9504 13.9463 22.8378 13.9642C22.7252 13.982 22.6186 14.0262 22.5268 14.0931C22.4037 14.182 22.3136 14.3084 22.2703 14.4529L16.8811 32.6712C13.368 33.2752 9.96974 34.4091 6.80547 36.033L15.2299 8.81515C15.4023 7.98827 15.7252 7.19911 16.1827 6.48596C16.5163 6.08152 16.9478 5.76666 17.4373 5.57047C18.2619 5.35033 19.1198 5.27822 19.9702 5.35756H25.991C26.8421 5.27815 27.7008 5.35026 28.5261 5.57047C29.017 5.76723 29.4493 6.08367 29.7828 6.49022L29.7742 6.48171ZM23.2792 39.2968C25.8735 39.4452 28.4462 38.7554 30.6085 37.3317C30.8542 38.0959 30.9414 38.9012 30.8647 39.6994C30.788 40.4977 30.5491 41.2724 30.1622 41.9773C29.3669 43.3125 28.2126 44.4039 26.8274 45.1305C25.3745 46.0417 24.1242 46.8337 24.1242 48.9351C24.1224 49.6091 24.2765 50.2747 24.5747 50.881C23.5949 50.4792 22.7577 49.7995 22.1687 48.928C21.5798 48.0564 21.2656 47.032 21.2658 45.9842V45.8543C21.2658 44.4002 21.2658 42.6097 19.192 42.6097C18.9029 42.6095 18.6166 42.6652 18.3491 42.7736C17.8109 42.9937 17.383 43.4155 17.1592 43.9467C17.048 44.2106 16.9902 44.4934 16.9889 44.7792C15.5675 43.246 14.804 41.228 14.8591 39.1499C14.849 38.2506 14.9762 37.3548 15.2363 36.4929C16.0986 38.1046 19.3752 39.3032 23.2792 39.3032V39.2968Z" fill="#FF5D01"/>
</svg>
