<svg width="52" height="52" viewBox="0 0 52 52" fill="none" xmlns="http://www.w3.org/2000/svg">
<path d="M8.12041 0H43.8673C48.3556 0 51.9878 3.63217 51.9878 8.12041V43.8796C51.9878 48.3678 48.3556 52 43.8673 52H8.12041C3.63217 52 0 48.3678 0 43.8796V8.13264C0 3.63217 3.63217 0 8.12041 0Z" fill="#00005B"/>
<path fill-rule="evenodd" clip-rule="evenodd" d="M27.2349 36.603L20.2518 15.7027C20.2274 15.5926 20.1662 15.4948 20.0684 15.4337C19.9706 15.3725 19.8605 15.3358 19.7504 15.348H15.2133C14.9687 15.3358 14.7608 15.5193 14.7486 15.7639C14.7486 15.7761 14.7486 15.8005 14.7486 15.8128C14.7486 16.3876 14.6752 16.9501 14.504 17.5004L8.25467 36.5785V36.5908C8.19352 36.7497 8.21798 36.921 8.30359 37.0677C8.41365 37.2022 8.57264 37.2756 8.74385 37.2634H11.9847C12.1314 37.2634 12.266 37.2267 12.3883 37.1411C12.4983 37.0555 12.5595 36.9332 12.5839 36.7987L14.2961 31.3198H20.7899L22.6121 36.9087L22.6244 36.921C22.6733 37.031 22.7589 37.1166 22.8567 37.1778C22.9546 37.2389 23.0769 37.2634 23.1869 37.2634H26.8191C26.9781 37.2756 27.1371 37.19 27.2227 37.0433C27.2838 36.9087 27.2838 36.7497 27.2349 36.603ZM19.8727 27.6754H15.2377C16.3629 23.9943 17.1333 21.4017 17.5124 19.9219C17.6592 20.4355 17.8304 21.0226 18.0261 21.6829C18.3685 22.8325 18.7476 24.0555 19.1634 25.3763C19.4936 26.4158 19.726 27.174 19.8727 27.6754Z" fill="#9999FF"/>
<path d="M39.6848 36.8843C39.6237 36.6887 39.5748 36.493 39.5381 36.2973C38.364 37.1656 36.9332 37.6059 35.4779 37.557C33.6923 37.557 32.2982 37.0555 31.3687 35.9916C30.4393 34.9398 29.999 33.3867 29.999 31.3933V21.4873C29.9746 21.2061 30.1825 20.9737 30.4637 20.9492C30.4882 20.9492 30.5127 20.9492 30.5371 20.9492H33.9981C34.1448 20.9492 34.2794 20.9982 34.3772 21.1082C34.4628 21.2183 34.5117 21.3528 34.4995 21.4873V31.1364C34.4995 32.1393 34.7074 32.8486 35.0743 33.2888C35.5023 33.7658 36.1138 34.0104 36.7497 33.9615C37.6669 33.9859 38.5475 33.619 39.1589 32.9342V21.4751C39.1345 21.1938 39.3424 20.9615 39.6237 20.937C39.6481 20.937 39.6726 20.937 39.697 20.937H43.1335C43.2681 20.937 43.4026 20.9737 43.5127 21.0593C43.6227 21.1571 43.6716 21.2917 43.6716 21.4384V33.5212C43.6716 34.524 43.7206 35.588 43.8306 36.7131C43.8673 36.8721 43.8306 37.0311 43.7206 37.1412L43.6839 37.1778L43.6472 37.2023C43.5371 37.2512 43.4148 37.2634 43.2925 37.2634H40.2841C40.1618 37.2634 40.0395 37.239 39.9294 37.1778C39.7949 37.1045 39.7215 37.0066 39.6848 36.8843Z" fill="#9999FF"/>
</svg>
