<svg width="24" height="15" viewBox="0 0 24 15" fill="none" xmlns="http://www.w3.org/2000/svg">
<path d="M21.6664 0.760591H15.5873V2.43479H21.6903L21.6664 0.760591ZM20.3834 12.2782C19.9222 12.5808 19.3776 12.7343 18.8247 12.7175C18.4587 12.7553 18.0887 12.7178 17.738 12.6075C17.3872 12.4972 17.0632 12.3163 16.7863 12.0763C16.2744 11.5015 16.0078 10.7522 16.0429 9.98651H23.9805C24.0377 9.18925 23.9689 8.38802 23.7766 7.61176C23.5906 6.87324 23.2652 6.17625 22.8174 5.5576C22.3667 4.9575 21.7846 4.4663 21.1148 4.12087C20.3696 3.75699 19.5476 3.57384 18.7168 3.58655C17.9354 3.58088 17.1608 3.73027 16.4386 4.02588C15.7774 4.30194 15.1782 4.70557 14.6761 5.21326C14.1753 5.73109 13.7876 6.34544 13.537 7.01807C13.268 7.74421 13.134 8.51255 13.1413 9.28596C13.129 10.0704 13.2589 10.8506 13.525 11.5895C13.751 12.2586 14.1097 12.8763 14.5801 13.4062C15.0668 13.9264 15.665 14.3321 16.3307 14.5935C17.073 14.8736 17.8626 15.0106 18.6568 14.9972C19.7712 15.0317 20.8715 14.7428 21.8222 14.1661C22.7825 13.4903 23.4739 12.5032 23.7766 11.3757H21.1268C20.9849 11.7487 20.7239 12.0656 20.3834 12.2782ZM16.2708 7.38616C16.3641 7.09012 16.519 6.81673 16.7255 6.58359C16.932 6.35045 17.1855 6.16274 17.4698 6.03255C17.8462 5.86475 18.2562 5.78356 18.6688 5.79507C18.9669 5.76986 19.267 5.8088 19.5485 5.90923C19.8299 6.00966 20.0861 6.16919 20.2995 6.37689C20.7069 6.87076 20.9683 7.46665 21.0549 8.09858H16.0789C16.0983 7.85729 16.1425 7.61858 16.2108 7.38616H16.2708ZM9.92792 6.81622C10.5382 6.56457 11.0684 6.15432 11.4627 5.62884C11.825 5.07078 12.0051 4.41573 11.9783 3.75278C12.0018 3.14822 11.8827 2.54654 11.6305 1.99546C11.4187 1.51804 11.0786 1.10734 10.6473 0.808087C10.1901 0.496962 9.67086 0.286428 9.12457 0.19065C8.47808 0.0563738 7.81868 -0.00733315 7.15817 0.000670104H0V14.9379H7.31405C7.98153 14.9384 8.64635 14.8546 9.29244 14.6885C9.90483 14.5316 10.485 14.2705 11.007 13.9167C11.5127 13.5697 11.9245 13.1048 12.2061 12.5631C12.5177 11.9573 12.6703 11.2835 12.6497 10.604C12.6724 9.76179 12.4339 8.93297 11.9663 8.2292C11.4634 7.52143 10.7175 7.01916 9.86797 6.81622H9.92792ZM3.3213 2.55353H6.42677C6.71207 2.55318 6.99688 2.57702 7.27808 2.62477C7.537 2.66277 7.78567 2.75158 8.00948 2.886C8.22572 3.00713 8.40094 3.1889 8.51307 3.40844C8.65194 3.67171 8.71812 3.96663 8.70492 4.26336C8.72726 4.51892 8.68779 4.77609 8.58979 5.01354C8.49179 5.251 8.33808 5.46192 8.14137 5.62884C7.71227 5.92097 7.1988 6.06685 6.67857 6.04442H3.3213V2.55353ZM9.12457 11.3876C9.00139 11.6296 8.8151 11.8346 8.58501 11.9813C8.34557 12.1288 8.08174 12.2333 7.80565 12.29C7.49877 12.3581 7.18484 12.3899 6.87041 12.385H3.27334V8.28856H6.87041C7.48768 8.2618 8.09727 8.43249 8.60899 8.77539C8.84018 8.98084 9.01927 9.23732 9.13175 9.52405C9.24424 9.81078 9.28696 10.1197 9.25647 10.4258C9.28888 10.7522 9.24371 11.0816 9.12457 11.3876Z" fill="#272727"/>
</svg>
