<svg width="58" height="48" viewBox="0 0 58 48" fill="none" xmlns="http://www.w3.org/2000/svg">
<path d="M57.83 26.7294C57.4897 24.2938 56.6603 21.9839 55.3641 19.8649C54.2338 18.0155 52.7833 16.3706 51.052 14.9726L51.0567 14.9683L32.8742 0.763358C32.8611 0.751619 32.8474 0.74056 32.8332 0.730224C32.2287 0.259186 31.4102 0 30.5294 0C29.6475 0 28.797 0.259764 28.1359 0.731725C27.425 1.23682 27.0187 1.90701 26.9903 2.62038C26.9643 3.28595 27.2764 3.92635 27.8715 4.42556C29.0417 5.36475 30.2093 6.32437 31.3785 7.28515C32.5132 8.21799 33.6824 9.17865 34.8459 10.1139L12.5753 10.0986C10.0284 10.0986 8.29416 11.3151 7.93742 13.3517C7.78068 14.2438 8.05728 15.2247 8.67564 15.9759C9.33169 16.7723 10.2842 17.2116 11.3576 17.2116L13.0554 17.2127C15.4008 17.2127 17.7565 17.2068 20.1091 17.2011L22.3526 17.1958L2.14005 32.4061L2.05981 32.4658C0.930798 33.346 0.19167 34.58 0.0321986 35.8513C-0.0886816 36.8144 0.132194 37.6944 0.671218 38.3973C1.31364 39.2352 2.31666 39.6961 3.49573 39.6961C4.65402 39.6961 5.83592 39.2497 6.82521 38.4368L17.7403 29.3508C17.6936 29.7945 17.637 30.4454 17.6435 30.9178C17.6557 31.6658 17.8918 33.1667 18.2656 34.3852C19.0379 36.8893 20.3387 39.1804 22.1318 41.1925C23.9976 43.2858 26.2699 44.9456 28.8852 46.1247C31.6501 47.3686 34.6224 48 37.7198 48H37.7485C40.8558 47.9924 43.8375 47.3509 46.6114 46.0929C49.231 44.8998 51.5023 43.2333 53.361 41.1403C55.1519 39.1179 56.4509 36.823 57.2217 34.321C57.603 33.0824 57.8473 31.8044 57.9499 30.5108C58.0452 29.2604 58.0042 27.9882 57.83 26.7294ZM37.9463 38.7315C31.1201 38.7315 25.5846 33.6948 25.5846 27.4812C25.5846 21.2684 31.1202 16.2316 37.9463 16.2316C44.7725 16.2316 50.3075 21.2684 50.3075 27.4812C50.3077 33.6948 44.7725 38.7315 37.9463 38.7315Z" fill="#E87C0C"/>
<path d="M43.1686 31.3437C44.4475 30.069 45.1757 28.3471 45.075 26.4926C44.9759 24.6916 44.1118 23.1026 42.81 21.9768C41.5303 20.87 39.8127 20.1943 37.9357 20.1943C36.0589 20.1943 34.3409 20.8697 33.0613 21.9768C31.7602 23.1026 30.8963 24.6927 30.7982 26.4941C30.6981 28.3473 31.4249 30.069 32.7031 31.3437C34.0044 32.6423 35.861 33.458 37.9358 33.458C40.0116 33.458 41.8678 32.6423 43.1686 31.3437Z" fill="#265787"/>
</svg>
