<svg width="43" height="59" viewBox="0 0 43 59" fill="none" xmlns="http://www.w3.org/2000/svg">
<path d="M21.7216 58.7372L4.72749 54.0195L0.94043 11.5432H42.5537L38.7626 54.0129L21.7216 58.7372Z" fill="#264DE4"/>
<path d="M35.5171 51.3086L38.7568 15.0164H21.7471V55.1262L35.5171 51.3086Z" fill="#2965F1"/>
<path d="M9.62207 30.7703L10.089 35.9798H21.7469V30.7703H9.62207Z" fill="#EBEBEB"/>
<path d="M8.68408 20.2258L9.15765 25.4354H21.7472V20.2258H8.68408Z" fill="#EBEBEB"/>
<path d="M21.747 44.2999L21.7241 44.306L15.9222 42.7393L15.5513 38.5845H10.3218L11.0516 46.7642L21.723 49.7267L21.747 49.72V44.2999Z" fill="#EBEBEB"/>
<path d="M10.7339 0H17.0436V2.63859H13.3725V5.27717H17.0436V7.91576H10.7339V0Z" fill="black"/>
<path d="M18.3057 0H24.6153V2.29442H20.9443V2.75331H24.6153V8.03048H18.3057V5.62134H21.9767V5.16245H18.3057V0Z" fill="black"/>
<path d="M25.877 0H32.1866V2.29442H28.5155V2.75331H32.1866V8.03048H25.877V5.62134H29.548V5.16245H25.877V0Z" fill="black"/>
<path d="M33.8385 30.7701L34.779 20.2258H21.729V25.4354H29.0698L28.5958 30.7701H21.729V35.9796H28.144L27.5393 42.736L21.729 44.3042V49.7241L32.4089 46.7642L32.4872 45.884L33.7114 32.169L33.8385 30.7701Z" fill="white"/>
</svg>
