<svg width="49" height="49" viewBox="0 0 49 49" fill="none" xmlns="http://www.w3.org/2000/svg">
<mask id="mask0_2001_3207" style="mask-type:luminance" maskUnits="userSpaceOnUse" x="0" y="0" width="49" height="49">
<path d="M45.8093 0H3C1.34315 0 0 1.34314 0 3V46C0 47.6569 1.34315 49 3 49H45.8093C47.4662 49 48.8093 47.6569 48.8093 46V3C48.8093 1.34315 47.4662 0 45.8093 0Z" fill="white"/>
</mask>
<g mask="url(#mask0_2001_3207)">
<path d="M48.8093 0H0V49H48.8093V0Z" fill="#6644FF"/>
<path d="M0 40.81V0H48.8093V49H47.0685C45.037 47.9075 42.034 46.6364 37.7788 45.5728C33.6773 44.5476 27.6026 44.0565 21.1454 43.5345C13.8141 42.9418 5.98973 42.3093 0 40.81Z" fill="#754DFC"/>
<path d="M0 30.0637V0H48.8093V41.1908C47.0686 39.8898 43.6137 37.8272 37.585 36.1013C33.5212 34.9379 27.4667 34.2411 21.0309 33.5006C13.7277 32.6602 5.93348 31.7632 0 30.0637Z" fill="#8555F8"/>
<path d="M0 18.3549V0H48.8093V31.5365C47.2956 30.2273 43.8625 27.8131 37.3324 25.6944C33.3118 24.3898 27.2852 23.4822 20.8792 22.5175C13.6176 21.4239 5.86827 20.2569 0 18.3549Z" fill="#945EF5"/>
<path d="M48.8093 0V22.4501C47.4722 21.1877 44.0758 18.544 37.1795 16.1727C33.1822 14.7981 27.1725 13.7855 20.7842 12.7091C13.5507 11.4903 5.83195 10.1897 0 8.18939V0H48.8093Z" fill="#A366F1"/>
<path d="M8.14893 0H48.8094V13.2545C48.0691 12.4048 44.862 9.16824 36.7685 6.22624C32.7957 4.78217 26.8046 3.66483 20.4362 2.47712C16.3513 1.71529 12.1112 0.924517 8.14893 0Z" fill="#B36EEE"/>
<g filter="url(#filter0_dd_2001_3207)">
<path fill-rule="evenodd" clip-rule="evenodd" d="M35.831 27.5701C35.654 27.5259 35.5066 27.4816 35.3739 27.4226C35.2757 27.379 35.1937 27.3274 35.1219 27.2677C35.0742 27.228 35.0537 27.1655 35.0596 27.1037C35.1308 26.3629 35.0525 25.7094 35.1231 24.9748C35.4181 21.9961 37.2911 22.9398 38.9724 22.4532C39.9378 22.1813 40.9032 21.6461 41.256 20.5934C41.3138 20.4211 41.2629 20.2337 41.1429 20.0972C40.0416 18.8452 38.8223 17.7389 37.4975 16.7908C33.0562 13.6291 27.2842 12.3162 21.9834 13.0842C21.7826 13.1133 21.6774 13.3357 21.7871 13.5063C22.4584 14.5509 23.3441 15.4058 24.3598 16.0349C24.5444 16.1493 24.4702 16.3963 24.2583 16.3488C23.7602 16.2371 23.1202 16.0194 22.5183 15.5946C22.4603 15.5537 22.3855 15.5434 22.3196 15.5697C22.0505 15.677 21.6619 15.8317 21.3408 15.9703C21.1559 16.0501 21.1183 16.2884 21.2704 16.4203C23.9329 18.7279 27.806 19.0786 30.8389 17.232C31.0236 17.1195 31.3194 17.3507 31.2599 17.5586C31.1646 17.8918 31.0533 18.3496 30.9347 18.9732C30.1826 22.7776 28.0146 22.4827 25.3305 21.5242C19.9671 19.5806 16.9244 21.2403 14.2192 17.9548C14.0313 17.7265 13.7008 17.6474 13.4772 17.8409C12.9188 18.3243 12.5883 19.03 12.5883 19.7842C12.5883 20.6776 13.0495 21.4428 13.7331 21.9008C13.8186 21.9582 13.9323 21.934 13.996 21.8532C14.1626 21.6424 14.2989 21.5026 14.4686 21.4143C14.6543 21.3176 14.7449 21.5832 14.5881 21.722C14.0135 22.2306 13.8487 22.8366 13.4732 24.0311C12.8832 25.9038 13.134 27.8208 10.3761 28.3221C8.91605 28.3959 8.94556 29.3839 8.41461 30.8584C7.79844 32.6383 6.99161 33.4266 5.4983 34.9819C5.2941 35.1946 5.27656 35.5348 5.50102 35.726C6.0975 36.2343 6.71267 36.2623 7.33804 36.0048C8.88655 35.356 10.0811 33.3505 11.202 32.0529C12.4556 30.6078 15.4641 31.2271 17.7353 29.8115C18.9602 29.0605 19.6961 28.1012 19.4608 26.6643C19.4229 26.4328 19.6878 26.2937 19.7838 26.5077C19.9662 26.9139 20.0857 27.3472 20.1354 27.7949C20.1484 27.9123 20.2534 27.9991 20.3713 27.9925C22.8285 27.8543 26.0061 30.5643 28.9757 31.2975C29.1563 31.3421 29.2848 31.1335 29.1826 30.978C28.9948 30.6919 28.835 30.395 28.7078 30.0917C28.5764 29.7765 28.4769 29.4707 28.4066 29.1756C28.3515 28.9448 28.6888 28.8827 28.804 29.0903C29.5656 30.4629 31.0876 31.7518 33.2059 31.9054C33.9286 31.9644 34.7249 31.8759 35.5508 31.6252C36.5389 31.3303 37.4533 30.9469 38.5447 31.1534C39.3558 31.3008 40.1079 31.7137 40.5799 32.4068C41.2421 33.3724 42.64 33.6283 43.3851 32.6191C43.4865 32.4817 43.495 32.2981 43.428 32.1411C41.7874 28.2962 37.6216 28.0321 35.831 27.5701Z" fill="white"/>
</g>
</g>
<defs>
<filter id="filter0_dd_2001_3207" x="1.42038" y="9.73533" width="45.9693" height="31.1312" filterUnits="userSpaceOnUse" color-interpolation-filters="sRGB">
<feFlood flood-opacity="0" result="BackgroundImageFix"/>
<feColorMatrix in="SourceAlpha" type="matrix" values="0 0 0 0 0 0 0 0 0 0 0 0 0 0 0 0 0 0 127 0" result="hardAlpha"/>
<feOffset dy="0.783697"/>
<feGaussianBlur stdDeviation="1.95924"/>
<feColorMatrix type="matrix" values="0 0 0 0 0.0901961 0 0 0 0 0.160784 0 0 0 0 0.25098 0 0 0 0.1 0"/>
<feBlend mode="normal" in2="BackgroundImageFix" result="effect1_dropShadow_2001_3207"/>
<feColorMatrix in="SourceAlpha" type="matrix" values="0 0 0 0 0 0 0 0 0 0 0 0 0 0 0 0 0 0 127 0" result="hardAlpha"/>
<feOffset dy="1.04493"/>
<feColorMatrix type="matrix" values="0 0 0 0 0.0901961 0 0 0 0 0.160784 0 0 0 0 0.25098 0 0 0 0.1 0"/>
<feBlend mode="normal" in2="effect1_dropShadow_2001_3207" result="effect2_dropShadow_2001_3207"/>
<feBlend mode="normal" in="SourceGraphic" in2="effect2_dropShadow_2001_3207" result="shape"/>
</filter>
</defs>
</svg>
