<svg width="36" height="53" viewBox="0 0 36 53" fill="none" xmlns="http://www.w3.org/2000/svg">
<path d="M8.83334 52.9999C13.7093 52.9999 17.6667 49.0426 17.6667 44.1666V35.3333H8.83334C3.95734 35.3333 0 39.2906 0 44.1666C0 49.0426 3.95734 52.9999 8.83334 52.9999Z" fill="#0ACF83"/>
<path d="M0 26.5001C0 21.6241 3.95734 17.6667 8.83334 17.6667H17.6667V35.3334H8.83334C3.95734 35.3334 0 31.3761 0 26.5001Z" fill="#A259FF"/>
<path d="M0 8.83334C0 3.95734 3.95734 0 8.83334 0H17.6667V17.6667H8.83334C3.95734 17.6667 0 13.7093 0 8.83334Z" fill="#F24E1E"/>
<path d="M17.6665 0H26.7675C31.7913 0 35.8685 3.95734 35.8685 8.83334C35.8685 13.7093 31.7913 17.6667 26.7675 17.6667H17.6665V0Z" fill="#FF7262"/>
<path d="M35.8685 26.5001C35.8685 31.3761 31.7913 35.3334 26.7675 35.3334C21.7438 35.3334 17.6665 31.3761 17.6665 26.5001C17.6665 21.6241 21.7438 17.6667 26.7675 17.6667C31.7913 17.6667 35.8685 21.6241 35.8685 26.5001Z" fill="#1ABCFE"/>
</svg>
