<svg width="24" height="35" viewBox="0 0 24 35" fill="none" xmlns="http://www.w3.org/2000/svg">
<path d="M5.83333 34.9999C9.05333 34.9999 11.6667 32.3866 11.6667 29.1666V23.3333H5.83333C2.61333 23.3333 0 25.9466 0 29.1666C0 32.3866 2.61333 34.9999 5.83333 34.9999Z" fill="#0ACF83"/>
<path d="M0 17.5001C0 14.2801 2.61333 11.6667 5.83333 11.6667H11.6667V23.3334H5.83333C2.61333 23.3334 0 20.7201 0 17.5001Z" fill="#A259FF"/>
<path d="M0 5.83333C0 2.61333 2.61333 0 5.83333 0H11.6667V11.6667H5.83333C2.61333 11.6667 0 9.05333 0 5.83333Z" fill="#F24E1E"/>
<path d="M11.6665 0H17.6766C20.9942 0 23.6867 2.61333 23.6867 5.83333C23.6867 9.05333 20.9942 11.6667 17.6766 11.6667H11.6665V0Z" fill="#FF7262"/>
<path d="M23.6867 17.5001C23.6867 20.7201 20.9942 23.3334 17.6766 23.3334C14.359 23.3334 11.6665 20.7201 11.6665 17.5001C11.6665 14.2801 14.359 11.6667 17.6766 11.6667C20.9942 11.6667 23.6867 14.2801 23.6867 17.5001Z" fill="#1ABCFE"/>
</svg>
