<svg width="54" height="46" viewBox="0 0 54 46" fill="none" xmlns="http://www.w3.org/2000/svg">
<path d="M50.5613 4.37431C58.3914 23.4874 50.5613 33.7634 43.9372 39.4292C45.556 45.095 39.1035 46.2637 36.6527 43.4762C29.4377 45.9643 14.7796 45.8833 4.27689 35.3822C-1.38888 29.7165 3.03042 17.1126 18.0366 8.6722C30.9869 1.38765 43.9372 -2.65933 50.5613 4.37431Z" fill="#FFDB1E"/>
<path d="M18.0365 8.6726C29.122 1.3929 42.3589 -1.65528 47.7705 3.0554C56.0781 10.2914 30.1775 26.6606 20.4647 30.5263C9.9426 34.7141 15.6084 44.286 9.9426 44.286C5.08623 44.286 5.89562 37.8108 1.55241 31.7403C-1.01337 28.1547 5.34524 17.0061 18.0365 8.6726Z" fill="white"/>
<path d="M17.5923 7.99584C15.4299 9.41573 13.4027 10.9589 11.5503 12.5615L10.6388 13.3675C2.71941 20.5257 -1.66309 28.6374 0.894178 32.2112C1.13348 32.5456 1.36147 32.8884 1.57946 33.2404C2.1497 34.1611 2.64026 35.1217 3.10987 36.2066L3.4521 37.0289L4.66539 40.2374C5.99133 43.6733 7.27265 45.0952 9.94259 45.0952C12.3789 45.0952 13.2261 43.9396 13.8263 40.9617L14.1048 39.5051L14.2758 38.6728L14.3797 38.2261L14.4834 37.8357L14.5939 37.4757L14.7182 37.1201L14.863 36.7432C15.7747 34.448 17.4168 32.7209 20.2986 31.4714L20.764 31.2781C26.3638 29.0494 35.2633 23.7273 41.3899 18.6792L42.2386 17.9676C42.6533 17.6135 43.0535 17.262 43.4388 16.9134L44.1895 16.2199C50.0341 10.703 52.0018 5.93556 48.5262 2.64822L48.3019 2.4447C42.7069 -2.42558 29.3648 0.264975 17.5923 7.99584ZM47.239 3.66569C49.9696 6.04402 48.3638 10.0359 43.1307 14.9932L42.3947 15.6751C42.2683 15.7897 42.1401 15.9048 42.01 16.0204L41.2072 16.7196C40.9323 16.9545 40.65 17.1913 40.3605 17.4298C34.5756 22.1964 26.2284 27.2348 20.7608 29.5304L20.1654 29.774C16.5768 31.2023 14.4816 33.3182 13.3585 36.1456L13.1232 36.7697L12.9932 37.1627L12.8759 37.5694C12.857 37.6399 12.8383 37.7121 12.8196 37.7866L12.7073 38.2659L12.5249 39.1491L12.2414 40.6348L12.1178 41.2161C11.703 43.0166 11.2335 43.4764 9.94259 43.4764C8.21547 43.4764 7.3619 42.6125 6.3191 40.0191L5.09822 36.7938L4.88877 36.2625C4.30072 34.8189 3.69258 33.5778 2.95568 32.388C2.71902 32.0059 2.47117 31.6333 2.21067 31.2692C0.81053 29.3125 2.58928 24.9018 6.48032 20.0867L7.12965 19.3027C10.0222 15.8927 13.9293 12.3377 18.4808 9.34897C29.7119 1.97365 42.3642 -0.577778 47.239 3.66569Z" fill="#FFDB1E"/>
<path d="M41.5655 4.25634C49.0848 6.27982 40.9746 13.4753 34.5998 18.0743C28.5585 22.4321 23.9061 24.8894 21.7742 25.8931C21.1817 26.1731 19.1566 22.2476 19.1566 24.2743C19.1566 24.9493 18.0234 27.8971 17.6446 28.0396C15.435 28.8684 10.8085 30.1278 8.19899 30.1278C2.5478 30.1278 5.08606 22.4321 13.078 15.3612C14.522 14.084 15.4706 14.3171 16.7737 14.3171C15.9044 13.0658 15.9093 12.8327 17.4261 11.8145C24.1716 7.28024 32.6055 4.2531 36.1862 3.68652C36.7787 3.70919 37.5137 4.2531 37.5137 4.70474C38.1774 4.47811 40.905 4.07665 41.5655 4.25472V4.25634Z" fill="#FFE600"/>
<path d="M18.5173 16.7502C20.1118 15.541 21.1786 15.1152 21.9152 12.6611C22.8314 12.857 23.2766 12.5316 24.0034 11.5264C24.5279 12.2807 26.6857 12.5106 27.9743 12.6611C26.8169 13.3912 26.2632 14.0403 25.6238 16.0703C23.2539 15.0812 20.4971 15.5814 18.5173 16.7502Z" fill="white"/>
</svg>
