<svg width="18" height="21" viewBox="0 0 18 21" fill="none" xmlns="http://www.w3.org/2000/svg">
<path d="M7.49986 18.6142C7.49984 18.4743 7.47143 18.336 7.41665 18.2093C7.36187 18.0826 7.28205 17.9705 7.18285 17.8809C7.08366 17.7914 6.96751 17.7266 6.84265 17.6911C6.71778 17.6557 6.58726 17.6504 6.46031 17.6758C5.30818 17.905 3.85351 17.9395 3.46673 16.7616C3.12948 15.8493 2.57084 15.0529 1.85005 14.457C1.79862 14.4266 1.74961 14.3917 1.70351 14.3526C1.64043 14.1722 1.52838 14.0167 1.38215 13.9067C1.23592 13.7967 1.06238 13.7374 0.884418 13.7366H0.880123C0.647421 13.7365 0.424162 13.8364 0.259215 14.0143C0.0942676 14.1923 0.00106684 14.4339 1.234e-05 14.6862C-0.00342889 15.4644 0.713782 15.9629 1.00475 16.1316C1.34785 16.5054 1.6236 16.9454 1.81782 17.4289C2.13841 18.4055 3.07008 19.8873 5.74823 19.6962C5.74911 19.7298 5.74995 19.7615 5.75038 19.7904L5.75425 20.0457C5.75425 20.2988 5.84697 20.5415 6.01202 20.7205C6.17708 20.8995 6.40094 21 6.63436 21C6.86778 21 7.09164 20.8995 7.25669 20.7205C7.42174 20.5415 7.51447 20.2988 7.51447 20.0457L7.51017 19.7419C7.50588 19.5611 7.49986 19.2992 7.49986 18.6142ZM16.888 4.17966C16.9159 4.06037 16.9434 3.92804 16.9675 3.77893C17.1098 2.71546 16.9858 1.63006 16.6082 0.636461C16.5606 0.506928 16.4874 0.390261 16.3938 0.294637C16.3002 0.199014 16.1884 0.126748 16.0663 0.0829066C15.753 -0.0317225 14.5962 -0.257249 12.3839 1.27577C10.5449 0.806538 8.63062 0.806538 6.79166 1.27577C4.58836 -0.234795 3.43751 -0.029814 3.12724 0.0782878C3.00214 0.120353 2.88731 0.192236 2.79117 0.288668C2.69502 0.3851 2.61999 0.503637 2.57158 0.635592C2.18636 1.64826 2.06362 2.75581 2.21661 3.8386C2.23811 3.96069 2.26131 4.07345 2.28538 4.17689C1.55627 5.22989 1.16791 6.51429 1.18051 7.83095C1.17814 8.12472 1.19062 8.4184 1.2179 8.71068C1.51186 13.1028 4.15219 14.4215 5.99189 14.8744C5.95365 14.9937 5.91884 15.1214 5.8879 15.2565C5.83275 15.5021 5.86966 15.7613 5.99052 15.9774C6.11138 16.1934 6.30634 16.3487 6.53264 16.4092C6.75894 16.4696 6.99812 16.4303 7.19772 16.2998C7.39732 16.1693 7.54106 15.9584 7.59741 15.7132C7.65341 15.3952 7.79695 15.1031 8.00911 14.8754C8.13739 14.7536 8.23027 14.594 8.27644 14.4161C8.32262 14.2381 8.32011 14.0494 8.2692 13.873C8.2183 13.6965 8.12121 13.54 7.98973 13.4223C7.85826 13.3045 7.69807 13.2308 7.52865 13.21C4.48866 12.8335 3.16892 11.4906 2.97039 8.5355C2.94839 8.30144 2.93849 8.06622 2.94073 7.83096C2.92661 6.89257 3.21254 5.97781 3.74993 5.24208C3.80393 5.16538 3.86145 5.09167 3.92226 5.02121C4.03001 4.89048 4.10246 4.73008 4.13165 4.55763C4.16084 4.38517 4.14564 4.20733 4.08772 4.04363C4.02834 3.87141 3.98263 3.69401 3.95107 3.51336C3.87936 2.99969 3.90288 2.47566 4.02024 1.97196C4.78518 2.20621 5.50509 2.58751 6.14571 3.09771C6.25165 3.17422 6.37152 3.22514 6.4972 3.24701C6.62288 3.26888 6.75143 3.26119 6.87412 3.22446C8.65292 2.70103 10.5283 2.70136 12.3069 3.22542C12.4303 3.2621 12.5595 3.26935 12.6857 3.24667C12.8119 3.22398 12.9321 3.1719 13.0379 3.09402C13.6755 2.5817 14.3924 2.19699 15.1548 1.95801C15.2717 2.44961 15.2978 2.9614 15.2317 3.46399C15.1999 3.66204 15.1501 3.8562 15.083 4.04365C15.0251 4.20735 15.0099 4.38519 15.0391 4.55765C15.0683 4.7301 15.1407 4.8905 15.2485 5.02123C15.3164 5.10417 15.3843 5.19364 15.4453 5.27751C15.9789 6.00078 16.26 6.90502 16.2391 7.83095C16.2407 8.0787 16.2296 8.32634 16.206 8.57276C16.0122 11.4887 14.6873 12.8326 11.6331 13.21C11.4637 13.2309 11.3035 13.3048 11.172 13.4226C11.0405 13.5404 10.9435 13.6971 10.8926 13.8736C10.8418 14.0502 10.8393 14.2389 10.8856 14.4169C10.9318 14.5949 11.0247 14.7545 11.1531 14.8763C11.3719 15.1101 11.5158 15.4139 11.5635 15.743C11.623 15.9984 11.6503 16.2614 11.6447 16.5249V18.7522C11.6361 19.37 11.6361 19.8332 11.6361 20.0457C11.6361 20.2987 11.7288 20.5415 11.8939 20.7204C12.0589 20.8994 12.2828 20.9999 12.5162 20.9999C12.7496 20.9999 12.9735 20.8994 13.1385 20.7204C13.3036 20.5415 13.3963 20.2987 13.3963 20.0457C13.3963 19.8388 13.3963 19.3849 13.4049 18.7671V16.5249C13.412 16.1029 13.3662 15.6819 13.2687 15.2733C13.2408 15.1392 13.2067 15.0067 13.1664 14.8763C14.5053 14.6351 15.7218 13.8866 16.5994 12.7641C17.477 11.6415 17.9587 10.2177 17.9589 8.74611C17.9879 8.4421 18.0014 8.13658 17.9993 7.83095C18.0188 6.51286 17.6272 5.22623 16.888 4.17966Z" fill="#272727"/>
</svg>
