<svg width="57" height="65" viewBox="0 0 57 65" fill="none" xmlns="http://www.w3.org/2000/svg">
<path d="M8.80294 28.3681C6.9045 29.2592 1.87983 33.2708 0.912062 34.4593C-0.0929825 35.6479 -0.390658 33.7908 0.651481 30.708C1.47014 28.2195 3.55478 24.8394 7.05343 21.9424C9.10043 20.2709 13.6043 17.8568 16.3585 16.4452C16.9169 16.148 24.1377 13.1023 30.577 11.5795C31.1354 11.4309 29.907 12.508 29.7208 13.1023C28.7531 15.9251 9.43539 28.0336 9.43539 28.0336L8.80294 28.3681ZM36.0111 62.4277C36.3461 64.4334 36.0484 64.582 33.9641 64.8421C31.8797 65.1021 30.3537 64.322 29.7954 63.8021C29.237 63.2819 29.1255 62.1307 29.6837 61.0907C30.0189 60.422 30.3538 60.1992 30.54 59.3821C30.7261 58.6022 30.875 58.4163 31.0237 58.1193C31.1725 57.8591 31.21 57.599 31.247 55.7792C31.2843 53.9593 31.247 50.542 31.4333 49.0936C31.6195 47.608 38.0587 49.7621 38.0587 49.7621C38.0587 49.7621 36.5325 53.5507 36.1232 54.4792C35.7136 55.4079 35.7509 57.1906 35.7509 57.562C35.7509 57.9335 35.6022 58.6762 35.4903 58.7134C35.3787 58.7504 35.8626 59.7162 35.6391 60.2734C35.4902 60.7935 35.974 62.1307 36.0111 62.4277ZM38.4678 5.63666C38.2444 4.22525 38.4678 1.43928 38.7655 0.993799C39.6962 -0.269169 44.6092 -0.417603 45.6515 1.06802C46.0981 1.73652 46.0609 3.29654 45.9865 4.29947C45.9121 5.30222 45.6515 7.45653 45.6143 8.16241C45.5772 8.68248 40.1801 9.49941 38.989 8.08801C38.6539 7.71674 38.4678 5.63666 38.4678 5.63666ZM49.4108 58.8248C51.6812 60.4592 53.4306 60.7563 54.5844 61.3506C55.7382 61.945 55.4405 63.0964 53.5049 63.4307C51.9416 63.7277 49.4851 63.1334 47.8475 63.1334C46.2098 63.1334 42.562 63.3192 41.5943 62.6507C40.4777 61.8708 40.9614 60.422 40.9614 60.422C41.2593 59.6051 42.0036 57.7849 41.7803 56.2992C41.557 54.8136 41.2591 53.9965 40.7009 52.6221C40.1426 51.2479 39.7333 47.868 40.2544 47.6822C40.7756 47.4964 40.6265 47.6822 41.2966 47.8307C41.9665 47.9791 42.711 48.2021 44.1626 48.2021C45.6143 48.2021 47.2146 47.9791 47.7731 47.8678C48.3313 47.7564 48.7779 47.6448 48.5917 48.7964C48.4057 49.9478 47.8475 52.1021 47.8102 53.7735C47.7731 55.4449 47.7731 57.3764 47.8847 57.7106C47.9962 58.0449 48.8152 58.4163 49.4108 58.8248Z" fill="#010101"/>
<path d="M41.4459 9.35091C37.3517 12.8796 29.4236 13.8451 17.662 18.3766C14.647 19.528 6.60741 22.9822 4.67188 26.5851C11.1855 22.8338 13.6049 27.9966 14.1259 33.3079C14.6096 38.285 17.1035 40.8852 23.5055 40.7364C30.0937 40.5879 32.1036 44.4135 33.9273 48.9079C37.4632 31.7107 43.1209 28.368 46.7683 25.4338C54.5104 19.1565 44.9818 8.08794 41.4459 9.35091Z" fill="#8AC640"/>
<path d="M41.4456 9.35107C31.6193 12.7682 21.9046 13.6225 10.4779 20.6425C7.76085 22.3139 2.02881 26.1023 0.912109 33.3453C5.08067 28.7394 14.7209 22.9454 26.5199 19.2683C32.4753 17.411 36.8302 16.1854 42.1155 14.1425C41.7434 11.7652 41.7434 10.8367 41.4456 9.35107Z" fill="#8AC640"/>
<path d="M53.9891 29.7049C53.9891 29.7049 53.2819 32.1193 51.8675 32.8994C51.8675 32.8994 50.8254 33.2708 48.7411 32.1194C48.1456 31.7852 47.699 30.6338 47.7361 30.2622C47.7733 29.3707 48.3316 28.9622 48.3316 28.9622C48.3316 28.9622 48.9273 27.9593 49.6343 27.9965C50.3417 28.0335 51.5327 28.1449 51.905 27.8106C52.2398 27.4392 54.0636 28.4791 53.9891 29.7049ZM38.803 6.3422C38.803 6.3422 38.6543 8.23665 38.3937 9.42504C38.3564 9.64805 37.2399 9.75929 36.4209 10.0937C37.9842 14.5508 47.4011 14.5136 48.6295 12.3222C48.0339 11.9138 46.8428 11.2823 46.2846 11.0595C45.7261 10.8364 45.7634 10.8736 45.7261 9.83369C45.6891 8.79355 45.6145 6.86227 45.5399 6.3422C45.4656 5.82213 39.6962 5.82213 38.803 6.3422Z" fill="#010101"/>
<path d="M39.1748 6.3422C39.1748 6.3422 39.1748 7.41936 39.0631 8.45931C39.026 8.94218 38.9887 9.23923 38.9144 9.61068C38.8771 9.83369 40.1798 10.7248 40.552 12.6935C42.3386 16.6677 46.4703 14.6992 48.1823 12.8049C47.5868 12.3963 46.619 11.8392 45.5025 11.3935C44.9441 11.1705 45.2047 10.6878 45.1676 9.64788C45.1303 8.60792 44.9814 7.08492 44.907 6.52784C44.8322 5.97075 40.0681 5.82214 39.1748 6.3422Z" fill="#F0EFEF"/>
<path d="M38.8026 6.3422C38.8026 6.3422 38.7653 7.01088 38.6538 7.7908C39.1375 8.27349 39.7703 8.94217 40.2544 9.35082C40.5893 9.64805 41.408 9.61085 42.1526 9.61085C42.8226 9.61085 43.4181 9.68507 43.6787 9.53664C44.2744 9.2394 45.1303 8.49668 45.6142 7.93942C45.5771 7.27092 45.5398 6.63943 45.5027 6.3422C45.4651 5.82213 39.6958 5.82213 38.8026 6.3422Z" fill="#010101"/>
<path d="M42.1899 9.16521C41.7431 9.16521 41.222 9.12819 40.8127 9.05379C40.6265 9.01678 40.4404 8.90536 40.2915 8.83096C40.0309 8.64514 39.7703 8.42249 39.4728 8.19948C38.8771 7.75381 38.84 7.49378 38.84 7.38254C39.1006 5.04242 38.7655 3.07394 38.7655 3.07394C38.7655 3.07394 38.5049 2.071 39.9193 1.81097C41.3336 1.55093 42.1898 1.51392 42.1898 1.51392C42.1898 1.51392 43.0831 1.51392 44.4602 1.81097C45.8746 2.071 45.614 3.07394 45.614 3.07394C45.614 3.07394 45.2791 5.04242 45.5397 7.38254C45.5397 7.49378 45.5026 7.75381 44.9068 8.19948C44.3857 8.57093 43.9764 8.9794 43.567 9.05379C43.1575 9.12819 42.6364 9.16521 42.1899 9.16521Z" fill="#010101"/>
<path d="M42.19 0.548096C39.7335 0.548096 39.2494 1.2166 38.5422 1.9595C38.3935 2.14513 38.5049 3.25948 38.7657 5.63662H39.1007C39.1007 5.63662 38.8772 4.96794 38.9144 4.18802C38.9517 3.4081 39.1007 3.4453 38.9888 3.25948C38.8401 3.03647 38.5422 2.66502 39.2123 2.29375C39.8822 1.9223 40.9244 2.5908 42.19 2.628C43.4554 2.5908 44.5348 1.9223 45.2048 2.29375C45.8747 2.66502 45.577 3.03647 45.4282 3.25948C45.2793 3.48232 45.4653 3.40792 45.5026 4.18802C45.5397 4.96794 45.3164 5.63662 45.3164 5.63662H45.6514C45.8747 3.25948 46.0236 2.21953 45.9119 2.03371C45.2791 1.2166 44.6465 0.585113 42.19 0.548096ZM53.9888 29.8165C53.9888 29.8165 53.2817 32.0822 51.9046 32.8621C51.6067 32.7137 51.644 32.4908 51.3834 32.1564C51.3088 32.0452 51.0483 31.9706 50.9368 31.8593C50.8251 31.7479 50.8624 31.5621 50.6762 31.4137C50.5273 31.2651 50.4156 31.3765 50.2667 31.2651C50.118 31.1166 50.0805 30.9308 49.969 30.8196C49.8945 30.7452 49.5968 30.7082 49.5224 30.6338C49.3362 30.4479 47.6987 30.1137 47.7731 29.7422C47.9218 29.185 48.2197 28.7765 48.2197 28.7765C48.2197 28.7765 48.9269 27.7365 49.6339 27.7736C50.3411 27.8108 51.0112 27.9594 51.3834 27.6251C51.7929 27.2535 54.1007 28.6279 53.9888 29.8165Z" fill="#010101"/>
<path d="M49.1497 13.3996C49.1497 13.3996 51.4946 12.8423 53.0951 14.3653C54.6957 15.9253 54.5839 17.8566 54.1002 19.0452C54.5095 19.528 55.254 20.865 54.6957 22.4623C57.1522 24.5422 56.0728 27.7366 53.8769 29.8537C53.8769 29.8537 53.3557 27.9222 51.2714 27.8108C51.3458 27.0681 49.3359 26.4736 50.2664 24.5422C48.852 24.2079 48.8893 23.2422 48.666 22.0538C48.4798 20.865 49.1497 13.3996 49.1497 13.3996Z" fill="#010101"/>
<path d="M48.2939 14.4396C48.2939 14.4396 51.011 13.0654 52.6116 14.6254C54.212 16.1854 53.7652 17.8939 53.2815 19.0824C53.6908 19.5651 54.6586 20.9397 54.0631 22.5737C53.9514 22.9452 53.1326 22.9452 52.5368 23.9109C54.0256 23.0564 54.9563 23.2794 55.2912 24.3564C55.8124 26.0278 54.6584 28.0335 53.6535 29.1479C53.6535 29.1107 53.6163 29.0735 53.6163 29.0365C53.4675 29.5937 53.2813 30.6707 52.1648 31.8593C51.6064 32.4536 51.1598 32.3793 50.5269 32.2307C49.7827 32.0449 49.5221 31.7105 48.4799 31.1536C47.8844 30.8193 48.2194 30.4107 48.2194 30.0764C48.2194 30.0022 48.2937 29.8906 48.4056 29.7422C48.4799 29.5564 48.7032 29.2595 49.0382 28.9251C49.0382 28.9251 49.5221 28.2566 50.2294 28.2936C50.9366 28.3308 51.6809 28.1823 51.8671 27.9965C51.8671 26.6965 50.3784 26.6593 50.8994 24.4308C50.9366 24.3194 51.1228 24.1336 51.7182 24.0594C50.8248 23.8735 50.4155 23.8363 49.7827 23.2422C49.3361 22.8338 49.0011 22.3137 48.8893 21.6452C48.6661 20.4938 48.2939 14.4396 48.2939 14.4396Z" fill="#F0EFEF"/>
<path d="M40.4407 12.0994C40.2174 11.8022 39.0636 10.3165 36.8675 9.72226C36.2347 9.53645 35.8254 10.0565 35.1927 10.428C35.0065 10.3165 34.1877 9.9451 33.7411 10.2049C33.2945 10.4648 32.9968 10.725 32.55 10.9106C32.3265 10.7992 31.7312 10.7992 31.2473 10.9849C30.7634 11.1335 30.0189 11.4677 29.3118 12.4335C28.8652 14.0307 37.2025 12.8419 37.2025 12.8419L40.4407 12.0994Z" fill="#010101"/>
<path d="M40.5151 12.0996C39.3238 11.691 39.5101 10.3168 36.8673 10.0939C36.3462 10.0567 36.0112 10.4652 35.639 10.7252C35.8252 10.911 36.0112 11.2081 36.1229 11.5051C35.7879 11.1339 35.1924 10.6508 34.5967 10.5394C34.0384 10.4282 33.6662 10.8366 33.0706 11.1339C33.1821 11.2451 33.2939 11.4309 33.4427 11.6539C32.9215 11.3197 32.5495 11.2083 31.8423 11.4681C31.3584 11.6166 30.4279 12.0252 29.7207 13.0281C29.2741 14.6254 37.2394 12.8423 37.2394 12.8423L40.5151 12.0996Z" fill="#8AC640"/>
<path d="M47.5128 12.694C47.5128 12.694 47.5128 12.2854 47.4756 11.9141C47.4756 11.8399 47.1779 11.6541 47.1779 11.5798L47.1035 11.5054C47.1035 11.5054 47.6991 11.1712 48.1457 11.357C48.6294 11.5054 48.8899 12.1369 48.8899 12.1369C49.7461 11.8399 49.8204 12.1741 50.2299 12.6198C51.1233 12.434 51.2348 12.7682 51.7932 13.5855C51.7932 13.5855 51.1233 13.4741 49.8206 13.6968C48.555 13.8824 47.5128 12.6568 47.5128 12.694Z" fill="#010101"/>
<path d="M47.3636 12.5079C47.3636 12.5079 47.5869 12.3221 47.5124 12.2849C47.9217 12.0621 48.4801 11.8022 48.7407 12.5079C49.5968 12.2107 49.7085 12.6194 50.1178 13.0652C51.16 12.5823 51.2343 13.1764 51.3089 13.4365C50.9739 13.4365 50.4902 13.4737 49.8201 13.5479C48.5547 13.7337 47.3263 12.4707 47.3636 12.5079Z" fill="#8AC640"/>
<path d="M34.7087 11.5796C34.7087 11.5796 36.8302 12.3223 38.6168 12.2109C40.4034 12.0625 43.4555 11.9138 45.0932 12.8796C45.0932 12.8796 46.7681 12.2851 48.3314 12.6938C49.8949 13.1022 52.7607 15.7766 51.9048 18.5994C51.8303 18.7852 51.3464 19.0823 50.7881 19.2681C50.7881 19.2681 51.086 20.5309 50.5648 21.5708C50.0437 22.5738 48.8899 24.5052 48.8526 27.1794C48.8155 27.6251 48.7411 28.5536 48.6666 28.9993C45.7633 28.888 41.2968 27.8107 36.9048 27.8851C36.9419 27.4024 36.9792 27.1052 37.0164 26.6223H37.1279C36.9046 25.3966 36.8302 24.7651 36.6068 23.8365C35.1924 22.9452 33.7035 21.9053 32.4382 19.9366C31.2098 17.9679 34.7087 11.5796 34.7087 11.5796ZM49.0759 31.6366C49.0759 31.6366 51.3836 39.8824 48.6666 43.3367C48.6666 43.3367 49.0759 44.9337 48.1454 46.6424C47.9965 47.3851 47.8103 48.0538 47.6988 48.7965C47.2149 51.8793 46.3959 53.1793 46.1726 58.1192L43.9392 58.0822C43.9392 58.0822 43.6786 54.5165 42.8971 52.6222C42.4506 51.5452 40.7009 50.0965 40.7757 48.648C40.8501 47.5337 41.0734 46.6052 42.9718 45.1194C43.1205 42.9652 40.9617 40.9222 41.2968 32.8994L49.0759 31.6366Z" fill="#010101"/>
<path d="M48.4059 31.3022C49.0014 35.0907 50.3785 40.6993 47.8847 43.4477C48.0319 44.1447 48.0445 44.8632 47.9218 45.5648C47.8474 46.0105 47.6985 46.4934 47.5125 47.0133C47.1403 47.9048 46.9913 49.2048 46.8797 49.9847C46.3958 53.0675 46.3958 53.2163 46.1725 58.1562L43.9391 58.119C43.9391 58.119 43.6785 54.5533 42.897 52.6592C42.4505 51.5821 41.5199 50.6535 41.4455 49.2049C41.3711 48.0908 42.1527 45.8623 44.0138 45.9365C43.9022 41.4422 41.8177 42.3336 41.2595 32.9736L48.4059 31.3022ZM34.7086 11.5796C34.7086 11.5796 35.5274 11.8396 36.4206 11.9138C37.314 11.9881 38.2818 11.9138 39.1377 11.8766C40.9243 11.7282 43.4554 11.5424 45.1303 12.5081C45.1303 12.5081 46.0608 12.2109 47.0659 12.2851C47.5125 12.3223 47.9593 12.6938 48.4803 12.8424C50.1179 13.2508 51.6812 15.9622 50.9739 18.4138C50.8995 18.5996 50.3783 18.4138 49.7828 18.5996C49.8943 19.1197 49.969 20.3082 49.3733 21.571C48.7407 22.834 47.9218 24.4682 48.0706 27.5882C44.1624 27.4024 42.4131 27.1426 38.542 26.9568C38.2071 25.5824 37.9836 24.2082 37.9465 23.5025C38.4676 23.2424 38.7651 23.0198 39.1748 22.5739C38.0583 22.7598 37.6115 22.6854 36.9414 22.3139C36.2715 21.9425 35.0804 20.7539 34.4849 19.974C34.4105 19.8996 34.0012 21.1252 33.0707 21.1625C32.7356 20.6797 34.15 19.3053 33.8894 18.7854C32.9591 16.8909 34.7086 11.5796 34.7086 11.5796Z" fill="#F0EFEF"/>
<path d="M48.7033 28.2194C48.7033 28.2194 48.7777 29.5566 48.7777 29.8908C48.7777 30.2623 49.0756 31.3765 49.1127 31.8965C48.7033 32.6022 46.9167 34.1994 43.6785 34.7937C40.4775 35.4622 36.2344 30.4481 36.2344 30.4481C36.346 29.9652 36.7183 28.5536 36.9788 27.8109C37.0161 27.7367 37.0905 27.5509 37.0905 27.4767C37.4256 26.9938 48.7033 28.2194 48.7033 28.2194Z" fill="#010101"/>
<path d="M47.8844 28.3308C47.8844 29.2593 48.0331 29.928 48.1449 30.5223C48.331 31.5994 48.6286 32.3051 48.6286 33.0108C48.6286 35.1649 45.7999 34.7935 43.4176 34.8679C40.2166 35.5366 37.4995 30.5223 37.4995 30.5223C37.7228 29.668 37.8717 28.7024 38.2067 27.8851C38.2438 27.4394 38.3183 26.8823 38.3554 26.6223C42.8964 26.6223 46.0974 26.8823 47.9586 27.0678C48.0331 27.4765 47.9587 28.1822 47.8844 28.3308Z" fill="#F0EFEF"/>
<path d="M44.3112 33.1221C44.3112 33.1221 42.3386 28.7392 36.4204 30.0394C35.0062 34.0136 33.1077 38.5822 34.3361 43.5221C33.1077 45.1936 31.6934 46.1223 31.6934 49.2049C31.6934 52.2878 31.8423 52.8078 31.8423 52.8078L36.1971 53.0308C36.1971 53.0308 37.6114 51.211 38.1697 49.2423C38.3186 48.685 38.4675 47.6823 38.3559 46.5309C38.5046 46.3081 39.1375 45.7882 39.212 44.7853C39.212 44.7853 41.3336 43.6711 42.5619 40.9597C43.7159 38.5078 43.418 36.3907 44.3112 33.1221Z" fill="#010101"/>
<path d="M44.3115 33.1221C44.2 32.7136 42.7111 28.7022 37.2024 29.8906C33.9643 38.5078 35.1554 42.0735 35.6391 43.6334C33.4429 46.419 32.4381 47.0133 32.8849 52.659H35.7882C37.128 50.5419 37.4258 49.7618 37.5002 46.9762C37.5002 46.8648 37.0909 47.1991 36.793 47.5705C37.0165 46.4191 37.6491 46.1963 38.133 45.4906C38.3563 45.1934 38.5424 44.7477 38.5424 44.1534C41.1478 42.4078 42.1156 40.2163 42.6738 37.9506C43.1206 36.3907 43.6416 33.8278 44.3115 33.1221Z" fill="#F0EFEF"/>
<path d="M35.1174 27.1423C35.1174 27.1423 36.1225 27.1794 37.0159 27.4766C37.872 27.7736 37.872 27.9593 38.2069 28.3309C38.5419 28.7025 39.3607 29.2594 39.212 29.8165C39.1374 30.1138 38.9514 30.188 38.6908 30.448C38.5792 30.5594 37.7601 31.4508 37.5741 31.5622C37.4625 31.6364 37.3135 31.748 37.2019 31.8222L36.6436 32.1937C36.2714 32.3795 36.0108 32.4909 35.6015 32.4537C35.6015 32.4537 34.671 32.4165 34.0753 31.7852C34.0753 31.7852 34.0009 31.488 34.1498 31.3395C34.1498 31.3395 33.3681 30.6708 33.1448 30.2252C32.9213 29.7797 32.9213 29.1482 33.0704 28.814C33.1448 28.4793 34.5963 27.5508 35.1174 27.1423ZM36.0481 63.2821L35.9364 64.2108C35.9364 64.2108 35.6015 64.6193 33.1077 64.5822C30.5766 64.545 29.9067 63.7651 29.6834 63.3565L29.5347 62.3907C29.5347 62.3907 30.0185 61.685 30.1302 61.685C30.949 61.7593 33.7407 62.8736 35.6762 63.1707C35.8619 63.1707 35.899 63.2449 36.0481 63.2821ZM41.445 61.3878C41.445 61.7963 41.4077 61.7963 41.4077 62.2049C41.8543 62.5392 42.9712 62.725 45.0926 62.6876C48.1819 62.6134 51.0479 63.6163 54.5466 63.0219L54.5838 62.3534L54.2489 62.3163L41.8543 61.3134L41.445 61.3878Z" fill="#010101"/>
<path d="M44.1625 62.6877H45.0929C47.103 62.6135 49.0013 63.0592 51.0483 63.1706C52.1277 63.1334 53.4677 62.8734 53.356 62.0935L42.7854 61.2019C42.1525 61.9076 42.6362 62.5019 44.1625 62.6877ZM32.0285 47.0507C32.3634 47.2736 34.6339 48.6107 38.3188 48.4249C38.2442 49.1306 38.2815 50.505 36.6438 52.9192C35.825 54.1077 35.1176 56.1878 34.9689 58.825C35.0061 59.4193 35.3411 59.9392 34.8945 60.7193C35.0432 61.2019 35.6388 62.1677 35.9366 62.762C36.2343 63.3564 36.3832 64.0249 34.4104 64.0621C32.4005 64.0991 29.1623 63.8763 29.609 62.3165C29.8325 61.4994 30.4652 60.645 30.5397 60.3106C30.6141 59.9764 30.6141 58.9736 31.2467 58.3049C31.8052 56.4479 31.6189 54.665 31.5075 52.9936C31.3213 51.2477 31.284 48.4621 32.0285 47.0507ZM35.49 16.7794C38.1327 13.2507 35.8993 10.4281 31.6564 11.2823C29.9442 11.6165 28.2321 12.8053 28.1203 14.9594C27.562 15.0336 26.2966 15.1078 25.6638 17.4107C25.1801 19.1936 24.9195 19.5278 24.0632 20.4192C23.5049 21.0506 24.1005 22.3506 24.5098 23.2794C25.8871 26.4736 30.1302 26.7707 32.9962 29.185C33.964 28.925 34.9689 27.848 35.2667 27.1423C32.8473 24.2821 33.3683 23.1679 32.4005 21.6823C33.4428 21.3107 35.825 19.8623 35.49 16.7794Z" fill="#010101"/>
<path d="M34.9689 16.5565C35.1176 16.3335 35.3782 15.8508 35.49 15.665C35.5273 15.6278 35.9366 16.3335 35.9739 16.2965C36.9788 14.6621 37.2393 12.2849 36.0854 12.0621C35.8248 12.0249 35.3411 11.9137 34.9316 11.7649C34.1873 11.5048 33.5174 11.5048 32.3261 11.7278C30.6885 12.0249 29.0508 13.2135 29.0508 14.9221C29.0508 15.0335 30.2044 15.3678 30.5395 16.7422C29.9811 15.962 29.0133 15.1077 27.8595 15.8506C26.6312 16.6306 27.264 18.4134 25.6263 20.2705C25.0679 20.902 25.1424 21.6449 25.7378 23.1305C26.7056 25.4706 31.2838 26.7334 33.7776 28.9619C34.3731 28.7019 34.7825 28.1076 35.0803 27.6619C33.4054 25.9163 32.7353 24.2818 32.2516 23.0933C31.656 21.7191 30.986 20.9392 29.6832 19.8988C30.3533 20.1589 30.8745 20.4189 31.172 20.6417C31.5069 20.8646 31.9908 20.9018 32.4376 20.7532C34.0384 20.1964 34.8945 17.9677 34.9689 16.5565Z" fill="#F0EFEF"/>
<path d="M51.1599 17.1508C51.0482 18.5622 50.0061 17.8565 49.4478 17.5965C48.3311 17.1136 47.2144 16.7794 45.9117 16.7794C44.609 16.7794 42.934 16.8908 41.4826 17.2623C39.4727 17.8193 38.8769 17.7823 37.9837 17.3365C37.0905 16.8536 35.5274 15.665 35.5274 15.665C35.5274 15.665 35.4901 16.0365 35.8624 16.5194C36.3461 17.1136 37.4257 17.8565 38.8771 18.3392C39.5843 18.5622 40.1428 18.4134 40.7756 18.265C44.0882 17.4479 47.5868 17.2993 50.5272 19.0821C50.6762 19.1563 51.1973 18.9335 51.4206 18.5993C51.7181 18.1166 51.1599 17.1508 51.1599 17.1508Z" fill="#010101"/>
<path d="M34.2246 31.3022C34.5223 31.4881 34.8945 31.5995 35.3038 31.9337C35.3038 31.9337 34.9689 31.9337 34.8201 31.7853C34.6339 31.6739 34.2617 31.3396 34.2246 31.3022Z" fill="#0A1825"/>
<path d="M44.9814 1.84815C44.8697 1.5139 44.0507 0.919434 42.1526 0.919434C40.1055 0.919434 39.5099 1.55092 39.4728 1.88517C39.4728 1.99659 39.3239 3.18534 39.2866 3.66802C39.2866 3.66802 39.2866 4.2623 39.3237 5.15364C39.361 5.74792 39.5099 6.08217 39.5843 6.86228C39.6587 7.67921 39.8822 8.19928 40.2915 8.86796C40.4777 8.9792 40.6264 9.0908 40.8126 9.12799C41.5571 9.27643 42.8598 9.31363 43.567 9.12799C43.9763 9.01658 44.4975 8.31088 44.6092 7.67939C44.7579 6.89947 44.9068 6.34221 44.9441 5.85952C45.0185 5.37684 45.0558 4.2995 45.0929 4.00227C45.2047 3.18534 45.0185 1.92237 44.9814 1.84815Z" fill="#F0EFEF"/>
<path d="M41.0734 47.7563C41.0734 47.7563 43.0462 48.6107 47.9221 47.8678C47.9221 47.8678 46.545 54.7763 47.1778 58.2304C47.1778 58.2304 47.8105 59.122 52.5004 60.8304C52.5004 60.8304 54.5847 61.3505 54.5103 62.3906C54.5103 62.3906 54.5847 62.6135 52.0538 62.5391C49.5229 62.4647 47.1406 62.019 45.4656 62.019C43.7907 62.019 42.0041 62.0932 41.7064 61.6105C41.3714 61.1649 41.7808 60.0133 42.2646 59.3446C42.786 58.6391 42.6369 58.1189 42.5998 56.8562C42.4878 53.5506 39.9567 50.1335 41.0734 47.7563Z" fill="#010101"/>
<path d="M40.6635 48.388C40.4029 48.7595 40.7006 50.1707 41.0728 51.5451C41.4451 52.9193 42.2641 53.7366 42.4501 56.0021C42.6361 58.2306 42.6734 58.5279 42.0406 59.8277C41.4078 61.1275 41.2218 62.3162 43.4177 62.3534C45.6136 62.3906 46.8049 62.3162 49.0381 62.6507C51.2715 62.9849 52.053 63.0963 53.2814 62.9107C54.5097 62.7251 54.7701 62.3162 54.2491 61.945C53.728 61.5735 51.5691 61.165 50.6387 60.4219C49.7453 59.7534 47.2144 58.6391 47.1773 58.342C47.0656 57.3391 47.0284 53.6992 47.2144 52.5106C47.4006 51.3219 47.661 49.6134 47.7355 49.1678C47.8101 48.7221 48.1821 48.2762 47.5493 48.4248C46.9167 48.5733 44.5346 48.9077 42.748 48.7963C40.9614 48.6851 40.7753 48.2764 40.6635 48.388Z" fill="#8AC640"/>
<path opacity="0.3" d="M41.9292 59.8649C42.5618 60.162 43.4925 60.385 44.1997 60.385C44.1997 60.385 43.9389 61.6108 44.3484 62.3535C44.7577 63.0964 41.3707 62.6507 41.3707 62.6507L41.222 60.0135L41.9292 59.8649ZM51.7927 63.0592C52.3882 62.8734 52.7977 62.2049 52.3139 61.5736C51.7927 60.9421 51.3461 60.8307 52.016 60.7936C52.6861 60.7564 55.1426 62.2421 55.1426 62.2421L53.877 63.3934L51.7927 63.0592ZM40.5519 49.8363C41.408 50.1335 42.7107 50.2078 43.8274 50.1706C44.944 50.1335 46.6189 49.9847 47.6985 49.6135C48.7777 49.242 48.3311 50.0219 48.3311 50.0219L47.7356 50.5792C47.7356 50.5792 46.3212 51.1363 44.0137 51.0993C41.2966 51.0621 40.4775 50.765 40.4775 50.765L40.5519 49.8363ZM40.6263 51.6936C41.4826 51.9908 42.7851 52.065 43.9018 52.0278C45.0183 51.9908 46.5073 51.9908 47.5867 51.5821C48.0333 51.4337 47.7729 52.065 47.7729 52.065L47.5867 52.3993C47.5867 52.3993 46.135 52.9193 43.8645 52.8819C41.1474 52.8449 40.6636 52.6219 40.6636 52.6219L40.6263 51.6936Z" fill="#010101"/>
<path d="M38.1699 25.6567C38.1699 25.9168 41.0732 27.3652 42.6736 27.6624C44.2742 27.9595 47.6241 27.6624 48.1451 27.551L48.0705 28.0711C48.0705 28.0711 44.088 28.6654 41.0359 27.8482C37.9837 27.0311 38.3189 26.8453 38.3189 26.8453L38.1699 25.6567Z" fill="#010101"/>
<path d="M31.9537 57.3392C32.4003 57.5622 34.0009 57.9707 35.043 57.7479C35.1918 57.7107 35.043 55.1849 35.4526 54.0336C36.0481 52.4363 37.0159 51.1364 37.4623 48.3137C35.899 48.1651 34.1126 47.7565 33.1819 47.4592C31.991 51.0993 32.4005 54.2192 31.9537 57.3392ZM34.4477 59.6793C34.7083 59.7536 34.8943 60.0506 34.9689 59.8652C35.1176 59.5307 34.7083 58.8994 34.671 58.4538V58.4166C34.336 58.1195 32.0656 58.0823 32.2145 58.2307C31.9539 58.7136 31.5446 58.6394 31.3958 59.6051C31.3215 60.0878 31.917 59.6793 32.4751 59.6421C31.4702 60.3106 30.3164 61.1651 30.1302 61.9079C29.9069 62.9478 30.2791 63.245 31.3958 63.8023C32.3636 64.0251 33.5174 64.0624 34.4106 64.0252C35.4156 63.8393 35.6019 63.3566 35.304 62.688C34.857 61.685 34.5593 60.385 34.4477 59.6793Z" fill="#F0EFEF"/>
<path d="M34.8574 11.4309C36.0857 12.1366 37.7979 11.951 38.4306 11.9138C38.5795 11.9138 40.0684 11.6537 40.1428 11.6908C40.2915 11.728 40.2915 11.8394 40.2915 11.8394C40.2915 11.8394 39.7333 12.1364 38.4678 12.2106C37.2768 12.2849 35.8624 12.2106 35.0808 11.8394C34.1502 11.4309 34.8574 11.4309 34.8574 11.4309ZM47.5125 12.1366C47.7358 12.285 49.1875 12.8423 49.8203 13.5108C50.3785 14.1053 50.0809 14.0681 49.969 13.9195C49.8203 13.7336 48.6663 12.9537 48.2197 12.7681C47.7731 12.5825 47.2146 12.248 47.2146 12.1738C47.2146 12.0996 47.5125 12.1366 47.5125 12.1366Z" fill="#010101"/>
<path d="M34.6711 27.5507C35.7505 27.4765 36.8672 27.7366 37.5744 28.4793C37.9466 28.8507 38.5422 29.2592 38.4678 29.6306C38.4678 29.7421 38.2443 30.0393 38.0585 30.2621C37.9468 30.4106 37.6119 30.7448 37.5 30.8564C37.3513 30.9678 36.8301 31.3765 36.7185 31.4507C36.6068 31.5251 36.4579 31.7109 36.3462 31.7479C35.9742 31.9337 35.5647 31.7851 35.1925 31.5995C34.8204 31.4137 35.267 31.3765 34.8575 31.0794C33.8526 30.3737 33.2942 29.8907 33.7037 28.5165C33.7408 28.2564 34.1501 27.9592 34.6711 27.5507Z" fill="#F0EFEF"/>
<path opacity="0.4" d="M25.18 19.0451C21.8301 20.3823 13.3064 24.6167 10.8872 25.9166C12.8971 27.1794 13.8276 30.2251 14.1255 33.3079C14.1626 33.6051 14.1998 33.8652 14.2371 34.1622C14.2742 34.4223 14.3115 34.6079 14.3486 34.7195C14.3486 34.7567 14.3486 34.8309 14.3859 34.8679C16.582 28.8881 24.4354 22.5738 24.7333 22.0909C24.882 21.8681 24.547 20.9023 25.0682 19.974C25.7383 18.7851 27.0412 18.265 25.18 19.0451ZM33.1453 47.0879C34.8573 43.6708 34.8946 40.4021 34.8573 36.5764C34.8573 34.9792 36.0111 32.7134 35.4158 33.3449C33.1824 35.8333 27.5622 40.5135 23.5051 40.7734C29.1998 40.5877 31.4331 43.4478 33.1453 47.0879Z" fill="#010101"/>
<path d="M7.61133 29.0735C9.73289 27.5507 20.7131 21.7195 23.3558 20.9022C25.9983 20.0479 25.1795 19.0449 25.1795 19.0449C25.1795 19.0449 14.4599 23.6506 8.05793 27.6249" fill="#010101"/>
<path opacity="0.4" d="M38.8773 18.3395C38.0212 18.0053 37.3512 19.0082 37.5746 19.9739C37.798 20.9397 39.8079 22.0166 39.6961 25.5453C39.6217 28.4425 38.9889 29.6309 38.9889 29.6309L37.5746 27.8482C37.5746 27.8482 37.3512 23.8367 36.8674 23.2424C36.3837 22.6481 34.8575 21.571 34.2619 21.0139C33.6664 20.4566 34.9318 19.7139 34.8575 18.6738C34.7831 17.671 35.4903 15.6653 35.4903 15.6653L38.8773 18.3395ZM44.0511 34.1622C43.9767 36.9478 44.6095 41.0708 44.8699 43.0394C45.1305 45.0079 45.4654 45.1565 44.8699 46.048C44.2744 46.9024 43.4928 48.3138 43.4928 48.3138L40.9245 48.0907C40.9245 48.0907 42.9716 45.4908 43.0831 45.0079C43.1948 44.5252 42.041 40.8481 42.041 40.8481L44.0511 34.1622ZM39.1008 8.16247C39.6219 9.31365 40.2545 9.83372 41.2594 10.1682C41.8549 10.391 44.1998 10.6882 45.1305 9.64809C45.5398 9.16522 45.2792 7.86523 45.2792 7.86523L43.1577 9.57369L40.2916 9.0538L39.9567 8.19949L39.1008 8.16247Z" fill="#010101"/>
<path d="M39.324 10.7251C40.2918 11.3566 42.7112 11.9509 43.3811 12.0623C44.051 12.2107 45.1305 11.3566 45.6516 11.1337C46.2101 10.8737 47.1778 10.7251 48.2943 11.728C48.406 11.8394 48.0338 12.3223 48.0338 12.3223C47.9965 12.2851 47.7732 12.2851 47.4753 12.1365C47.1776 11.9881 46.9171 11.8765 46.4705 11.9137C44.6093 12.1365 44.3116 12.768 42.6739 12.3964C41.0363 12.0247 40.6268 11.7278 39.0264 11.8021" fill="#8AC640"/>
<path d="M39.324 10.7251C40.2918 11.3566 42.7112 11.9509 43.3811 12.0623C44.051 12.2107 45.1305 11.3566 45.6516 11.1337C46.2101 10.8737 47.1778 10.7251 48.2943 11.728C48.406 11.8394 48.0338 12.3223 48.0338 12.3223C47.9965 12.2851 47.7732 12.2851 47.4753 12.1365C47.1776 11.9881 46.9171 11.8765 46.4705 11.9137C44.6093 12.1365 44.3116 12.768 42.6739 12.3964C41.0363 12.0247 40.6268 11.7278 39.0264 11.8021" stroke="#010101" stroke-width="2" stroke-miterlimit="10" stroke-linejoin="round"/>
<path d="M38.989 10.8367C40.2174 11.3567 42.5995 11.9138 43.2694 12.0624C43.9393 12.2111 45.0188 11.5424 45.5399 11.2081C46.4706 10.6138 47.6615 11.0967 48.2199 11.7282C48.592 12.1367 48.7411 12.3967 48.7411 12.5081C48.7411 12.6565 48.2945 12.5081 48.2945 12.5081C48.0339 12.3967 47.736 12.3597 47.5129 12.2109C47.2151 12.0624 46.9172 11.8396 46.4708 11.8766C44.6096 12.0996 44.2374 12.7309 42.637 12.3595C41.0366 11.988 40.6271 11.6538 38.915 11.765" fill="#8AC640"/>
<path d="M33.2195 45.5277C33.1452 45.4534 33.2939 45.3792 33.2195 45.3792C32.7358 45.3792 32.0657 45.0078 31.6933 44.4877C30.0929 42.185 27.7479 40.6621 23.5048 40.7736C17.1399 40.922 14.6088 38.3222 14.1251 33.3451C13.8646 30.6337 13.1201 27.9965 11.5941 26.5107L10.7007 27.068C12.4127 28.5536 12.9712 30.968 13.3434 34.2736C13.9389 39.2507 17.9588 41.5537 22.6487 41.6279C27.5246 41.7021 29.2739 42.705 31.0976 45.1566C31.6931 45.9365 32.3632 46.1965 32.8842 46.3079L33.2195 45.5277Z" fill="#010101"/>
<path opacity="0.4" d="M50.4906 21.645C50.6022 22.2021 50.8999 23.2793 51.4954 23.7991C51.7562 24.0592 51.7933 24.1334 51.57 24.1334C51.3465 24.1334 49.7088 24.0592 49.7088 24.0592L49.2622 23.2793L50.4906 21.645Z" fill="#010101"/>
</svg>
