<svg width="63" height="22" viewBox="0 0 63 22" fill="none" xmlns="http://www.w3.org/2000/svg">
<path d="M2.782 10V2.72H0.338V1.03H7.02V2.72H4.576V10H2.782ZM9.97405 10.156C7.92005 10.156 6.38605 8.661 6.38605 6.685C6.38605 4.709 7.92005 3.214 9.94805 3.214C11.976 3.214 13.51 4.709 13.51 6.711C13.51 6.893 13.497 7.101 13.458 7.27H8.19305C8.41405 8.128 9.10305 8.687 10.013 8.687C10.702 8.687 11.274 8.375 11.573 7.946H13.406C12.899 9.259 11.586 10.156 9.97405 10.156ZM9.94805 4.683C9.09005 4.683 8.44005 5.216 8.20605 6.035H11.703C11.495 5.229 10.819 4.683 9.94805 4.683ZM17.1682 10.156C15.3222 10.156 13.9312 8.661 13.9312 6.685C13.9312 4.709 15.3222 3.214 17.1682 3.214C18.0522 3.214 18.7932 3.565 19.3262 4.15V3.37H21.0162V10H19.3262V9.22C18.7932 9.805 18.0522 10.156 17.1682 10.156ZM17.4932 8.518C18.5462 8.518 19.3262 7.725 19.3262 6.685C19.3262 5.645 18.5462 4.852 17.4932 4.852C16.4532 4.852 15.6732 5.645 15.6732 6.685C15.6732 7.725 16.4532 8.518 17.4932 8.518ZM25.3927 10.156C23.3647 10.156 21.8307 8.661 21.8307 6.685C21.8307 4.709 23.3647 3.214 25.3927 3.214C27.1607 3.214 28.5387 4.345 28.7987 5.918H27.0047C26.7837 5.281 26.1597 4.852 25.3927 4.852C24.3527 4.852 23.5727 5.645 23.5727 6.685C23.5727 7.725 24.3527 8.518 25.3927 8.518C26.1597 8.518 26.7837 8.089 27.0047 7.452H28.7987C28.5387 9.025 27.1607 10.156 25.3927 10.156ZM29.6265 10V0.64H31.3165V4.15C31.8365 3.539 32.5645 3.214 33.4225 3.214C34.9825 3.214 36.0095 4.228 36.0095 5.788V10H34.3195V6.334C34.3195 5.437 33.7475 4.852 32.8765 4.852C31.9405 4.852 31.3165 5.45 31.3165 6.36V10H29.6265ZM40.0558 10.156C38.2098 10.156 36.8188 8.661 36.8188 6.685C36.8188 4.709 38.2098 3.214 40.0558 3.214C40.9398 3.214 41.6808 3.565 42.2138 4.15V3.37H43.9038V10H42.2138V9.22C41.6808 9.805 40.9398 10.156 40.0558 10.156ZM40.3808 8.518C41.4338 8.518 42.2138 7.725 42.2138 6.685C42.2138 5.645 41.4338 4.852 40.3808 4.852C39.3408 4.852 38.5608 5.645 38.5608 6.685C38.5608 7.725 39.3408 8.518 40.3808 8.518ZM45.1473 10V0.64H46.8373V4.15C47.3703 3.565 48.1113 3.214 48.9953 3.214C50.8413 3.214 52.2193 4.709 52.2193 6.685C52.2193 8.661 50.8413 10.156 48.9953 10.156C48.1113 10.156 47.3703 9.805 46.8373 9.22V10H45.1473ZM48.6573 8.518C49.7103 8.518 50.4773 7.725 50.4773 6.685C50.4773 5.645 49.7103 4.852 48.6573 4.852C47.6173 4.852 46.8373 5.645 46.8373 6.685C46.8373 7.725 47.6173 8.518 48.6573 8.518ZM53.0981 10V0.64H54.7881V10H53.0981ZM59.2187 10.156C57.1647 10.156 55.6307 8.661 55.6307 6.685C55.6307 4.709 57.1647 3.214 59.1927 3.214C61.2207 3.214 62.7547 4.709 62.7547 6.711C62.7547 6.893 62.7417 7.101 62.7027 7.27H57.4377C57.6587 8.128 58.3477 8.687 59.2577 8.687C59.9467 8.687 60.5187 8.375 60.8177 7.946H62.6507C62.1437 9.259 60.8307 10.156 59.2187 10.156ZM59.1927 4.683C58.3347 4.683 57.6847 5.216 57.4507 6.035H60.9477C60.7397 5.229 60.0637 4.683 59.1927 4.683ZM0.91 21V12.03H3.146L5.863 16.866L8.593 12.03H10.803V21H9.009V14.669L6.37 19.388H5.343L2.704 14.669V21H0.91ZM14.9938 21.156C13.1478 21.156 11.7568 19.661 11.7568 17.685C11.7568 15.709 13.1478 14.214 14.9938 14.214C15.8778 14.214 16.6188 14.565 17.1518 15.15V14.37H18.8418V21H17.1518V20.22C16.6188 20.805 15.8778 21.156 14.9938 21.156ZM15.3188 19.518C16.3718 19.518 17.1518 18.725 17.1518 17.685C17.1518 16.645 16.3718 15.852 15.3188 15.852C14.2788 15.852 13.4988 16.645 13.4988 17.685C13.4988 18.725 14.2788 19.518 15.3188 19.518ZM23.2182 21.156C21.1902 21.156 19.6562 19.661 19.6562 17.685C19.6562 15.709 21.1902 14.214 23.2182 14.214C24.9862 14.214 26.3642 15.345 26.6242 16.918H24.8302C24.6092 16.281 23.9852 15.852 23.2182 15.852C22.1782 15.852 21.3982 16.645 21.3982 17.685C21.3982 18.725 22.1782 19.518 23.2182 19.518C23.9852 19.518 24.6092 19.089 24.8302 18.452H26.6242C26.3642 20.025 24.9862 21.156 23.2182 21.156ZM27.452 21V11.64H29.142V15.15C29.662 14.539 30.39 14.214 31.248 14.214C32.808 14.214 33.835 15.228 33.835 16.788V21H32.145V17.334C32.145 16.437 31.573 15.852 30.702 15.852C29.766 15.852 29.142 16.45 29.142 17.36V21H27.452ZM35.867 13.434C35.269 13.434 34.801 12.979 34.801 12.381C34.801 11.783 35.269 11.328 35.867 11.328C36.465 11.328 36.933 11.783 36.933 12.381C36.933 12.979 36.465 13.434 35.867 13.434ZM35.022 21V14.37H36.712V21H35.022ZM37.9576 21V14.37H39.6476V15.111C40.1676 14.526 40.8956 14.214 41.7536 14.214C43.3136 14.214 44.3406 15.228 44.3406 16.788V21H42.6506V17.334C42.6506 16.437 42.0786 15.852 41.2076 15.852C40.2716 15.852 39.6476 16.45 39.6476 17.36V21H37.9576ZM48.7125 21.156C46.6585 21.156 45.1245 19.661 45.1245 17.685C45.1245 15.709 46.6585 14.214 48.6865 14.214C50.7145 14.214 52.2485 15.709 52.2485 17.711C52.2485 17.893 52.2355 18.101 52.1965 18.27H46.9315C47.1525 19.128 47.8415 19.687 48.7515 19.687C49.4405 19.687 50.0125 19.375 50.3115 18.946H52.1445C51.6375 20.259 50.3245 21.156 48.7125 21.156ZM48.6865 15.683C47.8285 15.683 47.1785 16.216 46.9445 17.035H50.4415C50.2335 16.229 49.5575 15.683 48.6865 15.683Z" fill="#1971E8"/>
</svg>
