<svg width="42" height="59" viewBox="0 0 42 59" fill="none" xmlns="http://www.w3.org/2000/svg">
<path d="M41.9226 11.4673L38.1565 53.6576L21.2275 58.3508L4.34523 53.6641L0.583008 11.4673H41.9226Z" fill="#E44D26"/>
<path d="M21.2529 54.7635L34.9324 50.9711L38.1506 14.9175H21.2529V54.7635Z" fill="#F16529"/>
<path d="M13.9318 25.268H21.253V20.0928H8.27588L8.39968 21.4812L9.67174 35.7429H21.253V30.5676H14.4048L13.9318 25.268ZM15.0982 38.3306H9.90298L10.628 46.4565L21.2292 49.3993L21.253 49.3928V44.0083L21.2303 44.0143L15.4667 42.458L15.0982 38.3306Z" fill="#EBEBEB"/>
<path d="M4.4292 0H7.05921V2.59841H9.46511V0H12.0953V7.86863H9.46527V5.23376H7.05937V7.86863H4.42936L4.4292 0ZM15.5537 2.60943H13.2387V0H20.5006V2.60943H18.1842V7.86863H15.5541V2.60943H15.5537ZM21.6531 0H24.3954L26.0823 2.76483L27.7676 0H30.511V7.86863H27.8917V3.96851L26.0823 6.76623H26.0369L24.2264 3.96851V7.86863H21.6531V0ZM31.8198 0H34.4507V5.26779H38.1492V7.86863H31.8197V0H31.8198Z" fill="black"/>
<path d="M21.235 35.7429H27.6078L27.0069 42.4548L21.2349 44.0127V49.3969L31.8445 46.4565L31.9223 45.5821L33.1386 31.9573L33.2648 30.5676H21.235V35.7429ZM21.235 25.2554V25.268H33.7357L33.8395 24.1049L34.0754 21.4812L34.199 20.0928H21.235V25.2554Z" fill="white"/>
</svg>
