<svg width="20" height="18" viewBox="0 0 20 18" fill="none" xmlns="http://www.w3.org/2000/svg">
<path d="M3.99996 16C3.99996 16 -1.30414 3.326 3.99996 1.99997C5.32598 1.66846 7.49996 1.99997 7.49996 1.99997C7.49996 1.99997 5.91065 6.05515 7.49996 7.49997C8.94478 8.81345 12.5 7.49997 12.5 7.49997C12.5 7.49997 10.6879 3.15312 12.5 1.99997C13.6531 1.26615 16 1.99997 16 1.99997C16 1.99997 21.3041 14.6739 16 16C14.6739 16.3315 12.5 16 12.5 16C12.5 16 14.0893 11.9448 12.5 10.5C11.0551 9.18649 7.49996 10.5 7.49996 10.5C7.49996 10.5 9.31204 14.8468 7.49996 16C6.34681 16.7338 3.99996 16 3.99996 16Z" fill="white" stroke="white" stroke-width="2" stroke-linejoin="round"/>
</svg>
