<svg width="20" height="17" viewBox="0 0 20 17" fill="none" xmlns="http://www.w3.org/2000/svg">
<path d="M3.99996 15.3261C3.99996 15.3261 -1.30414 2.65217 3.99996 1.32614C5.32598 0.994636 7.49996 1.32614 7.49996 1.32614C7.49996 1.32614 5.91065 5.38132 7.49996 6.82614C8.94478 8.13962 12.5 6.82614 12.5 6.82614C12.5 6.82614 10.6879 2.47929 12.5 1.32614C13.6531 0.592322 16 1.32614 16 1.32614C16 1.32614 21.3041 14.0001 16 15.3261C14.6739 15.6576 12.5 15.3261 12.5 15.3261C12.5 15.3261 14.0893 11.271 12.5 9.82614C11.0551 8.51267 7.49996 9.82614 7.49996 9.82614C7.49996 9.82614 9.31204 14.173 7.49996 15.3261C6.34681 16.06 3.99996 15.3261 3.99996 15.3261Z" fill="#272727" stroke="#272727" stroke-width="2" stroke-linejoin="round"/>
</svg>
