<svg width="63" height="63" viewBox="0 0 63 63" fill="none" xmlns="http://www.w3.org/2000/svg">
<path d="M0 3C0 1.34315 1.34315 0 3 0H60C61.6569 0 63 1.34315 63 3V59.4C63 61.0569 61.6569 62.4 60 62.4H3C1.34315 62.4 0 61.0569 0 59.4V3Z" fill="#F7DF1E"/>
<path d="M16.565 52.1461L18.7549 50.8334C20.1985 49.9681 21.8719 50.6875 23.2352 51.6746C23.751 52.0481 24.3758 52.2716 25.1919 52.2716C27.1373 52.2716 28.3638 51.5178 28.3638 48.586V31.6079C28.3638 29.973 29.6892 28.6477 31.324 28.6477V28.6477C32.9589 28.6477 34.2842 29.973 34.2842 31.6079V48.6689C34.2842 54.7425 30.6898 57.507 25.4457 57.507C20.7096 57.507 17.9604 55.0775 16.5649 52.1456" fill="black"/>
<path d="M39.0535 53.7863C38.023 52.6367 38.5526 50.9141 39.8918 50.1461V50.1461C41.246 49.3695 42.9049 49.8941 44.0953 50.9039C45.1225 51.7753 46.4131 52.3137 48.1567 52.3137C50.6098 52.3137 52.1741 51.0989 52.1741 49.4234C52.1741 47.4128 50.5672 46.7007 47.8606 45.5283L46.3809 44.8995C42.1094 43.0987 39.2759 40.8369 39.2759 36.0617C39.2759 31.6636 42.659 28.3125 47.9454 28.3125C50.8078 28.3125 53.0587 29.0636 54.8282 30.9157C55.8317 31.966 55.396 33.6176 54.1703 34.3972V34.3972C52.8556 35.2334 51.2153 34.5847 49.8418 33.8492C49.2925 33.555 48.6739 33.423 47.9455 33.423C46.2116 33.423 45.112 34.512 45.112 35.9359C45.112 37.6952 46.2116 38.4074 48.7487 39.4966L50.2287 40.1248C55.2612 42.2612 58.0947 44.439 58.0947 49.3396C58.0947 54.6177 53.9081 57.5076 48.2837 57.5076C44.098 57.5076 41.0398 56.0022 39.0535 53.7863Z" fill="black"/>
</svg>
