<svg width="22" height="22" viewBox="0 0 22 22" fill="none" xmlns="http://www.w3.org/2000/svg">
<path d="M17.6 9.702C17.3083 9.702 17.0285 9.81789 16.8222 10.0242C16.6159 10.2305 16.5 10.5103 16.5 10.802V18.7C16.5 18.9917 16.3841 19.2715 16.1778 19.4778C15.9715 19.6841 15.6917 19.8 15.4 19.8H3.3C3.00826 19.8 2.72847 19.6841 2.52218 19.4778C2.31589 19.2715 2.2 18.9917 2.2 18.7V6.6C2.2 6.30826 2.31589 6.02847 2.52218 5.82218C2.72847 5.61589 3.00826 5.5 3.3 5.5H11.198C11.4897 5.5 11.7695 5.38411 11.9758 5.17782C12.1821 4.97153 12.298 4.69174 12.298 4.4C12.298 4.10826 12.1821 3.82847 11.9758 3.62218C11.7695 3.41589 11.4897 3.3 11.198 3.3H3.3C2.42479 3.3 1.58542 3.64768 0.966548 4.26655C0.347678 4.88542 0 5.72479 0 6.6V18.7C0 19.5752 0.347678 20.4146 0.966548 21.0335C1.58542 21.6523 2.42479 22 3.3 22H15.4C16.2752 22 17.1146 21.6523 17.7335 21.0335C18.3523 20.4146 18.7 19.5752 18.7 18.7V10.802C18.7 10.5103 18.5841 10.2305 18.3778 10.0242C18.1715 9.81789 17.8917 9.702 17.6 9.702ZM21.912 0.682C21.8004 0.413216 21.5868 0.199622 21.318 0.0879999C21.1858 0.0316348 21.0437 0.00173799 20.9 0H14.3C14.0083 0 13.7285 0.115892 13.5222 0.322183C13.3159 0.528473 13.2 0.808262 13.2 1.1C13.2 1.39174 13.3159 1.67153 13.5222 1.87782C13.7285 2.08411 14.0083 2.2 14.3 2.2H18.249L6.919 13.519C6.8159 13.6213 6.73407 13.7429 6.67822 13.877C6.62237 14.011 6.59362 14.1548 6.59362 14.3C6.59362 14.4452 6.62237 14.589 6.67822 14.723C6.73407 14.8571 6.8159 14.9787 6.919 15.081C7.02126 15.1841 7.14292 15.2659 7.27697 15.3218C7.41101 15.3776 7.55479 15.4064 7.7 15.4064C7.84521 15.4064 7.98899 15.3776 8.12303 15.3218C8.25708 15.2659 8.37874 15.1841 8.481 15.081L19.8 3.751V7.7C19.8 7.99174 19.9159 8.27153 20.1222 8.47782C20.3285 8.68411 20.6083 8.8 20.9 8.8C21.1917 8.8 21.4715 8.68411 21.6778 8.47782C21.8841 8.27153 22 7.99174 22 7.7V1.1C21.9983 0.956255 21.9684 0.814244 21.912 0.682Z" fill="#FDFDFD"/>
</svg>
