<svg width="63" height="28" viewBox="0 0 63 28" fill="none" xmlns="http://www.w3.org/2000/svg">
<path d="M3.86477 6.67932V8.64186H3.95659C4.13946 8.36875 4.37859 8.09025 4.67398 7.80708C4.96887 7.52391 5.33051 7.27019 5.75813 7.04518C6.18549 6.82139 6.66887 6.63539 7.20851 6.48866C7.74739 6.34241 8.35353 6.2688 9.02514 6.2688C10.0635 6.2688 11.02 6.45946 11.8955 6.84004C12.7707 7.2216 13.5241 7.74402 14.1553 8.40777C14.786 9.07201 15.2745 9.85329 15.6208 10.7514C15.9668 11.65 16.14 12.6168 16.14 13.6518C16.14 14.6868 15.972 15.6585 15.6359 16.5666C15.3003 17.4748 14.8213 18.2656 14.2009 18.9394C13.5796 19.6132 12.8269 20.1511 11.9413 20.5506C11.0556 20.9508 10.0528 21.151 8.93358 21.151C7.89522 21.151 6.94355 20.9459 6.07859 20.5361C5.21286 20.1258 4.54662 19.5696 4.07859 18.8658H4.01772V27.7718H0.353516V6.67932H3.86477ZM12.4147 13.6515C12.4147 13.1046 12.328 12.5625 12.1551 12.0254C11.9817 11.4885 11.7223 11.0051 11.3763 10.5752C11.03 10.1463 10.5927 9.79931 10.0632 9.53528C9.53384 9.27175 8.91312 9.13998 8.20084 9.13998C7.52897 9.13998 6.92821 9.27665 6.39931 9.55025C5.86989 9.82385 5.4167 10.1757 5.04048 10.6046C4.6635 11.0345 4.37884 11.5229 4.18549 12.0698C3.99163 12.6167 3.89547 13.1639 3.89547 13.7104C3.89547 14.2574 3.99163 14.7994 4.18549 15.336C4.37884 15.8737 4.6635 16.3568 5.04048 16.7867C5.41695 17.2161 5.86989 17.5631 6.39931 17.8261C6.92821 18.0902 7.52897 18.2214 8.20084 18.2214C8.91312 18.2214 9.53384 18.0853 10.0632 17.8117C10.5924 17.5381 11.03 17.1867 11.3763 16.7568C11.7223 16.3274 11.9817 15.8391 12.1551 15.2921C12.328 14.7452 12.4147 14.1982 12.4147 13.6515Z" fill="#EE1C5D"/>
<path d="M48.1311 6.00732V21.5904C48.1311 22.43 48.0597 23.226 47.9173 23.9779C47.7743 24.7297 47.5053 25.3839 47.1081 25.9409C46.7114 26.4979 46.1715 26.9416 45.4897 27.2738C44.8073 27.6061 43.9173 27.7717 42.8178 27.7717C42.5127 27.7717 42.2073 27.7521 41.9017 27.7133C41.5966 27.674 41.3523 27.6348 41.1689 27.5958L41.4746 24.6075C41.6375 24.6468 41.8101 24.676 41.9935 24.6956C42.1769 24.7148 42.3393 24.7248 42.482 24.7248C42.9091 24.7248 43.2551 24.6468 43.5201 24.4905C43.7843 24.3337 43.9881 24.119 44.1311 23.8459C44.273 23.5723 44.3649 23.255 44.4058 22.8936C44.4462 22.5321 44.4667 22.1469 44.4667 21.7366V6.00732H48.1311Z" fill="#EE1C5D"/>
<path d="M60.6195 10.429C60.2934 10.0187 59.8459 9.66263 59.2758 9.35984C58.7057 9.05704 58.085 8.90539 57.4131 8.90539C56.8226 8.90539 56.2837 9.02293 55.7952 9.25727C55.3062 9.49111 55.0625 9.88225 55.0625 10.429C55.0625 10.9757 55.3318 11.3621 55.8712 11.5859C56.4106 11.8107 57.1998 12.0404 58.2379 12.2747C58.7873 12.3922 59.3418 12.5483 59.9019 12.7434C60.462 12.9384 60.9709 13.1973 61.429 13.5197C61.8865 13.8417 62.2581 14.2424 62.5433 14.7209C62.828 15.1996 62.9709 15.7804 62.9709 16.464C62.9709 17.3239 62.8026 18.0514 62.4668 18.6467C62.1313 19.2425 61.6832 19.7259 61.1231 20.0969C60.563 20.4679 59.9118 20.7366 59.1689 20.9025C58.4256 21.0683 57.6579 21.1513 56.8635 21.1513C55.7231 21.1513 54.6141 20.951 53.5351 20.5508C52.4561 20.1511 51.5604 19.5794 50.8481 18.8376L53.2604 16.6694C53.6676 17.1774 54.1965 17.5972 54.8484 17.929C55.4998 18.2612 56.2221 18.4268 57.0164 18.4268C57.2806 18.4268 57.5505 18.3981 57.8256 18.3392C58.1003 18.2808 58.3546 18.1883 58.5888 18.0612C58.8226 17.9341 59.0108 17.7636 59.1538 17.5484C59.2957 17.3332 59.3671 17.0701 59.3671 16.757C59.3671 16.1708 59.0873 15.7515 58.528 15.4975C57.9676 15.2435 57.1277 14.9896 56.0088 14.7358C55.4589 14.6183 54.9244 14.4674 54.4052 14.2814C53.8863 14.0959 53.4231 13.852 53.0159 13.5492C52.6082 13.2464 52.2832 12.871 52.0389 12.4209C51.7947 11.9719 51.6722 11.4154 51.6722 10.7511C51.6722 9.96985 51.84 9.29653 52.1763 8.73019C52.5118 8.16312 52.9551 7.70034 53.5044 7.33791C54.0538 6.97696 54.6748 6.70827 55.3671 6.53283C56.0589 6.35689 56.7717 6.2688 57.5044 6.2688C58.5625 6.2688 59.596 6.44474 60.6034 6.79587C61.6108 7.14775 62.4095 7.68537 63.0006 8.40752L60.6195 10.429Z" fill="#EE1C5D"/>
<path d="M38.9813 17.7671L41.1637 17.135L41.5923 18.4002L39.4189 19.1113L40.768 20.9467L39.6307 21.7383L38.2105 19.9353L36.8274 21.6907L35.7228 20.8837L37.0719 19.1113L34.8818 18.3531L35.3107 17.0869L37.51 17.7669V15.5842H38.9816L38.9813 17.7671Z" fill="#EE1C5D"/>
<path d="M31.4427 11.1466C31.066 10.3366 30.5422 9.65271 29.8704 9.09595C29.1987 8.53943 28.4097 8.11443 27.5041 7.8217C26.598 7.52896 25.6156 7.38222 24.5576 7.38222C24.1706 7.38222 23.7381 7.40234 23.2599 7.44062C22.7813 7.48038 22.3693 7.54834 22.0233 7.64625L22.2368 3.16367H31.0614V0H18.756L18.3895 11.3367C18.7146 11.1809 19.0864 11.0344 19.5038 10.8973C19.921 10.7611 20.3483 10.6389 20.7862 10.5317C21.2238 10.4242 21.6719 10.3415 22.1299 10.2824C22.588 10.224 23.0202 10.1948 23.4276 10.1948C24.0177 10.1948 24.598 10.2581 25.168 10.3849C25.7379 10.512 26.2519 10.7368 26.71 11.0587C27.168 11.3807 27.5391 11.8059 27.8246 12.333C28.1092 12.8601 28.2519 13.5243 28.2519 14.3252C28.2519 14.9502 28.145 15.5119 27.9312 16.0097C27.7177 16.5071 27.4274 16.9228 27.0614 17.2543C26.6946 17.5868 26.2675 17.8405 25.7785 18.016C25.29 18.1924 24.7711 18.28 24.2212 18.28C23.2445 18.28 22.3992 18.0307 21.687 17.5328C20.9742 17.0349 20.4657 16.3759 20.1601 15.5553L20.1194 15.5698L17.4678 17.9536C18.0041 18.7928 18.6954 19.4949 19.5496 20.0524C20.7911 20.8624 22.3177 21.2682 24.1299 21.2682C25.2087 21.2682 26.2264 21.1018 27.1831 20.7703C28.1397 20.4386 28.9744 19.9599 29.687 19.3344C30.3993 18.7099 30.9642 17.9431 31.3819 17.0349C31.7987 16.1268 32.0074 15.0969 32.0074 13.9441C32.0077 12.8895 31.8195 11.9576 31.4427 11.1466Z" fill="#EE1C5D"/>
</svg>
