<svg width="63" height="34" viewBox="0 0 63 34" fill="none" xmlns="http://www.w3.org/2000/svg">
<path d="M31.5 33.1425C48.897 33.1425 63 25.7233 63 16.5713C63 7.4192 48.897 0 31.5 0C14.103 0 0 7.4192 0 16.5713C0 25.7233 14.103 33.1425 31.5 33.1425Z" fill="url(#paint0_radial_323_5706)"/>
<path d="M31.5002 31.9117C48.2175 31.9117 61.7695 25.0435 61.7695 16.5712C61.7695 8.09889 48.2175 1.23071 31.5002 1.23071C14.783 1.23071 1.23096 8.09889 1.23096 16.5712C1.23096 25.0435 14.783 31.9117 31.5002 31.9117Z" fill="#6280B6"/>
<path d="M37.6312 21.5212L39.1319 13.7947C39.3457 13.1334 39.3809 12.4274 39.2339 11.7482C39.0869 11.0689 38.763 10.4406 38.2949 9.92694C36.9884 8.99921 35.3886 8.57927 33.7949 8.74569H31.2007L31.9454 4.92069C31.959 4.84947 31.9567 4.77613 31.9387 4.70591C31.9206 4.63568 31.8873 4.5703 31.8411 4.51443C31.7949 4.45856 31.737 4.41357 31.6714 4.38267C31.6058 4.35178 31.5342 4.33574 31.4617 4.33569H27.8617C27.7474 4.33566 27.6366 4.37537 27.5483 4.44802C27.4601 4.52068 27.3998 4.62175 27.3779 4.73394L25.7827 12.9374C25.6599 12.0603 25.2873 11.2371 24.7094 10.5659C24.066 9.92156 23.2898 9.42527 22.4348 9.11167C21.5799 8.79808 20.6669 8.67472 19.7594 8.75019H12.8249C12.7106 8.75016 12.5998 8.78987 12.5116 8.86252C12.4233 8.93518 12.3631 9.03625 12.3412 9.14844L9.11467 25.7534C9.1011 25.8247 9.10341 25.898 9.12144 25.9682C9.13946 26.0384 9.17277 26.1038 9.21897 26.1597C9.26517 26.2156 9.32314 26.2606 9.38873 26.2915C9.45432 26.3224 9.52592 26.3384 9.59842 26.3384H13.2052C13.3195 26.3385 13.4302 26.2988 13.5185 26.2261C13.6068 26.1535 13.667 26.0524 13.6889 25.9402L14.4697 21.9239H17.1697C18.3618 21.9558 19.5517 21.804 20.6977 21.4739C21.6639 21.1543 22.5475 20.6249 23.2852 19.9237C23.8897 19.373 24.4057 18.7325 24.8152 18.0247L24.1694 21.3434C24.1558 21.4147 24.1582 21.488 24.1762 21.5582C24.1942 21.6284 24.2275 21.6938 24.2737 21.7497C24.3199 21.8056 24.3779 21.8506 24.4435 21.8815C24.5091 21.9124 24.5807 21.9284 24.6532 21.9284H28.2532C28.3675 21.9285 28.4782 21.8888 28.5665 21.8161C28.6548 21.7435 28.715 21.6424 28.7369 21.5302L30.5077 12.4154H32.9692C34.0177 12.4154 34.3192 12.6247 34.4092 12.7147C34.4992 12.8047 34.6342 13.0859 34.4654 13.9949L33.0367 21.3412C33.0231 21.4124 33.0254 21.4858 33.0434 21.556C33.0615 21.6262 33.0948 21.6916 33.141 21.7475C33.1872 21.8033 33.2451 21.8483 33.3107 21.8792C33.3763 21.9101 33.4479 21.9261 33.5204 21.9262H37.1654C37.2776 21.9218 37.3849 21.8793 37.4696 21.8056C37.5543 21.732 37.6113 21.6316 37.6312 21.5212ZM20.9924 15.1447C20.8824 16.0893 20.434 16.9621 19.7302 17.6017C18.8461 18.1516 17.8094 18.4047 16.7714 18.3239H15.1694L16.3282 12.3592H18.4004C19.9237 12.3592 20.5357 12.6854 20.7832 12.9577C20.972 13.2862 21.0883 13.6514 21.1244 14.0286C21.1605 14.4058 21.1155 14.7863 20.9924 15.1447Z" fill="white"/>
<path d="M52.9787 10.5683C52.3353 9.92387 51.559 9.42759 50.7041 9.11399C49.8492 8.80039 48.9362 8.67703 48.0287 8.7525H41.0739C40.9596 8.75247 40.8489 8.79218 40.7606 8.86483C40.6724 8.93749 40.6121 9.03856 40.5902 9.15075L37.3637 25.7558C37.3501 25.827 37.3524 25.9003 37.3705 25.9705C37.3885 26.0408 37.4218 26.1061 37.468 26.162C37.5142 26.2179 37.5722 26.2629 37.6378 26.2938C37.7033 26.3247 37.7749 26.3407 37.8474 26.3408H41.4654C41.5798 26.3408 41.6905 26.3011 41.7788 26.2284C41.867 26.1558 41.9273 26.0547 41.9492 25.9425L42.7299 21.9263H45.4299C46.6221 21.9581 47.812 21.8063 48.9579 21.4763C49.9242 21.1566 50.8078 20.6272 51.5454 19.926C52.8087 18.7875 53.66 17.2631 53.9664 15.5903C54.2085 14.7345 54.2452 13.8337 54.0736 12.961C53.902 12.0884 53.5268 11.2686 52.9787 10.5683ZM49.2279 15.1448C49.1179 16.0894 48.6695 16.9622 47.9657 17.6018C47.0795 18.1523 46.0402 18.4046 45.0002 18.3218H43.4027L44.5614 12.357H46.6337C48.1569 12.357 48.7689 12.6833 49.0164 12.9555C49.2059 13.2842 49.3228 13.6496 49.3593 14.0272C49.3958 14.4048 49.351 14.7859 49.2279 15.1448Z" fill="white"/>
<path d="M18.4007 11.8642C18.8861 11.803 19.3789 11.8388 19.8504 11.9693C20.322 12.0999 20.763 12.3226 21.1479 12.6247C21.3963 13.0071 21.5547 13.4408 21.6112 13.8933C21.6677 14.3458 21.6208 14.8052 21.4742 15.2369C21.3455 16.3 20.8316 17.279 20.0297 17.9887C19.0625 18.6116 17.9191 18.9038 16.7717 18.8212H14.5712L15.9212 11.8709L18.4007 11.8642ZM9.5874 25.8502H13.2054L14.0627 21.4357H17.1609C18.3013 21.4668 19.4397 21.3218 20.5359 21.0059C21.4356 20.7088 22.2579 20.2154 22.9434 19.5614C24.1299 18.494 24.9291 17.0634 25.2159 15.4934C25.443 14.7127 25.4828 13.8894 25.3323 13.0904C25.1818 12.2914 24.8452 11.539 24.3497 10.8944C23.7521 10.3034 23.0329 9.84987 22.2421 9.56541C21.4513 9.28095 20.608 9.17243 19.7709 9.24741H12.8252L9.5874 25.8502Z" fill="#000004"/>
<path d="M27.8706 4.83081H31.4706L30.5998 9.24531H33.7971C35.2655 9.09162 36.7408 9.46483 37.9596 10.2983C38.3629 10.7568 38.6387 11.3133 38.7591 11.912C38.8796 12.5107 38.8405 13.1305 38.6458 13.7093L37.1451 21.4358H33.5023L34.9311 14.0896C35.0306 13.8092 35.0661 13.5101 35.0349 13.2142C35.0038 12.9183 34.9068 12.6331 34.7511 12.3796C34.23 12.0063 33.5864 11.8454 32.9511 11.9296H30.0823L28.2328 21.4426H24.6328L27.8706 4.83081Z" fill="#000004"/>
<path d="M46.6355 11.8642C47.121 11.803 47.6137 11.8388 48.0853 11.9693C48.5568 12.0999 48.9978 12.3226 49.3828 12.6247C49.6311 13.0071 49.7896 13.4408 49.8461 13.8933C49.9026 14.3458 49.8557 14.8052 49.709 15.2369C49.5804 16.3 49.0665 17.279 48.2645 17.9887C47.2954 18.6131 46.1495 18.9053 44.9998 18.8212H42.7993L44.1493 11.8709L46.6355 11.8642ZM37.8223 25.8502H41.4403L42.2975 21.4357H45.3958C46.5362 21.4668 47.6746 21.3218 48.7708 21.0059C49.6704 20.7088 50.4928 20.2154 51.1783 19.5614C52.3648 18.494 53.164 17.0634 53.4508 15.4934C53.6778 14.7127 53.7177 13.8894 53.5672 13.0904C53.4167 12.2914 53.08 11.539 52.5845 10.8944C51.987 10.3034 51.2678 9.84987 50.477 9.56541C49.6862 9.28095 48.8428 9.17243 48.0058 9.24741H41.0488L37.8223 25.8502Z" fill="#000004"/>
<defs>
<radialGradient id="paint0_radial_323_5706" cx="0" cy="0" r="1" gradientUnits="userSpaceOnUse" gradientTransform="translate(18.9135 5.8275) scale(41.364 41.364)">
<stop stop-color="white"/>
<stop offset="0.5" stop-color="#4C6B96"/>
<stop offset="1" stop-color="#231F20"/>
</radialGradient>
</defs>
</svg>
