<svg width="55" height="53" viewBox="0 0 55 53" fill="none" xmlns="http://www.w3.org/2000/svg">
<path d="M9.6259 0H44.7291C50.047 0 54.355 4.30801 54.355 9.62591V43.3741C54.355 48.692 50.047 53 44.7291 53H9.6259C4.30801 53 0 48.692 0 43.3741V9.62591C0 4.30801 4.30801 0 9.6259 0Z" fill="#001E36"/>
<path d="M12.2334 37.1614V13.8572C12.2334 13.7038 12.2973 13.6143 12.4635 13.6143C12.847 13.6143 13.2049 13.6143 13.7291 13.5888C14.2787 13.5632 14.8412 13.5632 15.4548 13.5376C16.0684 13.5121 16.7204 13.5121 17.4235 13.4865C18.1265 13.4609 18.8041 13.4609 19.4816 13.4609C21.3352 13.4609 22.882 13.691 24.1475 14.164C25.2853 14.5475 26.3207 15.1867 27.1772 16.0176C27.9059 16.7463 28.4683 17.6283 28.8263 18.5999C29.1714 19.5458 29.3504 20.5302 29.3504 21.5401C29.3504 23.4831 28.903 25.0938 27.9953 26.3594C27.0877 27.625 25.8222 28.5837 24.3521 29.1206C22.8181 29.6831 21.1179 29.8876 19.2515 29.8876C18.7018 29.8876 18.3439 29.8876 18.1138 29.862C17.8837 29.8365 17.5641 29.8365 17.1422 29.8365V37.1102C17.1678 37.2636 17.0527 37.4043 16.8993 37.4298C16.8738 37.4298 16.8482 37.4298 16.8099 37.4298H12.5018C12.3229 37.4554 12.2334 37.3659 12.2334 37.1614ZM17.1678 17.9863V25.5924C17.4874 25.618 17.7814 25.6435 18.0498 25.6435H19.2515C20.1335 25.6435 21.0156 25.5029 21.8593 25.2345C22.588 25.0299 23.2143 24.5953 23.7129 24.0328C24.1859 23.4703 24.416 22.6906 24.416 21.7062C24.4416 21.0031 24.2626 20.3001 23.8919 19.6865C23.5084 19.0984 22.9587 18.651 22.3067 18.3953C21.463 18.0502 20.5682 17.9223 19.635 17.9479C19.047 17.9479 18.5228 17.9479 18.101 17.9735C17.6408 17.9351 17.3212 17.9607 17.1678 17.9863Z" fill="#31A8FF"/>
<path d="M43.4884 24.2118C42.8109 23.8539 42.0822 23.5982 41.3152 23.4448C40.4715 23.2659 39.6406 23.1508 38.7841 23.1508C38.3367 23.1253 37.8509 23.202 37.429 23.3042C37.135 23.3681 36.8794 23.5343 36.726 23.7516C36.6109 23.9306 36.547 24.1607 36.547 24.3652C36.547 24.5698 36.6365 24.7743 36.7771 24.9533C36.9816 25.1962 37.2501 25.4007 37.5441 25.5669C38.0682 25.8353 38.6051 26.091 39.1548 26.3083C40.382 26.7174 41.5581 27.2799 42.6447 27.9574C43.3861 28.4304 43.9997 29.0695 44.4344 29.8365C44.7923 30.5652 44.984 31.3578 44.9585 32.1631C44.984 33.2241 44.6645 34.2979 44.0764 35.18C43.4372 36.0876 42.5552 36.7907 41.5453 37.1998C40.4331 37.6728 39.0781 37.9284 37.4418 37.9284C36.4064 37.9284 35.3837 37.839 34.361 37.6344C33.5685 37.4938 32.7759 37.2509 32.0472 36.9058C31.8938 36.8163 31.7788 36.6629 31.8043 36.4711V32.5338C31.8043 32.4699 31.8299 32.3804 31.8938 32.3293C31.9577 32.2782 32.0344 32.3037 32.0984 32.3549C32.9804 32.879 33.9136 33.2369 34.9107 33.467C35.7672 33.6971 36.6748 33.8122 37.5824 33.8122C38.4389 33.8122 39.0525 33.6971 39.4616 33.4926C39.8195 33.3392 40.0752 32.9429 40.0752 32.5466C40.0752 32.227 39.8962 31.933 39.5255 31.639C39.1676 31.345 38.4134 30.9998 37.3012 30.578C36.1507 30.1689 35.0769 29.632 34.0798 28.9417C33.3767 28.4431 32.7887 27.7912 32.354 27.0114C31.9961 26.2828 31.8043 25.4902 31.8299 24.6976C31.8299 23.7261 32.0984 22.7929 32.5969 21.962C33.1594 21.0543 34.0031 20.3257 34.9746 19.8783C36.0357 19.3286 37.3779 19.0857 38.9886 19.0857C39.9218 19.0857 40.8678 19.1496 41.801 19.2902C42.4785 19.3797 43.1432 19.5587 43.744 19.8143C43.8335 19.8399 43.923 19.9294 43.9741 20.0189C43.9997 20.1084 44.0253 20.1978 44.0253 20.2873V23.9817C44.0253 24.0712 43.9741 24.1607 43.9102 24.2118C43.6929 24.263 43.5779 24.263 43.4884 24.2118Z" fill="#31A8FF"/>
</svg>
