<svg width="47" height="47" viewBox="0 0 47 47" fill="none" xmlns="http://www.w3.org/2000/svg">
<path d="M23.5 1.74121C35.5173 1.74121 45.2588 11.4827 45.2588 23.5C45.2588 35.5173 35.5173 45.2588 23.5 45.2588C11.4827 45.2588 1.74121 35.5173 1.74121 23.5C1.74121 11.4827 11.4827 1.74121 23.5 1.74121Z" fill="#0A0D14" stroke="#42A5F5" stroke-width="3.48148"/>
<path d="M26.7759 23.5003C26.7759 23.9304 26.6912 24.3563 26.5265 24.7537C26.3619 25.151 26.1206 25.5121 25.8164 25.8162C25.5121 26.1202 25.151 26.3614 24.7536 26.5259C24.3561 26.6904 23.9302 26.7749 23.5 26.7747C22.6316 26.7747 21.7987 26.4297 21.1847 25.8157C20.5706 25.2016 20.2256 24.3687 20.2256 23.5003C20.2256 22.6316 20.5706 21.7986 21.1849 21.1844C21.7991 20.5702 22.6321 20.2251 23.5008 20.2251C24.3694 20.2251 25.2024 20.5702 25.8167 21.1844C26.4309 21.7986 26.7759 22.6316 26.7759 23.5003Z" fill="#FDFDFD"/>
<path d="M38.0394 15.1052C37.3268 13.88 36.462 12.75 35.4656 11.7421L31.6806 13.927C30.513 12.9301 29.1731 12.1548 27.727 11.6392C26.4631 12.9072 25.4279 14.384 24.667 16.0046C29.2701 15.8519 33.7652 17.4189 37.2758 20.4001L39.658 19.0246C39.2856 17.6559 38.7412 16.3399 38.0379 15.1081L38.0394 15.1052Z" fill="#FDFDFD"/>
<path d="M38.0407 31.8922C38.7454 30.6629 39.2917 29.3494 39.6665 27.9829L35.8801 25.7966C36.1615 24.2845 36.1639 22.7338 35.8873 21.2209C34.1572 20.7602 32.3606 20.602 30.5767 20.7533C33.0145 24.6647 33.9071 29.3442 33.0804 33.8783L35.4626 35.2539C36.4605 34.2467 37.3267 33.1171 38.0407 31.8922Z" fill="#42A5F5"/>
<path d="M23.4999 40.287C24.9172 40.283 26.3283 40.0994 27.6995 39.7408V35.3682C29.1474 34.8564 30.4897 34.0845 31.6603 33.0904C31.1941 31.3617 30.4327 29.7266 29.4096 28.2573C27.2405 32.3203 23.636 35.4298 19.2988 36.9797V39.7308C20.6701 40.0929 22.0816 40.2798 23.4999 40.287Z" fill="#FDFDFD"/>
<path d="M8.96379 31.8935C9.67632 33.1187 10.5411 34.2487 11.5376 35.2566L15.324 33.0703C16.4916 34.0672 17.8314 34.8426 19.2776 35.3581C20.5415 34.0901 21.5767 32.6132 22.3376 30.9927C17.7344 31.1454 13.2394 29.5784 9.72878 26.5972L7.34229 27.977C7.71514 29.3458 8.25998 30.6618 8.96379 31.8935Z" fill="#42A5F5"/>
<path d="M8.96236 15.1068C8.2596 16.3364 7.71526 17.6499 7.34229 19.0161L11.1286 21.2024C10.8473 22.7145 10.8448 24.2652 11.1215 25.7781C12.8515 26.2388 14.6482 26.3969 16.4321 26.2457C13.9938 22.3345 13.1007 17.655 13.9269 13.1207L11.5447 11.7451C10.5454 12.7521 9.67766 13.8816 8.96236 15.1068Z" fill="#FDFDFD"/>
<path d="M23.5002 6.71143C22.0829 6.7155 20.6718 6.89903 19.3006 7.25765V11.6317C17.8527 12.1434 16.5104 12.9154 15.3398 13.9095C15.806 15.6382 16.5674 17.2733 17.5905 18.7426C19.7596 14.6796 23.3641 11.5701 27.7013 10.0202V7.26765C26.3301 6.90554 24.9185 6.71865 23.5002 6.71143Z" fill="#42A5F5"/>
</svg>
