<svg width="59" height="51" viewBox="0 0 59 51" fill="none" xmlns="http://www.w3.org/2000/svg">
<path d="M29.5 30.5506C32.3248 30.5506 34.6148 28.2606 34.6148 25.4358C34.6148 22.611 32.3248 20.321 29.5 20.321C26.6752 20.321 24.3853 22.611 24.3853 25.4358C24.3853 28.2606 26.6752 30.5506 29.5 30.5506Z" fill="#00D8FF"/>
<path d="M29.5002 37.1627C23.3525 37.3115 17.2202 36.4828 11.3325 34.7077C8.6127 33.8455 6.076 32.4873 3.85059 30.7018C3.00139 30.0918 2.29421 29.3053 1.77755 28.3963C1.2609 27.4873 0.947012 26.4773 0.857422 25.4356C0.857422 22.0537 4.5728 18.7393 10.7965 16.5706C16.8416 14.649 23.1577 13.7177 29.5002 13.8128C35.758 13.7253 41.9895 14.6398 47.9584 16.5215C50.5778 17.3566 53.0284 18.6491 55.1968 20.3392C56.0315 20.9207 56.7281 21.6787 57.2372 22.5594C57.7463 23.4402 58.0556 24.4221 58.143 25.4356C58.143 28.9505 53.9898 32.5124 47.2996 34.7261C41.5259 36.4433 35.523 37.2651 29.5002 37.1627ZM29.5002 16.2597C23.4322 16.1786 17.3901 17.0639 11.6005 18.8825C5.87195 20.8814 3.30433 23.6147 3.30433 25.4294C3.30433 27.3281 6.06427 30.313 12.1243 32.3855C17.7568 34.0752 23.6215 34.8617 29.5002 34.7158C35.2623 34.8189 41.0062 34.0392 46.5324 32.404C52.8236 30.3192 55.6879 27.3301 55.6879 25.4356C55.5846 24.7854 55.3477 24.1638 54.992 23.6099C54.6364 23.0559 54.1697 22.5818 53.6215 22.2174C51.6815 20.718 49.4922 19.5725 47.1544 18.8334C41.4443 17.0407 35.4844 16.1718 29.5002 16.2597Z" fill="#00D8FF"/>
<path d="M17.8794 50.9462C16.925 50.9681 15.9818 50.7366 15.1461 50.2752C12.2163 48.5852 11.2016 43.7119 12.4312 37.2366C13.7869 31.0397 16.1359 25.1029 19.3873 19.656C22.4372 14.1916 26.3417 9.25035 30.9528 5.01958C32.9847 3.16743 35.3287 1.68995 37.8762 0.655652C38.7976 0.22384 39.8027 0 40.8202 0C41.8378 0 42.8429 0.22384 43.7643 0.655652C46.8107 2.41104 47.8193 7.7877 46.3974 14.6886C44.9998 20.5492 42.7118 26.1609 39.6131 31.328C36.6706 36.7279 32.889 41.6261 28.4097 45.8396C26.304 47.7644 23.8603 49.2828 21.202 50.3181C20.1377 50.7131 19.0144 50.9255 17.8794 50.9462ZM21.5068 20.8713C18.4054 26.087 16.154 31.7631 14.8372 37.6867C13.7058 43.6505 14.7921 47.237 16.3716 48.1495C18.0083 49.0967 21.9815 48.1986 26.8057 43.984C31.0817 39.9473 34.6912 35.2586 37.4997 30.0922C40.4682 25.1524 42.663 19.7873 44.0078 14.1832C45.3458 7.68745 44.1898 3.7102 42.549 2.76499C41.9341 2.52935 41.2769 2.42387 40.619 2.45521C39.9612 2.48656 39.3171 2.65404 38.7273 2.94707C36.4597 3.88276 34.3751 5.21114 32.5691 6.87113C28.1635 10.9237 24.4339 15.6541 21.5211 20.8836L21.5068 20.8713Z" fill="#00D8FF"/>
<path d="M41.115 50.9727C38.3428 50.9727 34.8217 49.295 31.1555 46.1423C26.4636 41.873 22.493 36.8731 19.3976 31.336C16.187 25.9642 13.8566 20.1133 12.4947 14.0051C11.9041 11.3178 11.7946 8.54701 12.1715 5.82146C12.2586 4.81039 12.5664 3.83074 13.0734 2.95159C13.5803 2.07244 14.2739 1.3152 15.1053 0.733281C18.1476 -1.02825 23.3094 0.782383 28.5776 5.45934C32.9571 9.59655 36.6761 14.381 39.6051 19.6457C42.8137 24.8921 45.1685 30.6149 46.5816 36.6002C47.1977 39.3861 47.2927 42.262 46.8619 45.0825C46.7594 46.1227 46.4332 47.1284 45.9056 48.0306C45.378 48.9329 44.6616 49.7104 43.8053 50.3098C42.9832 50.7655 42.0547 50.9943 41.115 50.9727ZM21.5151 30.1044C24.4846 35.396 28.2775 40.1812 32.7513 44.2805C37.3525 48.2394 41.0024 49.0905 42.5717 48.1677C44.2084 47.2164 45.4155 43.3333 44.1716 37.0503C42.8087 31.3359 40.5501 25.8733 37.4794 20.8651C34.6843 15.8262 31.1345 11.2449 26.9532 7.2802C21.9939 2.8774 17.9716 1.89331 16.3328 2.84262C15.8221 3.25769 15.4029 3.77417 15.1018 4.35943C14.8007 4.94469 14.6243 5.58602 14.5836 6.24292C14.2583 8.67364 14.3643 11.1427 14.8966 13.5366C16.2066 19.378 18.4416 24.9725 21.5172 30.1085L21.5151 30.1044Z" fill="#00D8FF"/>
</svg>
