<svg width="52" height="52" viewBox="0 0 52 52" fill="none" xmlns="http://www.w3.org/2000/svg">
<rect width="52" height="52" rx="11" fill="url(#paint0_linear_323_6382)"/>
<ellipse cx="25.5" cy="14" rx="18.5" ry="6" fill="#D9D9D9"/>
<path fill-rule="evenodd" clip-rule="evenodd" d="M22.7853 10.3284C23.2768 10.4306 23.7816 10.5042 24.2997 10.5493C26.4269 10.6968 28.5512 10.8756 30.6725 11.0857C31.1957 11.1716 31.7215 11.2873 32.2499 11.4328C32.9809 11.5917 33.6223 11.9178 34.1744 12.4109C34.4503 12.9058 34.3557 13.316 33.8904 13.6415C33.3563 13.9388 32.7884 14.1492 32.1868 14.2726C30.7638 14.5026 29.3337 14.5552 27.8962 14.4304C27.8855 14.5138 27.9065 14.5874 27.9593 14.6512C28.934 14.9634 29.9226 15.2263 30.9249 15.4401C30.7691 15.4822 30.6219 15.5243 30.4832 15.5663C29.2588 15.7283 28.0389 15.9176 26.8236 16.1342C26.8025 16.1027 26.7815 16.0711 26.7605 16.0396C26.9822 15.5663 27.0979 15.072 27.1075 14.5566C27.0617 14.5213 27.0092 14.5003 26.9497 14.4935C25.8207 15.2169 24.5798 15.606 23.227 15.6609C22.6385 15.6925 22.0496 15.703 21.4603 15.6925C20.4783 15.6551 19.5318 15.4552 18.6209 15.093C17.4375 14.4998 17.3113 13.7426 18.2423 12.8211C19.2304 12.1376 20.24 11.4855 21.271 10.8648C21.5081 10.6701 21.6974 10.4387 21.8389 10.1707C22.144 10.2517 22.4595 10.3043 22.7853 10.3284Z" fill="#010101"/>
<path fill-rule="evenodd" clip-rule="evenodd" d="M43.9859 20.6146C43.9346 20.9487 43.8294 21.2642 43.6704 21.5612C42.8771 22.5531 41.8885 23.2998 40.7049 23.8015C40.2893 23.9785 39.8686 24.1363 39.4429 24.2748C39.2289 24.1967 39.2079 24.081 39.3798 23.9277C39.3621 23.7141 39.3621 23.4827 39.3798 23.2336C39.3377 23.1915 39.2957 23.1494 39.2536 23.1074C39.2799 22.9011 39.322 22.6802 39.3798 22.4447C39.378 22.3482 39.3359 22.2746 39.2536 22.2239C39.3772 22.1176 39.3772 21.9914 39.2536 21.8452C39.2803 21.6835 39.3224 21.5047 39.3798 21.3088C39.3467 21.2651 39.3046 21.2336 39.2536 21.2141C39.3046 21.1947 39.3467 21.1632 39.3798 21.1195C39.3416 20.9801 39.2995 20.8433 39.2536 20.7093C39.3807 20.6541 39.3807 20.5699 39.2536 20.4569C39.4213 20.3063 39.4003 20.1801 39.1905 20.0782C39.3372 19.9438 39.3792 19.786 39.3167 19.6049C39.2567 19.6571 39.1936 19.6675 39.1274 19.6365C39.3396 19.388 39.3817 19.125 39.2536 18.8476C39.3502 18.7026 39.3291 18.5869 39.1905 18.5006C39.2418 18.4176 39.3049 18.344 39.3798 18.2797C39.3784 18.1208 39.3574 17.9525 39.3167 17.7748C39.827 17.5935 40.3318 17.3936 40.8311 17.1753C41.8667 16.7263 42.7605 16.0847 43.5127 15.2506C43.7109 14.9591 43.8582 14.6436 43.9544 14.304C43.9859 16.4074 43.9965 18.511 43.9859 20.6146Z" fill="#FCFBFB"/>
<path d="M25.9402 20.3939C25.8802 20.201 25.8592 20.0012 25.8771 19.7944L22.6592 19.6682C22.8064 19.7076 22.9537 19.7602 23.1009 19.826L22.9747 19.8891L23.1009 20.3308C22.9437 20.3703 22.9437 20.4229 23.1009 20.4886C23.0316 20.8114 23.0316 21.1585 23.1009 21.5299C22.9601 21.6857 22.9601 21.833 23.1009 21.9716C23.0455 22.2189 23.0455 22.4503 23.1009 22.6658L22.9747 22.7289C23.0807 22.8516 23.1228 22.9778 23.1009 23.1075C22.9738 23.2206 22.9738 23.3047 23.1009 23.36C22.9326 23.4021 22.9326 23.4441 23.1009 23.4862C23.0241 24.0888 23.0241 24.7093 23.1009 25.3478C23.0677 25.3915 23.0256 25.423 22.9747 25.4425C23.0588 25.5477 23.0588 25.6528 22.9747 25.758C23.0287 25.8015 23.0708 25.8541 23.1009 25.9158C22.9444 26.1417 23.0075 26.2889 23.2902 26.3575H25.8771C25.8664 26.2741 25.8874 26.2005 25.9402 26.1367C25.8862 26.0932 25.8441 26.0406 25.814 25.9789C25.8887 25.7076 25.8887 25.4342 25.814 25.1585L25.9402 25.0954C25.9149 24.9733 25.8518 24.8787 25.7509 24.8114C25.927 24.6899 25.948 24.5637 25.814 24.4328C25.8368 24.3285 25.8578 24.2234 25.8771 24.1172L25.7509 24.0541C25.8646 24.0341 25.8856 23.992 25.814 23.9279C25.9823 23.6755 25.9823 23.4231 25.814 23.1706C25.8981 23.0444 25.8981 22.9182 25.814 22.792L25.9402 22.7289C25.8132 22.6737 25.8132 22.5895 25.9402 22.4765C25.8881 22.357 25.8881 22.2203 25.9402 22.0663C25.8156 21.985 25.8156 21.8798 25.9402 21.7507L25.814 21.6876C25.8481 21.6089 25.8902 21.5352 25.9402 21.4668V21.2143C25.772 21.1722 25.772 21.1302 25.9402 21.0881C25.8954 20.9117 25.8533 20.7328 25.814 20.5517C25.8441 20.49 25.8862 20.4374 25.9402 20.3939Z" fill="#EAEAEA"/>
<path fill-rule="evenodd" clip-rule="evenodd" d="M7.01128 14.178C7.22089 14.8585 7.59947 15.437 8.14703 15.9134C8.81358 16.4255 9.52866 16.8567 10.2923 17.2071C10.3513 17.3561 10.4354 17.4929 10.5447 17.6173C10.5026 17.7014 10.4606 17.7856 10.4185 17.8697C10.4606 17.8907 10.5026 17.9118 10.5447 17.9328C10.4606 18.017 10.3764 18.1011 10.2923 18.1853C10.3764 18.2063 10.4606 18.2274 10.5447 18.2484C10.4012 18.5391 10.4012 18.8126 10.5447 19.0688C10.5026 19.1108 10.4606 19.1529 10.4185 19.195C10.5026 19.2791 10.5026 19.3633 10.4185 19.4474C10.5694 19.491 10.5694 19.5541 10.4185 19.6367C10.5142 19.8282 10.4932 20.007 10.3554 20.1731C10.4035 20.1991 10.4666 20.2095 10.5447 20.2047C10.4606 20.2678 10.4606 20.3309 10.5447 20.394C10.4925 20.4517 10.4294 20.4938 10.3554 20.5202C10.4064 20.5396 10.4485 20.5712 10.4816 20.6149C10.461 21.0767 10.44 21.55 10.4185 22.0348C10.5868 22.1189 10.5868 22.2031 10.4185 22.2872C10.3831 22.386 10.4252 22.4701 10.5447 22.5396C10.5026 22.5817 10.4606 22.6237 10.4185 22.6658C10.4606 22.8131 10.5026 22.9604 10.5447 23.1076C10.3997 23.2676 10.3997 23.4359 10.5447 23.6124C10.4919 23.6762 10.4709 23.7499 10.4816 23.8333C9.27583 23.383 8.26628 22.6679 7.45296 21.6877C7.26449 21.3736 7.12782 21.037 7.04283 20.678C7.01128 19.5422 7.00074 18.4063 7.01128 17.2702C7.01128 16.2395 7.01128 15.2087 7.01128 14.178Z" fill="#BDBDBD"/>
<path fill-rule="evenodd" clip-rule="evenodd" d="M10.2925 17.2073C11.1149 17.5726 11.9562 17.8881 12.8164 18.1539C12.8218 18.2167 12.8007 18.2693 12.7533 18.3116C12.8164 18.4589 12.8795 18.6062 12.9426 18.7534C12.9139 18.8993 12.8508 19.0255 12.7533 19.132C12.8593 19.1539 12.9224 19.217 12.9426 19.3214C12.9139 19.4742 12.9034 19.632 12.911 19.7947C12.8795 19.8683 12.8269 19.9209 12.7533 19.9524C12.9793 19.99 13.0004 20.0742 12.8164 20.2048C12.8585 20.2259 12.9005 20.2469 12.9426 20.268C12.939 20.4801 12.939 20.6694 12.9426 20.8359C12.7854 20.8754 12.7854 20.928 12.9426 20.9937C12.8706 21.0521 12.8706 21.1047 12.9426 21.1514C12.9005 21.1725 12.8585 21.1935 12.8164 21.2146C12.8928 21.2848 12.8928 21.3584 12.8164 21.4354C12.8741 21.4877 12.9161 21.5508 12.9426 21.6248C12.8704 21.9254 12.8704 22.2094 12.9426 22.4767C12.8473 22.5823 12.8053 22.6875 12.8164 22.7922C12.8673 22.8117 12.9094 22.8432 12.9426 22.8869C12.8585 22.95 12.8585 23.0131 12.9426 23.0762C12.9094 23.1199 12.8673 23.1514 12.8164 23.1709C12.8585 23.2761 12.9005 23.3812 12.9426 23.4864C12.9215 23.6336 12.9005 23.7809 12.8795 23.9281C12.9215 23.9492 12.9636 23.9702 13.0057 23.9913C12.8862 24.0593 12.8651 24.1435 12.9426 24.2437C12.9005 24.2647 12.8585 24.2858 12.8164 24.3068C13.0154 24.4171 13.0575 24.5749 12.9426 24.7801C12.0836 24.5501 11.2634 24.2345 10.4818 23.8335C10.471 23.7501 10.4921 23.6764 10.5449 23.6126C10.3998 23.436 10.3998 23.2677 10.5449 23.1078C10.5028 22.9605 10.4608 22.8132 10.4187 22.666C10.4608 22.6239 10.5028 22.5819 10.5449 22.5398C10.4254 22.4703 10.3833 22.3862 10.4187 22.2874C10.587 22.2033 10.587 22.1191 10.4187 22.0349C10.4401 21.5502 10.4611 21.0769 10.4818 20.615C10.4486 20.5714 10.4066 20.5398 10.3556 20.5204C10.4295 20.4939 10.4926 20.4519 10.5449 20.3942C10.4608 20.3311 10.4608 20.268 10.5449 20.2048C10.4668 20.2097 10.4037 20.1992 10.3556 20.1733C10.4933 20.0071 10.5143 19.8284 10.4187 19.6369C10.5695 19.5543 10.5695 19.4912 10.4187 19.4476C10.5028 19.3634 10.5028 19.2793 10.4187 19.1951C10.4608 19.153 10.5028 19.111 10.5449 19.0689C10.4013 18.8128 10.4013 18.5393 10.5449 18.2485C10.4608 18.2275 10.3766 18.2064 10.2925 18.1854C10.3766 18.1013 10.4608 18.0171 10.5449 17.933C10.5028 17.912 10.4608 17.8909 10.4187 17.8699C10.4608 17.7858 10.5028 17.7016 10.5449 17.6175C10.4356 17.493 10.3515 17.3563 10.2925 17.2073Z" fill="#C4C4C4"/>
<path fill-rule="evenodd" clip-rule="evenodd" d="M39.3169 17.7749C39.3576 17.9526 39.3786 18.1209 39.38 18.2798C39.3051 18.3441 39.242 18.4177 39.1907 18.5006C39.3293 18.587 39.3504 18.7027 39.2538 18.8477C39.3819 19.1251 39.3398 19.388 39.1276 19.6366C39.1938 19.6676 39.2569 19.6571 39.3169 19.605C39.3794 19.7861 39.3374 19.9439 39.1907 20.0783C39.4005 20.1802 39.4215 20.3064 39.2538 20.4569C39.3808 20.57 39.3808 20.6541 39.2538 20.7094C39.2997 20.8434 39.3418 20.9802 39.38 21.1196C39.3469 21.1632 39.3048 21.1948 39.2538 21.2142C39.3048 21.2337 39.3469 21.2652 39.38 21.3089C39.3226 21.5048 39.2805 21.6835 39.2538 21.8453C39.3774 21.9914 39.3774 22.1177 39.2538 22.2239C39.3361 22.2747 39.3782 22.3483 39.38 22.4448C39.3222 22.6803 39.2801 22.9012 39.2538 23.1074C39.2959 23.1495 39.3379 23.1915 39.38 23.2336C39.3623 23.4828 39.3623 23.7141 39.38 23.9278C39.2081 24.0811 39.2291 24.1968 39.4431 24.2749C37.8178 24.9128 36.1352 25.3545 34.3953 25.6001C34.349 25.5132 34.3069 25.4185 34.2692 25.3162C34.3112 25.2951 34.3533 25.2741 34.3953 25.2531C34.3112 25.211 34.3112 25.1689 34.3953 25.1268C34.3322 25.1058 34.2692 25.0847 34.2061 25.0637C34.4509 24.9417 34.493 24.784 34.3322 24.5904C34.417 24.4053 34.3749 24.2475 34.2061 24.1171C34.2692 24.0961 34.3322 24.075 34.3953 24.054C34.3222 23.7581 34.3222 23.4847 34.3953 23.2336C34.3533 23.1915 34.3112 23.1495 34.2692 23.1074C34.271 22.9149 34.3131 22.7151 34.3953 22.5079C34.3658 22.4048 34.3027 22.3312 34.2061 22.287C34.3743 22.1818 34.3743 22.0767 34.2061 21.9715C34.3389 21.8873 34.3809 21.7821 34.3322 21.656C34.4894 21.6165 34.4894 21.5639 34.3322 21.4982C34.3362 21.3531 34.3572 21.2058 34.3953 21.0565C34.3935 20.96 34.3514 20.8863 34.2692 20.8356C34.3112 20.8146 34.3533 20.7935 34.3953 20.7725C34.3285 20.5066 34.3285 20.2331 34.3953 19.9521C34.379 19.8725 34.3369 19.8094 34.2692 19.7628C34.4252 19.6413 34.4252 19.5256 34.2692 19.4157C34.3023 19.372 34.3444 19.3405 34.3953 19.321C34.3377 19.2318 34.3377 19.1371 34.3953 19.037C35.5008 18.8411 36.5945 18.5887 37.6764 18.2798C38.2338 18.1484 38.7807 17.9801 39.3169 17.7749Z" fill="#F6F6F6"/>
<path fill-rule="evenodd" clip-rule="evenodd" d="M12.8165 18.1538C13.7131 18.3963 14.6174 18.6066 15.5297 18.7849C15.5744 18.8419 15.6375 18.8629 15.719 18.848C15.8107 18.9316 15.7896 18.9842 15.6559 19.0058C15.7146 19.0811 15.7567 19.1652 15.7821 19.2582C15.7453 19.5685 15.7453 19.863 15.7821 20.1417C15.74 20.1627 15.698 20.1838 15.6559 20.2048C15.74 20.2469 15.74 20.2889 15.6559 20.331C15.7069 20.3504 15.749 20.382 15.7821 20.4257C15.7241 20.5671 15.7241 20.7249 15.7821 20.899C15.766 20.9826 15.7239 21.0457 15.6559 21.0883C15.74 21.2145 15.74 21.3407 15.6559 21.4669C15.8242 21.509 15.8242 21.551 15.6559 21.5931C15.698 21.6983 15.74 21.8035 15.7821 21.9087C15.7642 22.1044 15.7642 22.2937 15.7821 22.4766C15.74 22.4976 15.698 22.5187 15.6559 22.5397C15.6785 22.6816 15.7206 22.8394 15.7821 23.013C15.7172 23.0002 15.6541 23.0317 15.5928 23.1077C15.7391 23.2366 15.7917 23.3944 15.7505 23.581C15.7295 23.56 15.7084 23.5389 15.6874 23.5179C15.6638 23.5757 15.6323 23.6283 15.5928 23.6757C15.6709 23.6708 15.734 23.6813 15.7821 23.7072C15.8204 23.845 15.7784 23.9712 15.6559 24.0858C15.6811 24.2372 15.6811 24.3949 15.6559 24.5591C15.698 24.6433 15.74 24.7275 15.7821 24.8116C15.74 24.8326 15.698 24.8537 15.6559 24.8747C15.6205 24.9735 15.6626 25.0576 15.7821 25.1271C15.8007 25.2353 15.7797 25.3509 15.719 25.4742C14.7811 25.2908 13.8557 25.0595 12.9427 24.78C13.0576 24.5748 13.0155 24.417 12.8165 24.3067C12.8586 24.2857 12.9006 24.2646 12.9427 24.2436C12.8653 24.1435 12.8863 24.0593 13.0058 23.9912C12.9637 23.9702 12.9217 23.9491 12.8796 23.9281C12.9006 23.7809 12.9217 23.6336 12.9427 23.4863C12.9006 23.3811 12.8586 23.276 12.8165 23.1708C12.8675 23.1514 12.9096 23.1198 12.9427 23.0761C12.8586 23.013 12.8586 22.9499 12.9427 22.8868C12.9096 22.8431 12.8675 22.8116 12.8165 22.7922C12.8054 22.6874 12.8475 22.5823 12.9427 22.4766C12.8705 22.2093 12.8705 21.9253 12.9427 21.6247C12.9163 21.5507 12.8742 21.4876 12.8165 21.4354C12.8929 21.3584 12.8929 21.2847 12.8165 21.2145C12.8586 21.1935 12.9006 21.1724 12.9427 21.1514C12.8707 21.1046 12.8707 21.052 12.9427 20.9936C12.7855 20.9279 12.7855 20.8754 12.9427 20.8358C12.9391 20.6694 12.9391 20.4801 12.9427 20.2679C12.9006 20.2469 12.8586 20.2258 12.8165 20.2048C13.0005 20.0741 12.9794 19.9899 12.7534 19.9524C12.8271 19.9208 12.8796 19.8682 12.9112 19.7946C12.9035 19.6319 12.9141 19.4741 12.9427 19.3213C12.9225 19.217 12.8594 19.1539 12.7534 19.132C12.8509 19.0254 12.914 18.8992 12.9427 18.7533C12.8796 18.6061 12.8165 18.4588 12.7534 18.3116C12.8009 18.2692 12.8219 18.2167 12.8165 18.1538Z" fill="#CACACA"/>
<path fill-rule="evenodd" clip-rule="evenodd" d="M15.719 18.8479C16.5606 18.9953 17.4019 19.1425 18.2429 19.2896C18.0862 19.3868 18.0862 19.4814 18.2429 19.5736C18.1021 19.7123 18.1021 19.8595 18.2429 20.0154C18.092 20.059 18.092 20.1221 18.2429 20.2047C18.2073 20.4006 18.2073 20.59 18.2429 20.7727C18.0857 20.8122 18.0857 20.8647 18.2429 20.9304C18.2274 21.0721 18.2274 21.2193 18.2429 21.3722C18.2097 21.4158 18.1676 21.4474 18.1167 21.4668C18.1444 21.6033 18.1654 21.74 18.1798 21.877C18.1466 21.9207 18.1045 21.9522 18.0536 21.9717C18.2115 22.0694 18.2115 22.1746 18.0536 22.2872C18.1045 22.3067 18.1466 22.3382 18.1798 22.3819C18.141 22.709 18.12 23.035 18.1167 23.36C18.2849 23.4442 18.2849 23.5283 18.1167 23.6125C18.1486 23.7415 18.1696 23.8677 18.1798 23.9911C18.1542 24.0507 18.1121 24.0928 18.0536 24.1173C18.0956 24.1594 18.1377 24.2014 18.1798 24.2435C18.1898 24.4053 18.1687 24.5736 18.1167 24.7484C18.2622 24.8637 18.2412 24.9689 18.0536 25.0639C18.1121 25.0884 18.1542 25.1305 18.1798 25.1901C18.1951 25.4101 18.1951 25.6309 18.1798 25.8528C18.0956 25.8528 18.0115 25.8528 17.9274 25.8528C17.1814 25.7727 16.4452 25.6465 15.719 25.4741C15.7797 25.3509 15.8007 25.2352 15.7821 25.127C15.6626 25.0575 15.6205 24.9734 15.6559 24.8746C15.698 24.8536 15.74 24.8325 15.7821 24.8115C15.74 24.7274 15.698 24.6432 15.6559 24.5591C15.681 24.3949 15.681 24.2371 15.6559 24.0858C15.7783 23.9712 15.8204 23.8449 15.7821 23.7071C15.734 23.6812 15.6709 23.6707 15.5928 23.6756C15.6323 23.6282 15.6638 23.5756 15.6874 23.5178C15.7084 23.5388 15.7295 23.5599 15.7505 23.5809C15.7917 23.3943 15.7391 23.2365 15.5928 23.1076C15.654 23.0316 15.7171 23.0001 15.7821 23.0129C15.7205 22.8393 15.6785 22.6815 15.6559 22.5396C15.698 22.5186 15.74 22.4976 15.7821 22.4765C15.7642 22.2937 15.7642 22.1043 15.7821 21.9086C15.74 21.8034 15.698 21.6982 15.6559 21.593C15.8242 21.551 15.8242 21.5089 15.6559 21.4668C15.74 21.3406 15.74 21.2144 15.6559 21.0882C15.7239 21.0457 15.766 20.9826 15.7821 20.8989C15.7241 20.7248 15.7241 20.5671 15.7821 20.4256C15.7489 20.3819 15.7069 20.3503 15.6559 20.3309C15.74 20.2888 15.74 20.2468 15.6559 20.2047C15.698 20.1837 15.74 20.1626 15.7821 20.1416C15.7453 19.8629 15.7453 19.5684 15.7821 19.2581C15.7566 19.1651 15.7146 19.081 15.6559 19.0057C15.7896 18.9841 15.8106 18.9315 15.719 18.8479Z" fill="#D1D1D1"/>
<path fill-rule="evenodd" clip-rule="evenodd" d="M34.3956 19.0374C34.338 19.1374 34.338 19.2321 34.3956 19.3213C34.3446 19.3408 34.3025 19.3723 34.2694 19.416C34.4254 19.5259 34.4254 19.6416 34.2694 19.7631C34.3372 19.8097 34.3793 19.8728 34.3956 19.9524C34.3288 20.2334 34.3288 20.5069 34.3956 20.7728C34.3535 20.7938 34.3115 20.8149 34.2694 20.8359C34.3517 20.8866 34.3938 20.9603 34.3956 21.0568C34.3574 21.2061 34.3364 21.3534 34.3325 21.4985C34.4897 21.5642 34.4897 21.6168 34.3325 21.6563C34.3811 21.7824 34.3391 21.8876 34.2063 21.9718C34.3746 22.077 34.3746 22.1822 34.2063 22.2874C34.303 22.3315 34.3661 22.4051 34.3956 22.5082C34.3133 22.7154 34.2712 22.9153 34.2694 23.1077C34.3115 23.1498 34.3535 23.1919 34.3956 23.234C34.3224 23.485 34.3224 23.7584 34.3956 24.0543C34.3325 24.0754 34.2694 24.0964 34.2063 24.1174C34.3752 24.2478 34.4172 24.4056 34.3325 24.5907C34.4932 24.7843 34.4511 24.9421 34.2063 25.0641C34.2694 25.0851 34.3325 25.1061 34.3956 25.1272C34.3115 25.1692 34.3115 25.2113 34.3956 25.2534C34.3535 25.2744 34.3115 25.2955 34.2694 25.3165C34.3072 25.4188 34.3493 25.5135 34.3956 25.6005C33.9668 25.7098 33.5252 25.7939 33.0706 25.8529C31.8961 26.0144 30.7183 26.1407 29.5371 26.2315C29.4078 26.2185 29.3868 26.166 29.474 26.0738C29.4063 25.9732 29.3432 25.8785 29.2847 25.7898C29.3268 25.7688 29.3688 25.7477 29.4109 25.7267C29.3864 25.6094 29.3864 25.4831 29.4109 25.348C29.2537 25.2823 29.2537 25.2298 29.4109 25.1903C29.3899 25.0009 29.3688 24.8116 29.3478 24.6223C29.4701 24.4754 29.4491 24.3282 29.2847 24.1806C29.453 24.0754 29.453 23.9702 29.2847 23.865C29.3992 23.7037 29.4203 23.5354 29.3478 23.3602C29.3899 23.3392 29.4319 23.3181 29.474 23.2971C29.3412 23.115 29.3412 22.9257 29.474 22.7291C29.2777 22.6754 29.2566 22.6018 29.4109 22.5082C29.3987 22.4091 29.3987 22.3145 29.4109 22.2242C29.2514 22.1412 29.2514 22.0676 29.4109 22.0034C29.3404 21.7361 29.3404 21.4731 29.4109 21.2145C29.3688 21.1935 29.3268 21.1724 29.2847 21.1514C29.2829 20.9607 29.325 20.7609 29.4109 20.5519C29.3778 20.5082 29.3357 20.4767 29.2847 20.4573C29.3567 20.4105 29.3567 20.3579 29.2847 20.2995C29.3179 20.2558 29.3599 20.2243 29.4109 20.2048C29.4142 20.0724 29.3931 19.9357 29.3478 19.7946C29.3757 19.7164 29.4178 19.6533 29.474 19.6053C29.8978 19.5821 30.3184 19.54 30.736 19.4791C31.9599 19.3647 33.1797 19.2175 34.3956 19.0374Z" fill="#F0F0F0"/>
<path fill-rule="evenodd" clip-rule="evenodd" d="M18.243 19.2898C19.0214 19.374 19.7995 19.4581 20.5776 19.5422C20.5512 19.5878 20.5092 19.6193 20.4514 19.6369C20.5422 19.6994 20.6053 19.7835 20.6407 19.8893C20.5934 20.044 20.5934 20.2123 20.6407 20.3942C20.616 20.458 20.5739 20.4895 20.5145 20.4888C20.5652 20.5798 20.6073 20.6744 20.6407 20.7728C20.61 20.9518 20.61 21.1412 20.6407 21.3408C20.6356 21.5064 20.5935 21.6537 20.5145 21.7825C20.6532 21.8879 20.6743 22.0141 20.5776 22.1612C20.6197 22.1822 20.6617 22.2032 20.7038 22.2243C20.6538 22.2927 20.6117 22.3664 20.5776 22.4451C20.6375 23.5965 20.6375 24.7008 20.5776 25.7582C20.7459 25.8003 20.7459 25.8424 20.5776 25.8845C20.5596 25.972 20.5806 26.0667 20.6407 26.1684C19.804 26.1233 18.9837 26.0181 18.1799 25.8529C18.1952 25.6311 18.1952 25.4102 18.1799 25.1903C18.1544 25.1306 18.1123 25.0886 18.0537 25.0641C18.2414 24.969 18.2624 24.8639 18.1168 24.7485C18.1689 24.5737 18.1899 24.4054 18.1799 24.2437C18.1378 24.2016 18.0958 24.1596 18.0537 24.1175C18.1123 24.093 18.1544 24.0509 18.1799 23.9912C18.1697 23.8678 18.1487 23.7416 18.1168 23.6126C18.2851 23.5285 18.2851 23.4443 18.1168 23.3602C18.1202 23.0352 18.1412 22.7091 18.1799 22.382C18.1468 22.3384 18.1047 22.3068 18.0537 22.2874C18.2116 22.1748 18.2116 22.0696 18.0537 21.9718C18.1047 21.9524 18.1468 21.9208 18.1799 21.8772C18.1656 21.7402 18.1446 21.6034 18.1168 21.467C18.1678 21.4475 18.2099 21.416 18.243 21.3723C18.2275 21.2195 18.2275 21.0722 18.243 20.9306C18.0858 20.8649 18.0858 20.8123 18.243 20.7728C18.2075 20.5901 18.2075 20.4008 18.243 20.2048C18.0921 20.1222 18.0921 20.0591 18.243 20.0155C18.1022 19.8596 18.1022 19.7124 18.243 19.5738C18.0864 19.4816 18.0864 19.3869 18.243 19.2898Z" fill="#D7D7D7"/>
<path fill-rule="evenodd" clip-rule="evenodd" d="M20.5774 19.5422C21.2701 19.6036 21.9642 19.6457 22.6596 19.6684C22.8068 19.7078 22.954 19.7604 23.1013 19.8262C23.0592 19.8472 23.0171 19.8683 22.9751 19.8893C23.0171 20.0366 23.0592 20.1838 23.1013 20.3311C22.9441 20.3706 22.9441 20.4231 23.1013 20.4888C23.032 20.8116 23.032 21.1587 23.1013 21.5301C22.9605 21.686 22.9605 21.8332 23.1013 21.9718C23.0459 22.2191 23.0459 22.4505 23.1013 22.666C23.0592 22.687 23.0171 22.7081 22.9751 22.7291C23.0811 22.8519 23.1232 22.9781 23.1013 23.1078C22.9742 23.2208 22.9742 23.305 23.1013 23.3602C22.933 23.4023 22.933 23.4443 23.1013 23.4864C23.0245 24.089 23.0245 24.7095 23.1013 25.3481C23.0681 25.3917 23.026 25.4233 22.9751 25.4427C23.0592 25.5479 23.0592 25.6531 22.9751 25.7583C23.0291 25.8017 23.0712 25.8543 23.1013 25.916C22.9448 26.1419 23.0079 26.2892 23.2905 26.3578C22.3951 26.3315 21.5117 26.2684 20.6405 26.1684C20.5804 26.0667 20.5593 25.9721 20.5774 25.8845C20.7456 25.8424 20.7456 25.8003 20.5774 25.7583C20.6373 24.7008 20.6373 23.5965 20.5774 22.4451C20.6114 22.3664 20.6535 22.2927 20.7036 22.2243C20.6615 22.2033 20.6195 22.1822 20.5774 22.1612C20.674 22.0141 20.653 21.8879 20.5143 21.7825C20.5933 21.6537 20.6354 21.5064 20.6405 21.3408C20.6097 21.1412 20.6097 20.9519 20.6405 20.7728C20.6071 20.6744 20.565 20.5798 20.5143 20.4888C20.5736 20.4895 20.6157 20.458 20.6405 20.3942C20.5932 20.2123 20.5932 20.044 20.6405 19.8893C20.6051 19.7836 20.542 19.6994 20.4512 19.6369C20.509 19.6194 20.551 19.5878 20.5774 19.5422Z" fill="#DDDCDC"/>
<path fill-rule="evenodd" clip-rule="evenodd" d="M29.4742 19.605C29.418 19.653 29.3759 19.7161 29.348 19.7943C29.3933 19.9354 29.4144 20.0721 29.4111 20.2045C29.3601 20.2239 29.318 20.2555 29.2849 20.2992C29.3569 20.3575 29.3569 20.4102 29.2849 20.4569C29.3359 20.4764 29.378 20.5079 29.4111 20.5516C29.3252 20.7606 29.2831 20.9604 29.2849 21.1511C29.327 21.1721 29.369 21.1932 29.4111 21.2142C29.3406 21.4728 29.3406 21.7358 29.4111 22.003C29.2516 22.0672 29.2516 22.1409 29.4111 22.2239C29.3989 22.3142 29.3989 22.4088 29.4111 22.5079C29.2568 22.6015 29.2778 22.6751 29.4742 22.7288C29.3414 22.9253 29.3414 23.1147 29.4742 23.2967C29.4321 23.3177 29.3901 23.3388 29.348 23.3598C29.4204 23.535 29.3994 23.7033 29.2849 23.8647C29.4532 23.9699 29.4532 24.075 29.2849 24.1802C29.4493 24.3278 29.4703 24.4751 29.348 24.622C29.369 24.8113 29.3901 25.0006 29.4111 25.1899C29.2539 25.2294 29.2539 25.282 29.4111 25.3477C29.3866 25.4828 29.3866 25.609 29.4111 25.7263C29.369 25.7474 29.327 25.7684 29.2849 25.7894C29.3434 25.8782 29.4065 25.9728 29.4742 26.0734C29.3869 26.1656 29.408 26.2182 29.5373 26.2312C28.3297 26.3383 27.1098 26.3803 25.8777 26.3574C25.8669 26.274 25.8879 26.2003 25.9408 26.1365C25.8867 26.0931 25.8447 26.0405 25.8146 25.9788C25.8893 25.7075 25.8893 25.434 25.8146 25.1584C25.8566 25.1374 25.8987 25.1163 25.9408 25.0953C25.9155 24.9732 25.8524 24.8786 25.7515 24.8113C25.9275 24.6898 25.9485 24.5636 25.8146 24.4326C25.8373 24.3284 25.8583 24.2233 25.8777 24.1171C25.8356 24.0961 25.7936 24.075 25.7515 24.054C25.8651 24.034 25.8861 23.9919 25.8146 23.9278C25.9828 23.6754 25.9828 23.4229 25.8146 23.1705C25.8987 23.0443 25.8987 22.9181 25.8146 22.7919C25.8566 22.7709 25.8987 22.7498 25.9408 22.7288C25.8137 22.6735 25.8137 22.5894 25.9408 22.4763C25.8886 22.3569 25.8886 22.2202 25.9408 22.0661C25.8161 21.9849 25.8161 21.8797 25.9408 21.7506C25.8987 21.7296 25.8566 21.7085 25.8146 21.6875C25.8486 21.6087 25.8907 21.5351 25.9408 21.4666C25.9408 21.3825 25.9408 21.2983 25.9408 21.2142C25.7725 21.1721 25.7725 21.1301 25.9408 21.088C25.8959 20.9115 25.8538 20.7327 25.8146 20.5516C25.8447 20.4899 25.8867 20.4373 25.9408 20.3938C25.8808 20.2009 25.8597 20.0011 25.8777 19.7943C27.0768 19.7367 28.2756 19.6736 29.4742 19.605Z" fill="#EAEAEA"/>
<path fill-rule="evenodd" clip-rule="evenodd" d="M43.9237 23.7073C43.9867 25.7159 44.0077 27.7353 43.9868 29.7655C43.9658 29.8917 43.9447 30.018 43.9237 30.1442C43.7877 30.4412 43.63 30.7357 43.4505 31.0277C42.9027 31.618 42.2823 32.1123 41.5891 32.5107C41.0575 32.7765 40.5317 33.0394 40.0117 33.2995C39.84 33.3287 39.6717 33.3708 39.5069 33.4257C39.3776 33.4127 39.3565 33.3602 39.4438 33.268C39.4017 33.2259 39.3597 33.1838 39.3176 33.1417C39.4017 33.0576 39.4017 32.9734 39.3176 32.8893C39.4446 32.8341 39.4446 32.7499 39.3176 32.6369C39.4859 32.5528 39.4859 32.4686 39.3176 32.3845C39.4446 32.2714 39.4446 32.1872 39.3176 32.132C39.3922 31.996 39.3712 31.8698 39.2545 31.7534C39.3025 31.6625 39.3445 31.5678 39.3807 31.4694C39.3469 31.3381 39.3259 31.2014 39.3176 31.0592C39.4736 30.9707 39.4736 30.8761 39.3176 30.7752C39.4325 30.6508 39.443 30.5035 39.3491 30.3335C39.3079 30.409 39.2763 30.409 39.2545 30.3335C39.2907 30.2351 39.3327 30.1404 39.3807 30.0495C39.3655 29.675 39.3655 29.2753 39.3807 28.8505C39.1283 28.8084 39.1283 28.7664 39.3807 28.7243C39.3439 28.6221 39.3439 28.5064 39.3807 28.3772C39.3506 28.3155 39.3086 28.2629 39.2545 28.2194C39.3435 28.1962 39.4066 28.1436 39.4438 28.0616C39.3674 27.9847 39.3674 27.911 39.4438 27.8408C39.4017 27.7566 39.3386 27.6935 39.2545 27.6514C39.4054 27.6078 39.4054 27.5447 39.2545 27.4621C39.338 27.4106 39.38 27.337 39.3807 27.2413C40.2131 26.9091 41.0124 26.5094 41.7784 26.0422C42.3757 25.7088 42.912 25.2881 43.3874 24.7801C43.638 24.4565 43.8168 24.0989 43.9237 23.7073Z" fill="#FBFBFB"/>
<path fill-rule="evenodd" clip-rule="evenodd" d="M9.15646 25.9789C9.61152 26.3012 10.0953 26.5746 10.6077 26.7993C10.4007 26.877 10.3797 26.9822 10.5446 27.1148C10.4929 27.4609 10.4929 27.8185 10.5446 28.1876C10.5515 28.3059 10.5095 28.4005 10.4184 28.4716C10.4971 28.5636 10.4971 28.6583 10.4184 28.7556C10.4778 28.7549 10.5199 28.7864 10.5446 28.8502C10.4693 29.1725 10.4693 29.488 10.5446 29.7968C10.3937 29.8794 10.3937 29.9425 10.5446 29.9861C10.5443 30.3655 10.5443 30.7652 10.5446 31.1852C10.3937 31.2288 10.3937 31.2919 10.5446 31.3745C10.5091 31.5538 10.5091 31.7431 10.5446 31.9425C10.5538 32.0805 10.4907 32.1647 10.3553 32.1949C10.5423 32.2479 10.5633 32.311 10.4184 32.3842C10.3849 32.5984 10.4269 32.8193 10.5446 33.0468C9.34051 32.5886 8.32042 31.8734 7.48438 30.9012C7.3115 30.6395 7.17477 30.3661 7.07425 30.0808C7.01318 28.6945 6.99216 27.3062 7.01116 25.9158C7.00062 25.1371 7.01116 24.3589 7.0427 23.5808C7.40312 24.6878 8.10772 25.4871 9.15646 25.9789Z" fill="#BDBCBC"/>
<path fill-rule="evenodd" clip-rule="evenodd" d="M10.6074 26.7991C11.4079 27.1078 12.2071 27.4023 13.0051 27.6826C12.9505 27.7575 12.8874 27.8312 12.8158 27.9034C12.9613 28.0166 12.9823 28.1533 12.8789 28.3136C13.0142 28.3882 13.0142 28.4829 12.8789 28.5976C12.9021 28.7514 12.9441 28.9196 13.0051 29.1025C12.9571 29.1934 12.9151 29.2881 12.8789 29.3865C12.8635 29.6681 12.9056 29.9521 13.0051 30.2384C12.8733 30.3376 12.8733 30.4533 13.0051 30.5855C12.8167 30.7454 12.7957 30.9137 12.942 31.0903C12.9376 31.2025 12.9165 31.3182 12.8789 31.4374C13.007 31.6691 13.007 31.911 12.8789 32.1631C13.0583 32.2071 13.0373 32.2808 12.8158 32.384C12.8789 32.405 12.942 32.4261 13.0051 32.4471C12.963 32.5523 12.921 32.6575 12.8789 32.7627C12.9382 33.1423 12.9593 33.5314 12.942 33.9301C12.1404 33.719 11.3621 33.4455 10.6074 33.1097C10.6074 33.0677 10.5864 33.0466 10.5443 33.0466C10.4266 32.8191 10.3846 32.5982 10.4181 32.384C10.563 32.3108 10.542 32.2477 10.355 32.1947C10.4904 32.1645 10.5535 32.0804 10.5443 31.9423C10.5088 31.7429 10.5088 31.5536 10.5443 31.3743C10.3934 31.2917 10.3934 31.2286 10.5443 31.185C10.544 30.765 10.544 30.3653 10.5443 29.986C10.3934 29.9424 10.3934 29.8793 10.5443 29.7966C10.469 29.4879 10.469 29.1723 10.5443 28.85C10.5195 28.7862 10.4775 28.7547 10.4181 28.7554C10.4968 28.6581 10.4968 28.5634 10.4181 28.4714C10.5092 28.4003 10.5512 28.3057 10.5443 28.1874C10.4926 27.8183 10.4926 27.4607 10.5443 27.1146C10.3793 26.982 10.4004 26.8768 10.6074 26.7991Z" fill="#C4C4C4"/>
<path fill-rule="evenodd" clip-rule="evenodd" d="M39.38 27.2407C39.3793 27.3365 39.3373 27.4101 39.2538 27.4616C39.4047 27.5442 39.4047 27.6073 39.2538 27.6509C39.3379 27.693 39.401 27.7561 39.4431 27.8402C39.3667 27.9105 39.3667 27.9841 39.4431 28.0611C39.4059 28.1431 39.3428 28.1957 39.2538 28.2189C39.3079 28.2624 39.3499 28.3149 39.38 28.3766C39.3432 28.5059 39.3432 28.6216 39.38 28.7237C39.1276 28.7658 39.1276 28.8079 39.38 28.8499C39.3648 29.2748 39.3648 29.6744 39.38 30.049C39.3321 30.1399 39.29 30.2346 39.2538 30.333C39.2757 30.4084 39.3072 30.4084 39.3485 30.333C39.4424 30.503 39.4318 30.6503 39.3169 30.7747C39.473 30.8755 39.473 30.9702 39.3169 31.0587C39.3252 31.2009 39.3463 31.3376 39.38 31.4689C39.3438 31.5673 39.3018 31.6619 39.2538 31.7529C39.3706 31.8693 39.3916 31.9955 39.3169 32.1315C39.4439 32.1867 39.4439 32.2709 39.3169 32.3839C39.4852 32.468 39.4852 32.5522 39.3169 32.6364C39.4439 32.7494 39.4439 32.8336 39.3169 32.8888C39.401 32.9729 39.401 33.0571 39.3169 33.1412C39.359 33.1833 39.401 33.2253 39.4431 33.2674C39.3559 33.3596 39.3769 33.4122 39.5062 33.4252C37.8832 34.0741 36.2007 34.5158 34.4584 34.7504C34.3921 34.7598 34.329 34.7494 34.2692 34.7189C34.3683 34.5903 34.4314 34.443 34.4584 34.2771C34.4164 34.2561 34.3743 34.235 34.3322 34.214C34.3861 33.9034 34.3861 33.5984 34.3322 33.299C34.4883 33.189 34.4883 33.0734 34.3322 32.9519C34.3533 32.8047 34.3743 32.6574 34.3953 32.5101C34.3533 32.4891 34.3112 32.468 34.2692 32.447C34.3857 32.1537 34.4488 31.8593 34.4584 31.5635C34.4337 31.4997 34.3916 31.4682 34.3322 31.4689C34.4345 31.3276 34.4135 31.2118 34.2692 31.1218C34.42 30.9493 34.42 30.781 34.2692 30.6169C34.3112 30.5959 34.3533 30.5748 34.3953 30.5538C34.3292 30.443 34.3292 30.3273 34.3953 30.2067C34.3632 30.1065 34.3001 30.0329 34.2061 29.9859C34.2842 29.9907 34.3473 29.9803 34.3953 29.9543C34.3381 29.8435 34.3381 29.7278 34.3953 29.6072C34.3793 29.5235 34.3372 29.4604 34.2692 29.4179C34.364 29.3335 34.4271 29.2283 34.4584 29.1024C34.4164 29.0814 34.3743 29.0603 34.3322 29.0393C34.2969 28.9404 34.3389 28.8563 34.4584 28.7868C34.4164 28.7658 34.3743 28.7447 34.3322 28.7237C34.3851 28.6599 34.4061 28.5863 34.3953 28.5029C36.0785 28.1714 37.74 27.7507 39.38 27.2407Z" fill="#F6F5F5"/>
<path fill-rule="evenodd" clip-rule="evenodd" d="M13.0052 27.6831C13.9563 27.9262 14.9027 28.1576 15.8446 28.3773C15.7937 28.4718 15.7517 28.5769 15.7184 28.6928C15.8751 28.7808 15.8751 28.8754 15.7184 28.9768C15.7953 29.1272 15.7953 29.2745 15.7184 29.4185C15.8454 29.4738 15.8454 29.5579 15.7184 29.671C15.7971 29.763 15.7971 29.8576 15.7184 29.9549C15.7485 30.0167 15.7905 30.0692 15.8446 30.1127C15.8433 30.2209 15.8013 30.3366 15.7184 30.4598C15.706 30.6612 15.748 30.8611 15.8446 31.0593C15.6851 31.1424 15.6851 31.216 15.8446 31.2802C15.8025 31.4274 15.7605 31.5747 15.7184 31.7219C15.7515 31.7656 15.7936 31.7972 15.8446 31.8166C15.8025 31.9428 15.7605 32.069 15.7184 32.1952C15.8025 32.2794 15.8025 32.3635 15.7184 32.4477C15.8454 32.5029 15.8454 32.5871 15.7184 32.7001C15.7759 32.9616 15.7759 33.214 15.7184 33.4574C15.8867 33.4995 15.8867 33.5415 15.7184 33.5836C15.7605 33.6046 15.8025 33.6257 15.8446 33.6467C15.8368 33.7862 15.8368 33.923 15.8446 34.0569C15.805 34.2561 15.7419 34.4454 15.6553 34.6249C14.7315 34.4623 13.8272 34.2309 12.9421 33.9307C12.9595 33.532 12.9384 33.1429 12.879 32.7632C12.9211 32.658 12.9631 32.5529 13.0052 32.4477C12.9421 32.4267 12.879 32.4056 12.8159 32.3846C13.0375 32.2813 13.0585 32.2077 12.879 32.1637C13.0071 31.9116 13.0071 31.6696 12.879 31.438C12.9167 31.3187 12.9378 31.2031 12.9421 31.0909C12.7959 30.9142 12.8169 30.7459 13.0052 30.586C12.8734 30.4538 12.8734 30.3381 13.0052 30.2389C12.9057 29.9526 12.8636 29.6686 12.879 29.387C12.9152 29.2886 12.9573 29.1939 13.0052 29.103C12.9443 28.9202 12.9022 28.7519 12.879 28.5982C13.0144 28.4834 13.0144 28.3888 12.879 28.3142C12.9824 28.1539 12.9614 28.0171 12.8159 27.904C12.8876 27.8317 12.9507 27.7581 13.0052 27.6831Z" fill="#CACACA"/>
<path fill-rule="evenodd" clip-rule="evenodd" d="M15.8451 28.3772C16.7222 28.4918 17.5845 28.6391 18.432 28.8189C18.3309 28.8071 18.2467 28.8386 18.1796 28.9136C18.1745 29.0062 18.1956 29.1114 18.2427 29.2291C18.2322 29.2817 18.2217 29.3343 18.2112 29.3869C18.1699 29.3114 18.1384 29.3114 18.1166 29.3869C18.2793 29.5092 18.2793 29.6249 18.1166 29.734C18.2925 29.8838 18.2714 29.9679 18.0535 29.9864C18.1417 30.0534 18.2048 30.1376 18.2427 30.2388C18.1702 30.348 18.1702 30.4532 18.2427 30.5544C18.2007 30.5754 18.1586 30.5965 18.1166 30.6175C18.2674 30.7816 18.2674 30.9499 18.1166 31.1223C18.1899 31.2882 18.253 31.4565 18.3058 31.6272C18.2579 31.7181 18.2159 31.8128 18.1796 31.9112C18.2113 31.9879 18.2323 32.0616 18.2427 32.1321C18.2007 32.1531 18.1586 32.1741 18.1166 32.1952C18.2716 32.2906 18.2716 32.3748 18.1166 32.4476C18.1586 32.4686 18.2007 32.4897 18.2427 32.5107C18.2137 32.6651 18.1926 32.8229 18.1796 32.984C18.2097 33.0457 18.2518 33.0983 18.3058 33.1418C18.2381 33.1884 18.196 33.2515 18.1796 33.3311C18.2221 33.7175 18.2431 34.0961 18.2427 34.467C18.2317 34.5716 18.1896 34.6558 18.1166 34.7194C18.2233 34.8078 18.2654 34.9235 18.2427 35.0665C17.3724 34.953 16.51 34.8058 15.6558 34.6248C15.7424 34.4454 15.8055 34.256 15.8451 34.0568C15.8373 33.9229 15.8373 33.7861 15.8451 33.6466C15.803 33.6256 15.7609 33.6045 15.7189 33.5835C15.8871 33.5414 15.8871 33.4994 15.7189 33.4573C15.7764 33.214 15.7764 32.9615 15.7189 32.7C15.8459 32.587 15.8459 32.5028 15.7189 32.4476C15.803 32.3635 15.803 32.2793 15.7189 32.1952C15.7609 32.0689 15.803 31.9427 15.8451 31.8165C15.7941 31.7971 15.752 31.7655 15.7189 31.7219C15.7609 31.5746 15.803 31.4273 15.8451 31.2801C15.6855 31.2159 15.6855 31.1423 15.8451 31.0592C15.7485 30.861 15.7064 30.6612 15.7189 30.4597C15.8018 30.3365 15.8438 30.2209 15.8451 30.1126C15.791 30.0692 15.749 30.0166 15.7189 29.9549C15.7975 29.8576 15.7975 29.7629 15.7189 29.6709C15.8459 29.5579 15.8459 29.4737 15.7189 29.4185C15.7958 29.2744 15.7958 29.1272 15.7189 28.9767C15.8756 28.8754 15.8756 28.7807 15.7189 28.6927C15.7522 28.5769 15.7942 28.4717 15.8451 28.3772Z" fill="#D1D0D0"/>
<path fill-rule="evenodd" clip-rule="evenodd" d="M34.3955 28.5032C34.4063 28.5866 34.3853 28.6602 34.3324 28.724C34.3745 28.7451 34.4165 28.7661 34.4586 28.7872C34.3391 28.8566 34.297 28.9408 34.3324 29.0396C34.3745 29.0606 34.4165 29.0817 34.4586 29.1027C34.4273 29.2286 34.3642 29.3338 34.2693 29.4182C34.3374 29.4608 34.3794 29.5239 34.3955 29.6075C34.3383 29.7281 34.3383 29.8438 34.3955 29.9546C34.3475 29.9806 34.2844 29.991 34.2062 29.9862C34.3003 30.0332 34.3634 30.1068 34.3955 30.2071C34.3294 30.3276 34.3294 30.4433 34.3955 30.5541C34.3535 30.5752 34.3114 30.5962 34.2693 30.6173C34.4202 30.7813 34.4202 30.9496 34.2693 31.1221C34.4136 31.2122 34.4347 31.3279 34.3324 31.4692C34.3918 31.4685 34.4339 31.5001 34.4586 31.5639C34.449 31.8596 34.3859 32.154 34.2693 32.4473C34.3114 32.4684 34.3535 32.4894 34.3955 32.5105C34.3745 32.6577 34.3535 32.805 34.3324 32.9522C34.4885 33.0737 34.4885 33.1894 34.3324 33.2993C34.3863 33.5987 34.3863 33.9037 34.3324 34.2143C34.3745 34.2354 34.4165 34.2564 34.4586 34.2774C34.4316 34.4434 34.3685 34.5906 34.2693 34.7192C34.3292 34.7497 34.3923 34.7601 34.4586 34.7507C33.8251 34.9212 33.173 35.0369 32.5026 35.0978C31.4746 35.2319 30.444 35.3266 29.4109 35.3818C29.3917 35.3408 29.3707 35.2987 29.3478 35.2556C29.4759 35.0451 29.4759 34.8242 29.3478 34.593C29.5142 34.3561 29.5142 34.1458 29.3478 33.9619C29.4078 33.9166 29.4182 33.864 29.3793 33.8041C29.338 33.8796 29.3065 33.8796 29.2847 33.8041C29.3399 33.7567 29.403 33.7252 29.474 33.7095C29.3869 33.6259 29.3658 33.5418 29.4109 33.4571C29.2608 33.3956 29.2819 33.3535 29.474 33.3308C29.4319 33.2677 29.3899 33.2046 29.3478 33.1415C29.3563 32.981 29.3984 32.8127 29.474 32.6367C29.4319 32.5525 29.3899 32.4684 29.3478 32.3842C29.3899 32.3632 29.4319 32.3421 29.474 32.3211C29.4711 32.1709 29.4291 32.0131 29.3478 31.8478C29.5038 31.747 29.5038 31.6523 29.3478 31.5639C29.4155 31.5172 29.4576 31.4541 29.474 31.3745C29.4602 31.2552 29.4602 31.1395 29.474 31.0274C29.4439 30.9657 29.4018 30.9132 29.3478 30.8697C29.3899 30.8487 29.4319 30.8276 29.474 30.8066C29.3899 30.7224 29.3899 30.6383 29.474 30.5541C29.4199 30.5107 29.3779 30.4581 29.3478 30.3964C29.3899 30.2491 29.4319 30.1019 29.474 29.9546C29.3452 29.7854 29.3452 29.6382 29.474 29.5129C29.4442 29.3929 29.4442 29.2667 29.474 29.1342C31.1197 28.9653 32.7602 28.755 34.3955 28.5032Z" fill="#F0EFEF"/>
<path fill-rule="evenodd" clip-rule="evenodd" d="M18.4323 28.8183C19.1927 28.8795 19.9499 28.9636 20.7038 29.0708C20.678 29.1429 20.636 29.206 20.5776 29.2601C20.5211 29.1966 20.479 29.1966 20.4514 29.2601C20.5563 29.3123 20.6404 29.3859 20.7038 29.481C20.6617 29.502 20.6197 29.5231 20.5776 29.5441C20.6278 29.7402 20.6698 29.9401 20.7038 30.1436C20.6389 30.1307 20.5758 30.1623 20.5145 30.2383C20.737 30.3448 20.758 30.4815 20.5776 30.6484C20.6197 30.6905 20.6617 30.7326 20.7038 30.7747C20.6274 30.8516 20.6274 30.9253 20.7038 30.9955C20.6617 31.0797 20.5986 31.1428 20.5145 31.1849C20.5776 31.248 20.6407 31.3111 20.7038 31.3742C20.6212 31.5433 20.6212 31.7115 20.7038 31.879C20.6782 31.9387 20.6362 31.9808 20.5776 32.0052C20.6286 32.0247 20.6707 32.0562 20.7038 32.0999C20.6678 32.3194 20.6678 32.5297 20.7038 32.731C20.6617 32.752 20.6197 32.7731 20.5776 32.7941C20.6117 32.8728 20.6538 32.9465 20.7038 33.0149C20.6617 33.036 20.6197 33.057 20.5776 33.0781C20.5667 33.266 20.6088 33.4553 20.7038 33.646C20.6211 33.9006 20.6211 34.153 20.7038 34.4033C20.6271 34.5356 20.5745 34.525 20.546 34.3717C20.5156 34.4316 20.5051 34.4947 20.5145 34.5611C20.5809 34.5517 20.644 34.5621 20.7038 34.5926C20.6318 34.6394 20.6318 34.692 20.7038 34.7504C20.5433 34.8411 20.5433 34.9357 20.7038 35.0344C20.6617 35.0975 20.6197 35.1606 20.5776 35.2237C20.7458 35.2906 20.9141 35.3432 21.0824 35.3815C20.1318 35.2898 19.1854 35.1847 18.243 35.0659C18.2657 34.9229 18.2236 34.8072 18.1168 34.7188C18.1899 34.6552 18.232 34.571 18.243 34.4664C18.2434 34.0955 18.2224 33.7169 18.1799 33.3305C18.1962 33.2509 18.2383 33.1878 18.3061 33.1412C18.252 33.0977 18.21 33.0451 18.1799 32.9834C18.1929 32.8223 18.2139 32.6645 18.243 32.5101C18.2009 32.4891 18.1589 32.468 18.1168 32.447C18.2718 32.3742 18.2718 32.29 18.1168 32.1946C18.1589 32.1735 18.2009 32.1525 18.243 32.1315C18.2326 32.061 18.2116 31.9873 18.1799 31.9106C18.2161 31.8122 18.2581 31.7175 18.3061 31.6266C18.2533 31.4559 18.1902 31.2877 18.1168 31.1217C18.2677 30.9493 18.2677 30.781 18.1168 30.6169C18.1589 30.5959 18.2009 30.5748 18.243 30.5538C18.1705 30.4526 18.1705 30.3474 18.243 30.2383C18.2051 30.137 18.142 30.0528 18.0537 29.9858C18.2716 29.9673 18.2927 29.8832 18.1168 29.7334C18.2795 29.6243 18.2795 29.5086 18.1168 29.3863C18.1386 29.3108 18.1702 29.3108 18.2115 29.3863C18.222 29.3337 18.2325 29.2811 18.243 29.2285C18.1959 29.1108 18.1748 29.0056 18.1799 28.913C18.247 28.838 18.3311 28.8065 18.4323 28.8183Z" fill="#D7D6D6"/>
<path fill-rule="evenodd" clip-rule="evenodd" d="M20.7036 29.0713C21.5023 29.1217 22.3016 29.1638 23.1013 29.1975C23.0628 29.4584 23.0418 29.7108 23.0382 29.9548C23.1456 30.0425 23.1877 30.1372 23.1643 30.2388C23.0373 30.3518 23.0373 30.436 23.1643 30.4912C23.1223 30.5753 23.0802 30.6595 23.0382 30.7436C23.2064 30.7857 23.2064 30.8277 23.0382 30.8698C23.1161 31.3362 23.1161 31.82 23.0382 32.3213C23.0802 32.3634 23.1223 32.4054 23.1643 32.4475C23.1223 32.8051 23.0802 33.1627 23.0382 33.5203C23.0825 33.7523 23.1035 33.9837 23.1013 34.2145C23.0849 34.2941 23.0428 34.3572 22.9751 34.4038C23.0336 34.4283 23.0757 34.4704 23.1013 34.53C23.0756 34.7687 23.0756 35.0211 23.1013 35.2873C22.9462 35.3967 22.9672 35.4703 23.1643 35.5082C22.4683 35.4965 21.7742 35.4545 21.0821 35.382C20.9139 35.3437 20.7456 35.2912 20.5774 35.2242C20.6195 35.1611 20.6615 35.098 20.7036 35.0349C20.543 34.9362 20.543 34.8416 20.7036 34.7509C20.6316 34.6925 20.6316 34.6399 20.7036 34.5931C20.6437 34.5627 20.5806 34.5522 20.5143 34.5616C20.5049 34.4952 20.5153 34.4321 20.5458 34.3723C20.5743 34.5255 20.6269 34.5361 20.7036 34.4038C20.6208 34.1535 20.6208 33.9011 20.7036 33.6465C20.6086 33.4558 20.5665 33.2665 20.5774 33.0786C20.6195 33.0576 20.6615 33.0365 20.7036 33.0155C20.6535 32.947 20.6114 32.8733 20.5774 32.7946C20.6195 32.7736 20.6615 32.7525 20.7036 32.7315C20.6675 32.5302 20.6675 32.3199 20.7036 32.1004C20.6704 32.0567 20.6283 32.0252 20.5774 32.0058C20.6359 31.9813 20.678 31.9392 20.7036 31.8795C20.621 31.7121 20.621 31.5438 20.7036 31.3747C20.6405 31.3116 20.5774 31.2485 20.5143 31.1854C20.5984 31.1433 20.6615 31.0802 20.7036 30.996C20.6271 30.9258 20.6271 30.8522 20.7036 30.7752C20.6615 30.7331 20.6195 30.6911 20.5774 30.649C20.7578 30.482 20.7367 30.3453 20.5143 30.2388C20.5755 30.1628 20.6386 30.1312 20.7036 30.1441C20.6696 29.9406 20.6275 29.7407 20.5774 29.5446C20.6195 29.5236 20.6615 29.5025 20.7036 29.4815C20.6401 29.3864 20.556 29.3128 20.4512 29.2606C20.4788 29.1971 20.5208 29.1971 20.5774 29.2606C20.6357 29.2065 20.6778 29.1434 20.7036 29.0713Z" fill="#DDDDDD"/>
<path fill-rule="evenodd" clip-rule="evenodd" d="M29.4746 29.134C29.4448 29.2665 29.4448 29.3927 29.4746 29.5127C29.3459 29.638 29.3459 29.7852 29.4746 29.9544C29.4325 30.1016 29.3905 30.2489 29.3484 30.3962C29.3785 30.4579 29.4205 30.5105 29.4746 30.5539C29.3905 30.6381 29.3905 30.7222 29.4746 30.8064C29.4325 30.8274 29.3905 30.8485 29.3484 30.8695C29.4025 30.913 29.4445 30.9655 29.4746 31.0272C29.4608 31.1393 29.4608 31.255 29.4746 31.3743C29.4582 31.4539 29.4161 31.517 29.3484 31.5636C29.5044 31.6521 29.5044 31.7468 29.3484 31.8476C29.4297 32.0129 29.4717 32.1707 29.4746 32.3209C29.4325 32.3419 29.3905 32.363 29.3484 32.384C29.3905 32.4682 29.4325 32.5523 29.4746 32.6365C29.399 32.8125 29.3569 32.9808 29.3484 33.1413C29.3905 33.2044 29.4325 33.2675 29.4746 33.3306C29.2825 33.3533 29.2614 33.3954 29.4115 33.4568C29.3664 33.5416 29.3875 33.6257 29.4746 33.7093C29.4037 33.725 29.3406 33.7565 29.2853 33.8039C29.3071 33.8794 29.3387 33.8794 29.3799 33.8039C29.4189 33.8638 29.4084 33.9164 29.3484 33.9617C29.5148 34.1456 29.5148 34.3559 29.3484 34.5928C29.4765 34.824 29.4765 35.0449 29.3484 35.2554C29.3713 35.2985 29.3923 35.3406 29.4115 35.3816C28.6162 35.4655 27.817 35.5076 27.0138 35.5078C26.6562 35.5078 26.2987 35.5078 25.9411 35.5078C25.95 35.4053 25.9079 35.3317 25.8149 35.2869C25.9286 35.2669 25.9496 35.2248 25.878 35.1607C25.9201 34.9504 25.9621 34.74 26.0042 34.5297C25.9721 34.3776 25.9721 34.2093 26.0042 34.0248C25.9621 33.9827 25.9201 33.9407 25.878 33.8986C25.9239 33.6559 25.9239 33.4035 25.878 33.1413C25.9201 33.0992 25.9621 33.0572 26.0042 33.0151C25.9621 32.7627 25.9201 32.5102 25.878 32.2578C25.9721 32.1302 25.9511 32.0251 25.8149 31.9423C25.878 31.9213 25.9411 31.9002 26.0042 31.8792C25.9621 31.6899 25.9201 31.5005 25.878 31.3112C25.9621 31.2271 25.9621 31.1429 25.878 31.0588C26.0463 30.9747 26.0463 30.8905 25.878 30.8064C26.0463 30.7643 26.0463 30.7222 25.878 30.6801C26.054 30.5058 26.0329 30.3585 25.8149 30.2384C25.9536 30.133 25.9747 30.0068 25.878 29.8598C26.0289 29.7772 26.0289 29.714 25.878 29.6704C25.959 29.5302 25.9801 29.3934 25.9411 29.2602C27.1183 29.2042 28.2962 29.1621 29.4746 29.134Z" fill="#EAEAEA"/>
<path fill-rule="evenodd" clip-rule="evenodd" d="M23.1008 29.1973C24.0457 29.2551 24.9921 29.2761 25.9402 29.2604C25.9791 29.3935 25.958 29.5303 25.8771 29.6706C26.0279 29.7142 26.0279 29.7773 25.8771 29.8599C25.9737 30.0069 25.9527 30.1331 25.814 30.2385C26.032 30.3586 26.053 30.5059 25.8771 30.6803C26.0454 30.7224 26.0454 30.7644 25.8771 30.8065C26.0454 30.8906 26.0454 30.9748 25.8771 31.0589C25.9612 31.143 25.9612 31.2272 25.8771 31.3113C25.9192 31.5007 25.9612 31.69 26.0033 31.8793C25.9402 31.9003 25.8771 31.9214 25.814 31.9424C25.9501 32.0252 25.9712 32.1303 25.8771 32.2579C25.9192 32.5104 25.9612 32.7628 26.0033 33.0152C25.9612 33.0573 25.9192 33.0993 25.8771 33.1414C25.9229 33.4036 25.9229 33.6561 25.8771 33.8987C25.9192 33.9408 25.9612 33.9828 26.0033 34.0249C25.9711 34.2095 25.9711 34.3777 26.0033 34.5298C25.9612 34.7401 25.9192 34.9505 25.8771 35.1609C25.9486 35.225 25.9276 35.2671 25.814 35.2871C25.9069 35.3319 25.949 35.4055 25.9402 35.5079C26.2977 35.5079 26.6553 35.5079 27.0128 35.5079C25.7393 35.5887 24.4564 35.5887 23.1639 35.5079C22.9667 35.4701 22.9457 35.3964 23.1008 35.2871C23.0752 35.0209 23.0752 34.7685 23.1008 34.5298C23.0752 34.4702 23.0332 34.4281 22.9746 34.4036C23.0424 34.3569 23.0845 34.2938 23.1008 34.2143C23.1031 33.9835 23.0821 33.7521 23.0377 33.5201C23.0798 33.1625 23.1218 32.8049 23.1639 32.4473C23.1218 32.4052 23.0798 32.3631 23.0377 32.3211C23.1157 31.8198 23.1157 31.336 23.0377 30.8696C23.206 30.8275 23.206 30.7855 23.0377 30.7434C23.0798 30.6593 23.1218 30.5751 23.1639 30.491C23.0369 30.4357 23.0369 30.3516 23.1639 30.2385C23.1872 30.1369 23.1452 30.0423 23.0377 29.9545C23.0413 29.7106 23.0623 29.4581 23.1008 29.1973Z" fill="#E3E3E3"/>
<path fill-rule="evenodd" clip-rule="evenodd" d="M43.9868 35.445C43.9973 36.6443 43.9868 37.8433 43.9552 39.0421C43.9195 39.2105 43.8879 39.3787 43.8606 39.547C43.5061 40.2073 43.0223 40.7647 42.4094 41.2193C41.4753 41.8652 40.4657 42.3595 39.3807 42.7023C39.3096 42.6631 39.2465 42.6105 39.1914 42.5445C39.2695 42.5494 39.3326 42.5389 39.3807 42.513C39.3476 42.4693 39.3055 42.4378 39.2545 42.4183C39.3055 42.3989 39.3476 42.3673 39.3807 42.3237C39.3386 42.3027 39.2966 42.2816 39.2545 42.2606C39.3014 42.1256 39.3435 41.989 39.3807 41.8504C39.3279 41.6765 39.3279 41.5187 39.3807 41.3771C39.3445 41.2787 39.3025 41.184 39.2545 41.0931C39.3815 41.0379 39.3815 40.9537 39.2545 40.8407C39.2191 40.7418 39.2612 40.6577 39.3807 40.5882C39.3297 40.5688 39.2876 40.5372 39.2545 40.4936C39.3309 40.4166 39.3309 40.3429 39.2545 40.2727C39.2966 40.2517 39.3386 40.2306 39.3807 40.2096C39.3597 40.1044 39.3386 39.9993 39.3176 39.8941C39.3597 39.873 39.4017 39.852 39.4438 39.831C39.3394 39.6892 39.3184 39.5419 39.3807 39.3892C39.3386 39.3471 39.2966 39.3051 39.2545 39.263C39.2808 39.0568 39.3229 38.8359 39.3807 38.6004C39.3789 38.5039 39.3368 38.4302 39.2545 38.3795C39.3131 38.355 39.3551 38.3129 39.3807 38.2533C39.3103 38.1754 39.3103 38.1017 39.3807 38.0324C39.252 37.9095 39.252 37.7727 39.3807 37.6222C39.3087 37.5755 39.3087 37.5228 39.3807 37.4645C39.3476 37.4208 39.3055 37.3892 39.2545 37.3698C39.3131 37.3453 39.3551 37.3032 39.3807 37.2436C39.313 37.1542 39.313 37.07 39.3807 36.9912C39.2298 36.9085 39.2298 36.8454 39.3807 36.8018C39.3386 36.7387 39.2966 36.6756 39.2545 36.6125C39.3101 36.5678 39.3521 36.5152 39.3807 36.4547C40.584 36.0213 41.6987 35.4218 42.7248 34.6562C42.969 34.4226 43.2004 34.1806 43.4189 33.9305C43.6989 33.5805 43.8776 33.1808 43.9552 32.7314C43.9868 33.6357 43.9973 34.5403 43.9868 35.445Z" fill="#FBFBFB"/>
<path fill-rule="evenodd" clip-rule="evenodd" d="M7.07435 32.9207C7.12249 33.1502 7.20666 33.3605 7.32674 33.5517C7.73416 34.1591 8.23893 34.6745 8.84107 35.0978C9.38169 35.4206 9.92849 35.7256 10.4816 36.0129C10.4665 36.137 10.4875 36.2528 10.5447 36.36C10.4576 36.4435 10.4365 36.5276 10.4816 36.6124C10.3244 36.6519 10.3244 36.7045 10.4816 36.7702C10.4282 36.8687 10.4492 36.9633 10.5447 37.0541C10.4947 37.1226 10.4526 37.1963 10.4185 37.275C10.4417 37.4202 10.4417 37.5569 10.4185 37.6852C10.5549 37.8352 10.5549 38.0035 10.4185 38.1901C10.4606 38.2322 10.5026 38.2742 10.5447 38.3163C10.4981 38.4573 10.4981 38.5835 10.5447 38.6949C10.5026 38.737 10.4606 38.779 10.4185 38.8211C10.4606 38.9263 10.5026 39.0315 10.5447 39.1367C10.3974 39.3126 10.3974 39.5125 10.5447 39.7362C10.5015 40.0691 10.5015 40.3741 10.5447 40.6512C10.4525 40.7759 10.4315 40.9021 10.4816 41.0299C10.456 41.0895 10.414 41.1316 10.3554 41.1561C10.5237 41.2823 10.5237 41.4085 10.3554 41.5347C10.4185 41.5557 10.4816 41.5768 10.5447 41.5978C10.4606 41.6609 10.4606 41.724 10.5447 41.7872C10.5026 41.8292 10.4606 41.8713 10.4185 41.9134C10.4751 42.0451 10.5172 42.1818 10.5447 42.3236C9.35272 41.8489 8.33263 41.1337 7.48448 40.1779C7.32901 39.9297 7.19228 39.6772 7.07435 39.4207C7.037 39.2549 7.01598 39.0866 7.01125 38.9158C6.9903 36.9066 7.01138 34.9083 7.07435 32.9207Z" fill="#BDBCBC"/>
<path fill-rule="evenodd" clip-rule="evenodd" d="M10.4812 36.0129C11.2846 36.3101 12.0838 36.6046 12.8789 36.8964C12.9311 37.0391 12.9521 37.1759 12.942 37.3066C12.8999 37.3276 12.8579 37.3487 12.8158 37.3697C12.8922 37.44 12.8922 37.5136 12.8158 37.5906C12.8789 37.6432 12.942 37.6958 13.0051 37.7484C12.8536 37.9058 12.8536 38.053 13.0051 38.1901C12.8665 38.2765 12.8454 38.3922 12.942 38.5372C12.9256 38.6437 12.8835 38.7383 12.8158 38.8212C12.8888 38.8849 12.9309 38.969 12.942 39.0736C12.9581 39.4391 12.9371 39.7757 12.8789 40.0833C12.921 40.1043 12.963 40.1254 13.0051 40.1464C12.8856 40.2145 12.8645 40.2987 12.942 40.3989C12.7919 40.4603 12.813 40.5024 13.0051 40.5251C12.9867 40.6592 12.9447 40.8065 12.8789 40.9668C12.9033 41.0631 12.9033 41.1683 12.8789 41.2824C13.0228 41.3992 13.0228 41.5044 12.8789 41.5979C12.9327 41.8787 12.9537 42.1522 12.942 42.4183C12.7911 42.4619 12.7911 42.525 12.942 42.6076C12.8789 42.6286 12.8158 42.6497 12.7527 42.6707C12.9261 42.7556 12.9472 42.8398 12.8158 42.9231C12.903 43.0033 12.9661 43.098 13.0051 43.2071C12.1648 42.9656 11.3445 42.6711 10.5443 42.3236C10.5168 42.1819 10.4747 42.0451 10.4181 41.9134C10.4602 41.8713 10.5022 41.8293 10.5443 41.7872C10.4602 41.7241 10.4602 41.661 10.5443 41.5979C10.4812 41.5769 10.4181 41.5558 10.355 41.5348C10.5233 41.4086 10.5233 41.2824 10.355 41.1561C10.4135 41.1317 10.4556 41.0896 10.4812 41.0299C10.4311 40.9022 10.4521 40.776 10.5443 40.6513C10.5011 40.3742 10.5011 40.0692 10.5443 39.7362C10.3969 39.5125 10.3969 39.3127 10.5443 39.1367C10.5022 39.0315 10.4602 38.9264 10.4181 38.8212C10.4602 38.7791 10.5022 38.7371 10.5443 38.695C10.4976 38.5836 10.4976 38.4574 10.5443 38.3163C10.5022 38.2742 10.4602 38.2322 10.4181 38.1901C10.5544 38.0035 10.5544 37.8352 10.4181 37.6853C10.4413 37.557 10.4413 37.4202 10.4181 37.2751C10.4522 37.1963 10.4942 37.1227 10.5443 37.0542C10.4487 36.9634 10.4277 36.8687 10.4812 36.7702C10.324 36.7045 10.324 36.652 10.4812 36.6125C10.4361 36.5277 10.4572 36.4436 10.5443 36.36C10.4871 36.2528 10.4661 36.1371 10.4812 36.0129Z" fill="#C4C4C4"/>
<path fill-rule="evenodd" clip-rule="evenodd" d="M39.38 36.4548C39.3514 36.5153 39.3094 36.5679 39.2538 36.6126C39.2959 36.6757 39.3379 36.7388 39.38 36.8019C39.2292 36.8455 39.2292 36.9086 39.38 36.9912C39.3123 37.0701 39.3123 37.1543 39.38 37.2437C39.3545 37.3033 39.3124 37.3454 39.2538 37.3699C39.3048 37.3893 39.3469 37.4209 39.38 37.4645C39.308 37.5229 39.308 37.5755 39.38 37.6223C39.2514 37.7728 39.2514 37.9096 39.38 38.0325C39.3097 38.1018 39.3097 38.1754 39.38 38.2534C39.3545 38.313 39.3124 38.3551 39.2538 38.3796C39.3361 38.4303 39.3782 38.504 39.38 38.6005C39.3222 38.836 39.2801 39.0569 39.2538 39.2631C39.2959 39.3052 39.3379 39.3472 39.38 39.3893C39.3177 39.542 39.3387 39.6892 39.4431 39.831C39.401 39.8521 39.359 39.8731 39.3169 39.8942C39.3379 39.9994 39.359 40.1045 39.38 40.2097C39.3379 40.2307 39.2959 40.2518 39.2538 40.2728C39.3302 40.343 39.3302 40.4167 39.2538 40.4937C39.287 40.5373 39.329 40.5689 39.38 40.5883C39.2605 40.6578 39.2184 40.7419 39.2538 40.8408C39.3808 40.9538 39.3808 41.038 39.2538 41.0932C39.3018 41.1841 39.3438 41.2788 39.38 41.3772C39.3272 41.5188 39.3272 41.6766 39.38 41.8505C39.3428 41.989 39.3007 42.1257 39.2538 42.2607C39.2959 42.2817 39.3379 42.3028 39.38 42.3238C39.3469 42.3674 39.3048 42.399 39.2538 42.4184C39.3048 42.4379 39.3469 42.4694 39.38 42.5131C39.3319 42.539 39.2688 42.5495 39.1907 42.5446C39.2458 42.6106 39.3089 42.6632 39.38 42.7024C38.2128 43.1484 37.0139 43.506 35.7835 43.7752C35.3257 43.8836 34.863 43.9678 34.3953 44.0276C34.3158 43.7188 34.3158 43.4243 34.3953 43.1442C34.3533 43.1231 34.3112 43.1021 34.2692 43.081C34.3249 43.0149 34.367 42.9413 34.3953 42.8602C34.3112 42.755 34.3112 42.6498 34.3953 42.5446C34.253 42.4289 34.253 42.3237 34.3953 42.2291C34.3112 42.1239 34.3112 42.0188 34.3953 41.9136C34.3533 41.8715 34.3112 41.8294 34.2692 41.7874C34.3887 41.7179 34.4307 41.6338 34.3953 41.5349C34.2271 41.4928 34.2271 41.4508 34.3953 41.4087C34.3112 41.3666 34.3112 41.3246 34.3953 41.2825C34.3322 41.2615 34.2692 41.2404 34.2061 41.2194C34.3322 41.1773 34.4164 41.0932 34.4584 40.967C34.3846 40.7978 34.3215 40.6295 34.2692 40.4621C34.3369 40.4155 34.379 40.3524 34.3953 40.2728C34.3082 39.9591 34.3292 39.6436 34.4584 39.3262C34.4187 39.2068 34.3556 39.1016 34.2692 39.0107C34.4371 38.789 34.4161 38.5997 34.2061 38.4427C34.409 38.2935 34.409 38.1883 34.2061 38.1272C34.2902 38.0851 34.3743 38.043 34.4584 38.001C34.3045 37.9673 34.2625 37.8937 34.3322 37.7801C36.041 37.437 37.7237 36.9952 39.38 36.4548Z" fill="#F6F5F5"/>
<path fill-rule="evenodd" clip-rule="evenodd" d="M12.8796 36.8965C13.8109 37.1083 14.7364 37.3397 15.6559 37.5907C15.705 37.6321 15.747 37.6846 15.7821 37.7484C15.718 38.0419 15.718 38.3364 15.7821 38.6319C15.74 38.6529 15.698 38.674 15.6559 38.695C15.6785 38.8369 15.7206 38.9947 15.7821 39.1683C15.74 39.2314 15.698 39.2945 15.6559 39.3576C15.6777 39.4331 15.7093 39.4331 15.7505 39.3576C15.7926 39.4839 15.7926 39.6101 15.7505 39.7363C15.7295 39.7153 15.7084 39.6942 15.6874 39.6732C15.5386 39.8388 15.5597 39.8809 15.7505 39.7994C15.7895 39.8593 15.779 39.9119 15.719 39.9572C15.7611 39.9782 15.8031 39.9993 15.8452 40.0203C15.8056 40.1681 15.7425 40.3049 15.6559 40.4305C15.698 40.5146 15.74 40.5988 15.7821 40.6829C15.7067 40.7755 15.7067 40.8701 15.7821 40.9669C15.6397 41.0826 15.6397 41.1878 15.7821 41.2824C15.698 41.4717 15.698 41.661 15.7821 41.8504C15.6539 41.952 15.6539 42.0676 15.7821 42.1975C15.7531 42.6405 15.7531 43.0928 15.7821 43.5542C15.74 43.5963 15.698 43.6384 15.6559 43.6805C15.7252 43.7291 15.7252 43.7816 15.6559 43.8382C15.5507 43.8382 15.4456 43.8382 15.3404 43.8382C14.5537 43.6573 13.7755 43.447 13.0058 43.2072C12.9669 43.0981 12.9038 43.0034 12.8165 42.9232C12.9479 42.8399 12.9269 42.7557 12.7534 42.6708C12.8165 42.6497 12.8796 42.6287 12.9427 42.6076C12.7918 42.525 12.7918 42.4619 12.9427 42.4183C12.9544 42.1522 12.9334 41.8787 12.8796 41.5979C13.0235 41.5044 13.0235 41.3992 12.8796 41.2824C12.9041 41.1683 12.9041 41.0631 12.8796 40.9669C12.9454 40.8066 12.9874 40.6593 13.0058 40.5251C12.8137 40.5025 12.7927 40.4604 12.9427 40.3989C12.8653 40.2988 12.8863 40.2146 13.0058 40.1465C12.9637 40.1255 12.9217 40.1044 12.8796 40.0834C12.9379 39.7757 12.9589 39.4391 12.9427 39.0737C12.9317 38.969 12.8896 38.8849 12.8165 38.8212C12.8842 38.7384 12.9263 38.6437 12.9427 38.5373C12.8462 38.3922 12.8672 38.2766 13.0058 38.1902C12.8543 38.053 12.8543 37.9058 13.0058 37.7484C12.9427 37.6959 12.8796 37.6432 12.8165 37.5907C12.8929 37.5137 12.8929 37.44 12.8165 37.3698C12.8586 37.3488 12.9006 37.3277 12.9427 37.3067C12.9529 37.1759 12.9319 37.0392 12.8796 36.8965Z" fill="#CACACA"/>
<path fill-rule="evenodd" clip-rule="evenodd" d="M15.6551 37.5906C16.5312 37.705 17.3934 37.8523 18.2421 38.0323C18.0314 38.0708 18.0104 38.1445 18.179 38.2532C18.1627 38.3328 18.1206 38.3959 18.0528 38.4425C18.1369 38.4846 18.2 38.5477 18.2421 38.6318C18.1991 38.861 18.1991 39.0819 18.2421 39.2945C18.1175 39.4235 18.1175 39.5287 18.2421 39.61C18.0861 39.7108 18.0861 39.8055 18.2421 39.894C18.1899 40.0206 18.1268 40.1468 18.0528 40.2726C18.1159 40.3357 18.179 40.3988 18.2421 40.4619C18.2 40.6092 18.158 40.7565 18.1159 40.9037C18.2615 41.019 18.2405 41.1242 18.0528 41.2192C18.2707 41.2377 18.2918 41.3218 18.1159 41.4716C18.158 41.5768 18.2 41.682 18.2421 41.7872C18.1924 42.141 18.1924 42.5091 18.2421 42.8915C18.1631 42.9863 18.1 43.0915 18.0528 43.2071C18.1451 43.1796 18.2082 43.2322 18.2421 43.3648C18.2254 43.5006 18.1623 43.6058 18.0528 43.6804C18.2587 43.7352 18.2797 43.8194 18.1159 43.9328C18.158 43.9538 18.2 43.9749 18.2421 43.9959C18.2161 44.0946 18.1951 44.1893 18.179 44.2799C17.3178 44.2021 16.4765 44.0549 15.6551 43.8381C15.7244 43.7815 15.7244 43.729 15.6551 43.6804C15.6972 43.6383 15.7392 43.5963 15.7813 43.5542C15.7524 43.0927 15.7524 42.6404 15.7813 42.1974C15.6532 42.0676 15.6532 41.9519 15.7813 41.8503C15.6972 41.661 15.6972 41.4716 15.7813 41.2823C15.639 41.1877 15.639 41.0825 15.7813 40.9668C15.7059 40.87 15.7059 40.7754 15.7813 40.6828C15.7392 40.5987 15.6972 40.5145 15.6551 40.4304C15.7418 40.3048 15.8048 40.168 15.8444 40.0202C15.8023 39.9992 15.7603 39.9781 15.7182 39.9571C15.7782 39.9118 15.7887 39.8592 15.7498 39.7993C15.5589 39.8808 15.5378 39.8387 15.6867 39.6731C15.7077 39.6941 15.7288 39.7152 15.7498 39.7362C15.7918 39.61 15.7918 39.4838 15.7498 39.3576C15.7085 39.433 15.6769 39.433 15.6551 39.3576C15.6972 39.2945 15.7392 39.2314 15.7813 39.1682C15.7198 38.9946 15.6777 38.8368 15.6551 38.6949C15.6972 38.6739 15.7392 38.6529 15.7813 38.6318C15.7172 38.3363 15.7172 38.0418 15.7813 37.7483C15.7462 37.6845 15.7042 37.632 15.6551 37.5906Z" fill="#D1D0D0"/>
<path fill-rule="evenodd" clip-rule="evenodd" d="M34.3324 37.7798C34.2627 37.8934 34.3047 37.967 34.4586 38.0007C34.3745 38.0428 34.2904 38.0848 34.2062 38.1269C34.4092 38.188 34.4092 38.2932 34.2062 38.4424C34.4163 38.5994 34.4373 38.7887 34.2693 39.0104C34.3558 39.1013 34.4189 39.2065 34.4586 39.3259C34.3294 39.6433 34.3084 39.9588 34.3955 40.2725C34.3792 40.3521 34.3371 40.4152 34.2693 40.4618C34.3217 40.6292 34.3848 40.7976 34.4586 40.9667C34.4165 41.0929 34.3324 41.177 34.2062 41.2191C34.2693 41.2401 34.3324 41.2612 34.3955 41.2822C34.3114 41.3243 34.3114 41.3663 34.3955 41.4084C34.2273 41.4505 34.2273 41.4925 34.3955 41.5346C34.4309 41.6335 34.3888 41.7176 34.2693 41.7871C34.3114 41.8292 34.3535 41.8712 34.3955 41.9133C34.3114 42.0185 34.3114 42.1236 34.3955 42.2288C34.2532 42.3234 34.2532 42.4286 34.3955 42.5443C34.3114 42.6495 34.3114 42.7547 34.3955 42.8599C34.3671 42.941 34.3251 43.0146 34.2693 43.0808C34.3114 43.1018 34.3535 43.1228 34.3955 43.1439C34.316 43.424 34.316 43.7185 34.3955 44.0274C32.8934 44.2993 31.3791 44.4886 29.8525 44.5953C29.6697 44.619 29.5015 44.5874 29.3478 44.5007C29.4085 44.1943 29.4085 43.8998 29.3478 43.6172C29.3899 43.5961 29.4319 43.5751 29.474 43.5541C29.4319 43.4278 29.3899 43.3016 29.3478 43.1754C29.516 43.0913 29.516 43.0071 29.3478 42.923C29.3807 42.785 29.3807 42.6378 29.3478 42.4812C29.3899 42.3971 29.4319 42.3129 29.474 42.2288C29.4063 42.1282 29.3432 42.0336 29.2847 41.9448C29.3268 41.9238 29.3688 41.9027 29.4109 41.8817C29.3688 41.7977 29.3688 41.7031 29.4109 41.5977C29.3948 41.5141 29.3527 41.451 29.2847 41.4084C29.3268 41.3874 29.3688 41.3663 29.4109 41.3453C29.3899 41.156 29.3688 40.9667 29.3478 40.7774C29.47 40.6304 29.449 40.4832 29.2847 40.3356C29.4529 40.2304 29.4529 40.1253 29.2847 40.0201C29.4788 39.8881 29.4998 39.7198 29.3478 39.5152C29.3899 39.4942 29.4319 39.4731 29.474 39.4521C29.3411 39.2701 29.3411 39.0807 29.474 38.8842C29.4217 38.8264 29.3586 38.7844 29.2847 38.7579C29.3357 38.7385 29.3777 38.7069 29.4109 38.6633C29.3792 38.5865 29.3582 38.5129 29.3478 38.4424C29.4056 38.4249 29.4476 38.3933 29.474 38.3477C31.0886 38.1916 32.7081 38.0023 34.3324 37.7798Z" fill="#F0EFEF"/>
<path fill-rule="evenodd" clip-rule="evenodd" d="M18.243 38.0322C19.027 38.089 19.8052 38.1731 20.5776 38.2847C20.6989 38.3722 20.6989 38.4879 20.5776 38.6317C20.633 38.7628 20.633 38.91 20.5776 39.0735C20.7459 39.1576 20.7459 39.2418 20.5776 39.3259C20.6617 39.389 20.6617 39.4521 20.5776 39.5152C20.6197 39.5363 20.6617 39.5573 20.7038 39.5783C20.6197 39.6414 20.6197 39.7046 20.7038 39.7677C20.6528 39.7871 20.6107 39.8187 20.5776 39.8623C20.627 40.5556 20.627 41.2392 20.5776 41.9133C20.7459 41.9554 20.7459 41.9974 20.5776 42.0395C20.6078 42.407 20.6288 42.7751 20.6407 43.1439C20.3915 43.1561 20.3915 43.1876 20.6407 43.2385C20.5845 43.5052 20.5845 43.7576 20.6407 43.9958C20.4724 44.0799 20.4724 44.1641 20.6407 44.2482C20.5614 44.3793 20.5824 44.495 20.7038 44.5953C19.8486 44.5305 19.0073 44.4253 18.1799 44.2798C18.196 44.1892 18.217 44.0945 18.243 43.9958C18.2009 43.9748 18.1589 43.9537 18.1168 43.9327C18.2806 43.8193 18.2596 43.7351 18.0537 43.6803C18.1632 43.6057 18.2263 43.5005 18.243 43.3647C18.2091 43.2321 18.146 43.1795 18.0537 43.207C18.1009 43.0914 18.164 42.9862 18.243 42.8914C18.1933 42.509 18.1933 42.1409 18.243 41.7871C18.2009 41.6819 18.1589 41.5767 18.1168 41.4715C18.2927 41.3217 18.2716 41.2376 18.0537 41.2191C18.2414 41.1241 18.2624 41.0189 18.1168 40.9036C18.1589 40.7564 18.2009 40.6091 18.243 40.4618C18.1799 40.3987 18.1168 40.3356 18.0537 40.2725C18.1277 40.1467 18.1908 40.0205 18.243 39.8939C18.087 39.8054 18.087 39.7107 18.243 39.6099C18.1184 39.5286 18.1184 39.4234 18.243 39.2944C18.2 39.0818 18.2 38.8609 18.243 38.6317C18.2009 38.5476 18.1378 38.4845 18.0537 38.4424C18.1215 38.3958 18.1636 38.3327 18.1799 38.2531C18.0113 38.1444 18.0323 38.0707 18.243 38.0322Z" fill="#D7D6D6"/>
<path fill-rule="evenodd" clip-rule="evenodd" d="M20.5769 38.2847C21.4016 38.3331 22.2218 38.3962 23.0377 38.474C23.0436 38.5942 23.0646 38.7099 23.1008 38.8211C23.0587 38.8421 23.0167 38.8632 22.9746 38.8842C23.1429 39.0735 23.1429 39.2628 22.9746 39.4521C23.1429 39.4942 23.1429 39.5363 22.9746 39.5784C23.0167 39.5994 23.0587 39.6204 23.1008 39.6415C23.0515 40.3813 23.0515 41.1175 23.1008 41.8502C23.0587 41.8712 23.0167 41.8923 22.9746 41.9133C23.1217 42.0269 23.1217 42.1531 22.9746 42.2919C23.0287 42.3354 23.0707 42.388 23.1008 42.4497C23.0214 42.5853 23.0214 42.722 23.1008 42.8599C23.0752 42.9195 23.0332 42.9616 22.9746 42.9861C23.0167 43.0071 23.0587 43.0282 23.1008 43.0492C23.065 43.131 23.065 43.2257 23.1008 43.3332C23.0876 43.4275 23.0455 43.5011 22.9746 43.5541C23.0424 43.6007 23.0844 43.6638 23.1008 43.7434C23.0747 43.8567 23.0747 43.9619 23.1008 44.0589C22.9325 44.101 22.9325 44.1431 23.1008 44.1852C23.0289 44.3172 23.0289 44.4539 23.1008 44.5953C23.0539 44.6384 23.0119 44.6805 22.9746 44.7216C22.2152 44.7149 21.4581 44.6728 20.7031 44.5953C20.5817 44.495 20.5607 44.3793 20.64 44.2483C20.4717 44.1641 20.4717 44.08 20.64 43.9958C20.5838 43.7576 20.5838 43.5052 20.64 43.2385C20.3908 43.1876 20.3908 43.1561 20.64 43.1439C20.6281 42.7751 20.6071 42.407 20.5769 42.0395C20.7452 41.9974 20.7452 41.9554 20.5769 41.9133C20.6263 41.2392 20.6263 40.5556 20.5769 39.8623C20.61 39.8187 20.6521 39.7871 20.7031 39.7677C20.619 39.7046 20.619 39.6415 20.7031 39.5784C20.661 39.5573 20.619 39.5363 20.5769 39.5153C20.661 39.4521 20.661 39.389 20.5769 39.3259C20.7452 39.2418 20.7452 39.1576 20.5769 39.0735C20.6323 38.9101 20.6323 38.7628 20.5769 38.6318C20.6982 38.4879 20.6982 38.3722 20.5769 38.2847Z" fill="#DDDDDD"/>
<path fill-rule="evenodd" clip-rule="evenodd" d="M29.4742 38.3479C29.4478 38.3935 29.4058 38.425 29.348 38.4426C29.3584 38.5131 29.3794 38.5867 29.4111 38.6634C29.378 38.7071 29.3359 38.7387 29.2849 38.7581C29.3589 38.7845 29.422 38.8266 29.4742 38.8843C29.3414 39.0809 29.3414 39.2702 29.4742 39.4523C29.4321 39.4733 29.3901 39.4944 29.348 39.5154C29.5001 39.72 29.4791 39.8882 29.2849 40.0202C29.4532 40.1254 29.4532 40.2306 29.2849 40.3358C29.4493 40.4834 29.4703 40.6306 29.348 40.7775C29.369 40.9668 29.3901 41.1562 29.4111 41.3455C29.369 41.3665 29.327 41.3876 29.2849 41.4086C29.3529 41.4511 29.395 41.5142 29.4111 41.5979C29.3691 41.7032 29.3691 41.7979 29.4111 41.8819C29.369 41.9029 29.327 41.924 29.2849 41.945C29.3434 42.0337 29.4065 42.1284 29.4742 42.229C29.4321 42.3131 29.3901 42.3973 29.348 42.4814C29.3809 42.638 29.3809 42.7852 29.348 42.9231C29.5163 43.0073 29.5163 43.0914 29.348 43.1756C29.3901 43.3018 29.4321 43.428 29.4742 43.5542C29.4321 43.5752 29.3901 43.5963 29.348 43.6173C29.4088 43.9 29.4088 44.1945 29.348 44.5008C29.5018 44.5876 29.67 44.6191 29.8528 44.5955C28.5615 44.7211 27.2575 44.7842 25.9408 44.7848C25.9429 44.6145 25.9008 44.4567 25.8146 44.3115C25.8566 44.2694 25.8987 44.2274 25.9408 44.1853C25.8741 43.5578 25.8741 42.9267 25.9408 42.2921C25.7802 42.1801 25.7802 42.0644 25.9408 41.945C25.9033 41.8262 25.8613 41.7105 25.8146 41.5979C26.0047 41.3537 25.9837 41.1434 25.7515 40.9668C25.8254 40.9404 25.8885 40.8984 25.9408 40.8406C25.9731 40.7412 25.931 40.657 25.8146 40.5882C25.8849 40.5103 25.8849 40.4366 25.8146 40.3673C25.8364 40.2918 25.8679 40.2918 25.9092 40.3673C25.9586 40.2453 25.9271 40.1507 25.8146 40.0833C25.8893 40.0089 25.9314 39.9142 25.9408 39.7994C25.904 39.4995 25.904 39.205 25.9408 38.9159C25.9076 38.8722 25.8655 38.8406 25.8146 38.8212C25.8731 38.7967 25.9152 38.7546 25.9408 38.695C25.8677 38.6154 25.8677 38.5418 25.9408 38.4741C27.1196 38.4592 28.2974 38.4171 29.4742 38.3479Z" fill="#EAEAEA"/>
<path fill-rule="evenodd" clip-rule="evenodd" d="M23.0377 38.4741C24.0052 38.4741 24.9727 38.4741 25.9402 38.4741C25.8671 38.5418 25.8671 38.6154 25.9402 38.695C25.9146 38.7546 25.8726 38.7967 25.814 38.8212C25.865 38.8406 25.9071 38.8722 25.9402 38.9159C25.9035 39.205 25.9035 39.4995 25.9402 39.7994C25.9308 39.9142 25.8887 40.0089 25.814 40.0833C25.9265 40.1507 25.958 40.2453 25.9086 40.3673C25.8674 40.2918 25.8358 40.2918 25.814 40.3673C25.8844 40.4366 25.8844 40.5103 25.814 40.5882C25.9305 40.657 25.9726 40.7412 25.9402 40.8406C25.8879 40.8984 25.8248 40.9404 25.7509 40.9668C25.9832 41.1434 26.0042 41.3537 25.814 41.5979C25.8607 41.7106 25.9028 41.8262 25.9402 41.945C25.7797 42.0644 25.7797 42.1801 25.9402 42.2921C25.8735 42.9267 25.8735 43.5578 25.9402 44.1853C25.8981 44.2274 25.8561 44.2694 25.814 44.3115C25.9003 44.4567 25.9423 44.6145 25.9402 44.7848C24.9487 44.8039 23.9601 44.7828 22.9746 44.7217C23.0119 44.6806 23.0539 44.6385 23.1008 44.5955C23.0289 44.4541 23.0289 44.3173 23.1008 44.1853C22.9325 44.1432 22.9325 44.1012 23.1008 44.0591C23.0748 43.9621 23.0748 43.8569 23.1008 43.7435C23.0845 43.664 23.0424 43.6009 22.9746 43.5542C23.0455 43.5013 23.0876 43.4276 23.1008 43.3333C23.065 43.2258 23.065 43.1311 23.1008 43.0494C23.0587 43.0283 23.0167 43.0073 22.9746 42.9863C23.0332 42.9618 23.0753 42.9197 23.1008 42.86C23.0214 42.7222 23.0214 42.5854 23.1008 42.4498C23.0707 42.3881 23.0287 42.3356 22.9746 42.2921C23.1217 42.1532 23.1217 42.027 22.9746 41.9134C23.0167 41.8924 23.0587 41.8713 23.1008 41.8503C23.0515 41.1177 23.0515 40.3815 23.1008 39.6416C23.0587 39.6206 23.0167 39.5995 22.9746 39.5785C23.1429 39.5364 23.1429 39.4944 22.9746 39.4523C23.1429 39.263 23.1429 39.0736 22.9746 38.8843C23.0167 38.8633 23.0587 38.8422 23.1008 38.8212C23.0646 38.71 23.0436 38.5943 23.0377 38.4741Z" fill="#E3E3E3"/>
<defs>
<linearGradient id="paint0_linear_323_6382" x1="26" y1="0" x2="26" y2="52" gradientUnits="userSpaceOnUse">
<stop stop-color="#AA2020"/>
<stop offset="1" stop-color="#671414"/>
</linearGradient>
</defs>
</svg>
