<svg width="66" height="52" viewBox="0 0 66 52" fill="none" xmlns="http://www.w3.org/2000/svg">
<path d="M19.6108 9.28801C19.6108 4.9096 19.6108 2.7204 20.9841 1.36019C22.3573 0 24.5675 0 28.9879 0H37.2831C41.7034 0 43.9136 0 45.2868 1.36019C46.6601 2.7204 46.6601 4.9096 46.6601 9.28801V17.5044C46.6601 21.8828 46.6601 24.072 45.2868 25.4321C43.9136 26.7923 41.7034 26.7923 37.2831 26.7923H28.9879C24.5675 26.7923 22.3573 26.7923 20.9841 25.4321C19.6108 24.072 19.6108 21.8828 19.6108 17.5044V9.28801Z" fill="#4945FF"/>
<path fill-rule="evenodd" clip-rule="evenodd" d="M38.2745 8.12695H29.168V12.7263H33.8114V17.3256H38.4549V8.30556C38.4549 8.20693 38.3742 8.12695 38.2745 8.12695Z" fill="white"/>
<path d="M33.8112 9.89819H33.6309V10.0768H33.8112V9.89819Z" fill="white"/>
<path d="M29.168 12.7263H33.6311C33.7306 12.7263 33.8114 12.8063 33.8114 12.9049V17.3256H29.3483C29.2487 17.3256 29.168 17.2457 29.168 17.1471V12.7263Z" fill="#9593FF"/>
<path d="M33.812 17.3257H38.4554L33.9659 21.7725C33.9091 21.8288 33.812 21.789 33.812 21.7094V17.3257Z" fill="#9593FF"/>
<path d="M29.168 12.7263H24.7422C24.6618 12.7263 24.6217 12.6301 24.6785 12.5739L29.168 8.12695V12.7263Z" fill="#9593FF"/>
<path d="M62.5896 32.1841C62.9839 32.5769 63.4495 32.7733 63.9866 32.7733C64.5403 32.7733 65.0143 32.5769 65.4086 32.1841C65.8029 31.7914 66.0001 31.3276 66.0001 30.7927C66.0001 30.2578 65.8029 29.7897 65.4086 29.3886C65.0143 28.9874 64.5403 28.7869 63.9866 28.7869C63.4495 28.7869 62.9839 28.9874 62.5896 29.3886C62.1952 29.7897 61.998 30.2578 61.998 30.7927C61.998 31.3276 62.1952 31.7914 62.5896 32.1841Z" fill="#212067"/>
<path d="M20.1271 37.3125C20.1271 37.3536 20.0937 37.3869 20.0523 37.3869H17.2829V42.602C17.2829 43.0366 17.392 43.3542 17.6102 43.5547C17.8283 43.7553 18.1471 43.8681 18.5667 43.8932C18.9505 43.9161 19.4184 43.9145 19.9708 43.8885L19.985 43.8879L20.0105 43.8867L20.0484 43.8847C20.0912 43.8825 20.1271 43.9164 20.1271 43.959V46.7476C20.1271 46.7855 20.0985 46.8174 20.0606 46.8214C20.0422 46.8234 20.0235 46.8255 20.0099 46.827C17.8402 47.0573 16.3062 46.8441 15.4078 46.1873C14.4933 45.5187 14.036 44.3237 14.036 42.602V37.3869H11.9211C11.8797 37.3869 11.8462 37.3536 11.8462 37.3125V34.3524C11.8462 34.3112 11.8797 34.278 11.9211 34.278H14.036V32.2074C14.036 32.1484 14.0711 32.0951 14.1253 32.0713L17.1778 30.733C17.2273 30.7113 17.2829 30.7473 17.2829 30.801V34.278H20.0523C20.0937 34.278 20.1271 34.3112 20.1271 34.3524V37.3125Z" fill="#212067"/>
<path d="M26.0151 36.434C26.3171 35.6317 26.8163 35.03 27.5126 34.6289C28.1499 34.2617 28.854 34.0626 29.6248 34.0314C29.662 34.03 29.719 34.0289 29.7653 34.0281C29.807 34.0274 29.8409 34.0609 29.8409 34.1022V37.5044C29.8409 37.5754 29.7787 37.63 29.7074 37.6236C28.7711 37.5392 27.9305 37.7445 27.1855 38.2393C26.4051 38.7575 26.0151 39.6182 26.0151 40.8217V46.7396C26.0151 46.7807 25.9815 46.8141 25.9401 46.8141H22.843C22.8016 46.8141 22.7681 46.7807 22.7681 46.7396V34.3521C22.7681 34.3111 22.8016 34.2778 22.843 34.2778H25.9401C25.9815 34.2778 26.0151 34.3111 26.0151 34.3521V36.434Z" fill="#212067"/>
<path fill-rule="evenodd" clip-rule="evenodd" d="M41.3682 34.2775C41.327 34.2775 41.2934 34.3107 41.2934 34.3518V35.7567C40.3201 34.5366 38.9526 33.9265 37.1906 33.9265C35.5126 33.9265 34.0737 34.5658 32.8739 35.8444C31.6742 37.1232 31.0742 38.6902 31.0742 40.5456C31.0742 42.4009 31.6742 43.9679 32.8739 45.2465C34.0737 46.5253 35.5126 47.1646 37.1906 47.1646C38.9526 47.1646 40.3201 46.5545 41.2934 45.3343V46.7393C41.2934 46.7803 41.327 46.8136 41.3682 46.8136H44.4654C44.5067 46.8136 44.5403 46.7803 44.5403 46.7393V34.3518C44.5403 34.3107 44.5067 34.2775 44.4654 34.2775H41.3682ZM35.3026 43.103C35.957 43.755 36.7877 44.0809 37.7945 44.0809C38.8012 44.0809 39.6361 43.7507 40.299 43.0906C40.9617 42.4303 41.2932 41.582 41.2932 40.5457C41.2932 39.5094 40.9617 38.6611 40.299 38.0008C39.6361 37.3407 38.8012 37.0104 37.7945 37.0104C36.7877 37.0104 35.957 37.3407 35.3026 38.0008C34.6482 38.6611 34.3209 39.5094 34.3209 40.5457C34.3209 41.582 34.6482 42.4344 35.3026 43.103Z" fill="#212067"/>
<path fill-rule="evenodd" clip-rule="evenodd" d="M58.643 35.8444C57.4431 34.5658 55.9959 33.9265 54.3011 33.9265C52.5392 33.9265 51.18 34.5366 50.2236 35.7567V34.3518C50.2236 34.3107 50.19 34.2775 50.1486 34.2775H47.0515C47.0101 34.2775 46.9766 34.3107 46.9766 34.3518V51.7537C46.9766 51.7947 47.0101 51.8281 47.0515 51.8281H50.1486C50.19 51.8281 50.2236 51.7947 50.2236 51.7537V45.3343C51.18 46.5545 52.5392 47.1646 54.3011 47.1646C55.9959 47.1646 57.4431 46.5253 58.643 45.2465C59.8428 43.9679 60.4426 42.4009 60.4426 40.5456C60.4426 38.6902 59.8428 37.1232 58.643 35.8444ZM51.2049 43.103C51.8594 43.755 52.6899 44.0809 53.6968 44.0809C54.7036 44.0809 55.5385 43.7507 56.2012 43.0906C56.864 42.4303 57.1955 41.582 57.1955 40.5457C57.1955 39.5094 56.864 38.6611 56.2012 38.0008C55.5385 37.3407 54.7036 37.0104 53.6968 37.0104C52.6899 37.0104 51.8594 37.3407 51.2049 38.0008C50.5504 38.6611 50.2233 39.5094 50.2233 40.5457C50.2233 41.582 50.5504 42.4344 51.2049 43.103Z" fill="#212067"/>
<path d="M62.4509 46.814C62.4095 46.814 62.376 46.7806 62.376 46.7396V34.3522C62.376 34.3111 62.4095 34.2778 62.4509 34.2778H65.548C65.5894 34.2778 65.623 34.3111 65.623 34.3522V46.7396C65.623 46.7806 65.5894 46.814 65.548 46.814H62.4509Z" fill="#212067"/>
<path d="M4.49223 38.6527C4.04755 38.4437 3.82521 38.1722 3.82521 37.8378C3.82521 37.5203 3.96365 37.2695 4.24052 37.0857C4.5174 36.9018 4.86558 36.8099 5.28508 36.8099C6.08951 36.8099 6.69718 37.1223 7.1081 37.747C7.13677 37.7905 7.19254 37.8082 7.24046 37.787L9.97995 36.5798C10.0207 36.5618 10.0367 36.5126 10.014 36.4746C9.98385 36.4238 9.94409 36.3578 9.91767 36.3164C9.44808 35.5811 8.84069 35.0334 8.07897 34.616C7.23997 34.1564 6.30868 33.9265 5.28508 33.9265C3.92589 33.9265 2.78905 34.2818 1.87453 34.9922C0.960002 35.7026 0.502748 36.6762 0.502748 37.9131C0.502748 38.7321 0.725082 39.4132 1.16976 39.9564C1.61443 40.4997 2.15558 40.8967 2.79324 41.1474C3.43089 41.3981 4.06852 41.6071 4.70618 41.7743C5.34382 41.9413 5.88497 42.1294 6.32964 42.3384C6.77432 42.5472 6.99667 42.8189 6.99667 43.1531C6.99667 43.872 6.41774 44.2312 5.25991 44.2312C4.15779 44.2312 3.39404 43.8256 2.96868 43.0141C2.93215 42.9444 2.84853 42.9125 2.77621 42.9444L0.0444308 44.1502C0.00592957 44.1671 -0.0108954 44.2124 0.0074141 44.25C0.0184676 44.2728 0.0301173 44.2965 0.0386392 44.3135C0.993309 46.2143 2.73372 47.1647 5.25991 47.1647C6.70302 47.1647 7.90698 46.8179 8.87184 46.1243C9.8367 45.4306 10.3191 44.4402 10.3191 43.1531C10.3191 42.3007 10.0968 41.5903 9.65212 41.0221C9.20744 40.4537 8.66628 40.0484 8.02863 39.8061C7.39099 39.5636 6.75334 39.3631 6.1157 39.2043C5.47805 39.0455 4.93691 38.8617 4.49223 38.6527Z" fill="#212067"/>
</svg>
