<svg width="39" height="46" viewBox="0 0 39 46" fill="none" xmlns="http://www.w3.org/2000/svg">
<path d="M35.8379 6.08709C31.5664 -0.0266158 23.1296 -1.83999 17.0298 2.04757L6.31716 8.87554C4.86987 9.78595 3.62848 10.9884 2.67237 12.4059C1.71625 13.8234 1.06645 15.4248 0.764512 17.1078C0.253494 19.9424 0.70257 22.8666 2.04065 25.4173C1.12348 26.8082 0.498052 28.3708 0.202224 30.0104C-0.103016 31.7273 -0.0623543 33.4878 0.321823 35.1887C0.706 36.8896 1.42596 38.4966 2.43947 39.9156C6.71105 46.0301 15.1483 47.8427 21.2472 43.9551L31.9602 37.1271C33.4075 36.2168 34.6489 35.0143 35.6051 33.5968C36.5612 32.1793 37.211 30.5779 37.5129 28.8949C38.0237 26.0601 37.5747 23.136 36.2372 20.585C37.1539 19.1941 37.779 17.6316 38.0748 15.9922C38.3802 14.2754 38.3397 12.5149 37.9555 10.8139C37.5713 9.11301 36.8517 7.50595 35.8379 6.08709Z" fill="#FF3E00"/>
<path d="M15.9832 40.4909C14.2973 40.9292 12.5175 40.8395 10.8842 40.234C9.2509 39.6286 7.84271 38.5365 6.8498 37.1053C6.24042 36.2521 5.8075 35.2859 5.57645 34.2632C5.34539 33.2405 5.32085 32.182 5.50425 31.1497C5.56633 30.8108 5.65183 30.4766 5.76014 30.1496L5.96181 29.5335L6.51095 29.9364C7.77801 30.868 9.19485 31.5765 10.7004 32.0311L11.0984 32.1519L11.0618 32.5495C11.0131 33.1148 11.1662 33.6791 11.4939 34.1423C11.7929 34.5737 12.2171 34.903 12.7093 35.0855C13.2015 35.2681 13.7378 35.2951 14.2458 35.1629C14.4782 35.1011 14.6998 35.0042 14.903 34.8754L25.6164 28.0454C25.8785 27.8803 26.1034 27.6625 26.2766 27.4057C26.4499 27.1489 26.5678 26.8589 26.6227 26.5541C26.6777 26.2429 26.6701 25.9238 26.6004 25.6156C26.5307 25.3073 26.4004 25.0161 26.2169 24.7588C25.9179 24.3273 25.4937 23.998 25.0016 23.8154C24.5095 23.6327 23.9731 23.6054 23.465 23.7373C23.2326 23.799 23.011 23.896 22.8079 24.0248L18.7195 26.6309C18.0468 27.0584 17.3127 27.3805 16.5426 27.5862C14.8567 28.0244 13.0769 27.9348 11.4436 27.3293C9.81031 26.7239 8.40213 25.6318 7.40922 24.2006C6.79965 23.3475 6.36661 22.3813 6.13548 21.3586C5.90435 20.3359 5.87979 19.2773 6.06326 18.245C6.24536 17.2329 6.6367 16.2699 7.21226 15.4177C7.78782 14.5654 8.53492 13.8427 9.40577 13.2957L20.118 6.46816C20.7905 6.04003 21.5247 5.71743 22.2949 5.51157C23.9808 5.07328 25.7606 5.16292 27.3939 5.76837C29.0272 6.37383 30.4354 7.46594 31.4283 8.89721C32.0377 9.75035 32.4707 10.7166 32.7018 11.7393C32.933 12.7619 32.9576 13.8205 32.7742 14.8528C32.7113 15.1922 32.6252 15.5269 32.5167 15.8546L32.315 16.4706L31.7663 16.0685C30.4993 15.1368 29.0824 14.4284 27.5769 13.9738L27.1784 13.8531L27.2154 13.4555C27.2636 12.8902 27.1106 12.3261 26.7833 11.8627C26.4845 11.4316 26.0606 11.1026 25.5688 10.9201C25.0771 10.7376 24.5412 10.7103 24.0335 10.842C23.8011 10.9038 23.5794 11.0007 23.3763 11.1295L12.6616 17.9571C12.3996 18.1221 12.1748 18.3398 12.0016 18.5966C11.8284 18.8533 11.7106 19.1433 11.6557 19.448C11.6005 19.7592 11.6079 20.0783 11.6774 20.3867C11.747 20.695 11.8773 20.9864 12.0607 21.2437C12.3598 21.6751 12.784 22.0044 13.2761 22.187C13.7682 22.3697 14.3045 22.397 14.8126 22.2652C15.045 22.2033 15.2666 22.1063 15.4698 21.9777L19.5574 19.3729C20.2298 18.9447 20.964 18.6222 21.7342 18.4167C23.4196 17.9786 25.1988 18.0681 26.8317 18.6732C28.4646 19.2782 29.8726 20.3697 30.8656 21.8003C31.4751 22.6534 31.9082 23.6196 32.1393 24.6423C32.3704 25.665 32.395 26.7235 32.2115 27.7559C32.0298 28.7679 31.639 29.731 31.064 30.5835C30.4891 31.436 29.7426 32.1591 28.8723 32.7068L18.1601 39.5343C17.4876 39.9625 16.7534 40.2851 15.9832 40.4909Z" fill="white"/>
</svg>
