<svg width="72" height="31" viewBox="0 0 72 31" fill="none" xmlns="http://www.w3.org/2000/svg">
<path d="M69.9972 20.6889H69.5125V21.9508H69.0886V20.6889H68.6033V20.3244H69.9972V20.6889ZM70.1867 20.3244H70.8107L71.0907 21.4086H71.0953L71.3759 20.3244H71.9999V21.9508H71.6011V20.7163H71.5965L71.2551 21.9509H70.9315L70.5895 20.7163H70.5849V21.9509H70.1867V20.3244ZM53.2191 21.8591C52.6277 22.1085 52.0305 22.2333 51.428 22.2333C50.4767 22.2333 49.6217 22.0675 48.862 21.7366C48.1023 21.4056 47.4618 20.9497 46.94 20.3683C46.4179 19.7876 46.0181 19.1049 45.7399 18.3207C45.4615 17.5364 45.3223 16.6908 45.3223 15.7845C45.3223 14.8554 45.4611 13.9926 45.7386 13.1965C46.016 12.4008 46.4152 11.7066 46.9358 11.1139C47.4565 10.5213 48.0962 10.0567 48.8554 9.71941C49.6147 9.38259 50.4697 9.21387 51.421 9.21387C52.0587 9.21387 52.6759 9.31009 53.2732 9.50205C53.8704 9.69445 54.4094 9.97688 54.8908 10.3493C55.372 10.7218 55.7692 11.1811 56.0822 11.7267C56.3954 12.2727 56.5869 12.899 56.6566 13.6062H54.0477C53.8851 12.9108 53.5719 12.3889 53.1082 12.041C52.644 11.6931 52.0816 11.5191 51.421 11.5191C50.8062 11.5191 50.2844 11.6382 49.8554 11.8765C49.4265 12.1147 49.0785 12.4343 48.8117 12.835C48.5448 13.2362 48.3508 13.6922 48.2293 14.2034C48.1072 14.7146 48.0468 15.243 48.0468 15.789C48.0468 16.3122 48.1076 16.8205 48.2296 17.3141C48.3517 17.8078 48.546 18.2523 48.8129 18.6472C49.0797 19.0422 49.4281 19.3586 49.8578 19.5968C50.2872 19.835 50.8098 19.9542 51.4256 19.9542C52.331 19.9542 53.03 19.7258 53.5236 19.269C54.0173 18.8122 54.3045 18.1499 54.3861 17.2823H51.6379V15.2389H56.8484V21.9545H55.1146L54.8371 20.5456C54.3501 21.1719 53.8105 21.6099 53.2191 21.8591ZM61.2768 9.52824V19.6399H67.3302V21.9451H58.5524V9.52824H61.2768Z" fill="#961A1F"/>
<path d="M48.3926 23.4885C44.2242 26.0238 37.9811 27.4668 31.0151 27.4668C18.4651 27.4668 8.29122 22.2409 8.29122 15.7942C8.29122 9.34769 18.4651 4.1217 31.0152 4.1217C38.0065 4.1217 44.2752 5.59156 48.4437 8.14268C43.8936 3.86828 35.7355 0.864669 26.4079 0.863282C12.1219 0.860905 0.539812 7.54404 0.538574 15.7902C0.537386 24.0361 12.1174 30.7233 26.4033 30.7254C35.694 30.7268 43.8308 27.733 48.3926 23.4885Z" fill="#961A1F"/>
<path d="M25.4984 8.56201L23.1028 18.9285L20.2101 8.56201H18.0135L15.1273 18.9287L12.7245 8.56201H10.4612L14.0158 22.0741H16.1393L19.1296 11.4611L22.0839 22.0741H24.2135L27.8931 8.56201H25.4984ZM33.8786 14.2493C33.546 13.7811 33.1299 13.4207 32.6417 13.1781C32.1397 12.9285 31.5576 12.802 30.9118 12.802C30.1849 12.802 29.53 12.9338 28.9653 13.1938C28.4298 13.4404 27.9726 13.8029 27.6066 14.2714C26.929 15.1384 26.5709 16.3601 26.5709 17.804C26.5709 18.4467 26.662 19.0497 26.8419 19.5964C27.0227 20.1461 27.2897 20.6286 27.6354 21.0303C28.3622 21.8748 29.3983 22.3212 30.6319 22.3212C31.2796 22.3212 31.8084 22.2535 32.2483 22.1141C32.6328 21.9925 32.8883 21.8349 33.0975 21.6967C33.3673 21.5188 33.6149 21.3001 33.834 21.047C34.02 20.8321 34.1856 20.592 34.3263 20.3336C34.5784 19.8706 34.7004 19.4382 34.7282 19.2085L34.7466 19.0566H32.982L32.9723 19.1817C32.9277 19.755 32.1752 20.7792 30.8346 20.7792C28.9181 20.7792 28.4615 19.3937 28.4312 18.1737H34.8474V18.0381C34.8474 17.2513 34.7669 16.533 34.6081 15.9028C34.4457 15.2582 34.2003 14.7019 33.8786 14.2492V14.2493ZM30.7091 14.3942C32.1305 14.3942 32.8905 15.1593 33.0289 16.732H28.4331C28.5005 15.4514 29.5153 14.3942 30.7091 14.3942ZM43.7285 15.5485C43.5576 15.0026 43.3057 14.5216 42.9801 14.1186C42.6438 13.7027 42.2359 13.3792 41.7679 13.1572C41.2792 12.9253 40.7315 12.8078 40.14 12.8078H40.1378C39.592 12.8166 39.0937 12.9356 38.6569 13.1616C38.2957 13.3483 37.972 13.6103 37.6914 13.9429V9.79753H35.934V22.0762H37.607V21.2405C37.7539 21.4326 37.9426 21.6353 38.1926 21.8145C38.6671 22.1545 39.2541 22.3269 39.9373 22.3269C40.6722 22.3269 41.3273 22.163 41.8847 21.8396C42.3816 21.5514 42.8022 21.1362 43.135 20.6057C43.4256 20.1426 43.6468 19.5971 43.7921 18.9843C43.9176 18.4546 43.984 17.875 43.984 17.3082C43.984 16.6819 43.898 16.0899 43.7285 15.5486V15.5485ZM42.1494 17.5424C42.1494 18.5063 41.9555 19.3142 41.5885 19.8787C41.1978 20.4802 40.6308 20.7849 39.9035 20.7849C38.8519 20.7849 37.6239 20.0495 37.6239 17.9771C37.6239 16.9844 37.7466 16.2207 37.9989 15.6419C38.3633 14.8062 38.9753 14.3999 39.8698 14.3999C40.8216 14.3999 41.4582 14.773 41.8159 15.5405C42.1114 16.1747 42.1494 16.9434 42.1494 17.5423" fill="#961A1F"/>
</svg>
