<svg width="47" height="47" viewBox="0 0 47 47" fill="none" xmlns="http://www.w3.org/2000/svg">
<path d="M3.32324 23.3799C3.32324 31.3189 7.93695 38.1798 14.6272 41.431L5.05973 15.2173C3.94685 17.7117 3.32324 20.4722 3.32324 23.3799Z" fill="#21759B"/>
<path d="M36.9202 22.3674C36.9202 19.8886 36.0298 18.1719 35.2661 16.8358C34.2494 15.1836 33.2964 13.7845 33.2964 12.1324C33.2964 10.2887 34.6948 8.5724 36.6644 8.5724C36.7534 8.5724 36.8377 8.58346 36.9243 8.58842C33.356 5.31925 28.6018 3.32324 23.3801 3.32324C16.3731 3.32324 10.2084 6.91834 6.62207 12.3637C7.09264 12.3778 7.53611 12.3877 7.9128 12.3877C10.0107 12.3877 13.2581 12.1331 13.2581 12.1331C14.3393 12.0694 14.4668 13.6574 13.3867 13.7853C13.3867 13.7853 12.3002 13.9131 11.0911 13.9765L18.3951 35.7017L22.7844 22.5376L19.6595 13.9757C18.5794 13.9124 17.5562 13.7845 17.5562 13.7845C16.4754 13.7212 16.6021 12.0687 17.6829 12.1324C17.6829 12.1324 20.9952 12.3869 22.966 12.3869C25.0636 12.3869 28.3114 12.1324 28.3114 12.1324C29.3933 12.0687 29.5204 13.6567 28.44 13.7845C28.44 13.7845 27.3512 13.9124 26.1444 13.9757L33.3926 35.5364L35.3932 28.8511C36.2603 26.077 36.9202 24.0844 36.9202 22.3674Z" fill="#21759B"/>
<path d="M23.7321 25.134L17.7144 42.6207C19.5111 43.1489 21.4114 43.4378 23.3803 43.4378C25.7159 43.4378 27.9558 43.034 30.0407 42.3008C29.9869 42.215 29.9381 42.1237 29.898 42.0245L23.7321 25.134Z" fill="#21759B"/>
<path d="M40.9794 13.7568C41.0657 14.3957 41.1145 15.0815 41.1145 15.8192C41.1145 17.8546 40.7344 20.1425 39.5894 23.0033L33.4629 40.7167C39.4257 37.2395 43.4364 30.7794 43.4364 23.38C43.4368 19.8929 42.5461 16.6138 40.9794 13.7568Z" fill="#21759B"/>
<path d="M23.3804 0C10.4888 0 0 10.488 0 23.3796C0 36.2727 10.4888 46.7604 23.3804 46.7604C36.2716 46.7604 46.7619 36.2727 46.7619 23.3796C46.7615 10.488 36.2716 0 23.3804 0ZM23.3804 45.6887C11.0799 45.6887 1.07204 35.6808 1.07204 23.3796C1.07204 11.0792 11.0796 1.07204 23.3804 1.07204C35.6804 1.07204 45.6876 11.0792 45.6876 23.3796C45.6876 35.6808 35.6804 45.6887 23.3804 45.6887Z" fill="#21759B"/>
</svg>
